<svg xmlns="http://www.w3.org/2000/svg" xmlns:xlink="http://www.w3.org/1999/xlink" viewBox="0 0 398.69 373.01"><defs>

	<style>
		.cls-1{fill:#581d74;}.cls-2,.cls-6,.cls-7{fill:#f4f6fa;}.cls-2,.cls-21,.cls-3,.cls-4,.cls-6{stroke:#581d74;}.cls-10,.cls-16,.cls-19,.cls-2,.cls-20,.cls-21,.cls-22,.cls-3,.cls-4,.cls-5,.cls-6,.cls-8,.cls-9{stroke-linecap:round;}.cls-16,.cls-18,.cls-19,.cls-2,.cls-3,.cls-4,.cls-8,.cls-9{stroke-linejoin:round;}.cls-10,.cls-14,.cls-17,.cls-18,.cls-2,.cls-4,.cls-6,.cls-8,.cls-9{stroke-width:4px;}.cls-10,.cls-11,.cls-14,.cls-3,.cls-8{fill:#fff;}.cls-3{stroke-width:2px;}.cls-12,.cls-16,.cls-17,.cls-18,.cls-19,.cls-20,.cls-21,.cls-22,.cls-4,.cls-5,.cls-9{fill:none;}.cls-10,.cls-14,.cls-19,.cls-20,.cls-5,.cls-8,.cls-9{stroke:#212e8d;}.cls-10,.cls-12,.cls-14,.cls-17,.cls-22,.cls-5,.cls-6{stroke-miterlimit:10;}.cls-19,.cls-20,.cls-21,.cls-22,.cls-5{stroke-width:3px;}.cls-12{stroke:#000;}.cls-13{fill:#212e8d;}.cls-15{fill:#00a85c;}.cls-16{stroke:#fff;stroke-width:6px;}.cls-17,.cls-18{stroke:red;}.cls-20,.cls-21{stroke-linejoin:bevel;}.cls-22{stroke:#32b0ff;stroke-dasharray:10;}.cls-23{opacity:0.55;isolation:isolate;fill:url(#linear-gradient);}



#Arm_4{
	animation: Arm_4-anim 5s infinite ;
	transform-origin: 295px 320px;
	<!-- animation-duration:12s; -->
}

@keyframes Arm_4-anim{
	0%{
	transform: rotate(0deg);
	}

	
	20%,100%{
	transform: rotate(-33deg);
	}
}

#lines{

	animation: lines-anim 5s infinite;
	<!-- animation-timing-function: cubic-bezier(0, 0, 0, 0); -->
	animation-timing-function: linear;
	<!-- stroke-dasharray: 11260; -->
	stroke-dashoffset: 100; 
	opacity:0;
	<!-- animation-delay:1s ; -->
	
}

@keyframes lines-anim{

	0%,10%{
	opacity:0;
	stroke-dashoffset: 0;
	}
	
	40%{
	opacity:1;
	stroke-dashoffset: 40;
	}
	100%{
	opacity:1;
	}

	
  }

#Path-64{

	animation: path-anim 5s infinite;
	animation-timing-function: linear;
	<!-- animation-delay:4s ; -->
	stroke-dashoffset: 100; 
	opacity:0;
}

@keyframes path-anim{

	0%,10%{
	opacity:0;
	stroke-dashoffset: 0;
	}
	
	40%{
	opacity:1;
	stroke-dashoffset: 40;
	}
	100%{
	opacity:1;
	}
}


<!--  -->


	</style>
	<linearGradient id="linear-gradient" x1="-1612.04" y1="641.6" x2="-1732.97" y2="423.84" gradientTransform="matrix(0.08, -0.73, 0.88, 0.14, 86.82, -956.14)" gradientUnits="userSpaceOnUse"><stop offset="0" stop-color="#dff2fd" stop-opacity="0.3"/><stop offset="1" stop-color="#c3e1ff"/></linearGradient></defs><g id="Body"><ellipse class="cls-1" cx="546.21" cy="335.73" rx="0.8" ry="1" transform="translate(-209.57 543.54) rotate(-71.08)"/><circle class="cls-1" cx="277.3" cy="138.7" r="0.8"/>
	<path class="cls-2" d="M580.24,313.79s-2.3,17.1,7.8,24.3c0,0,7,19.5-23,28.6" transform="translate(-261.05 -199.99)"/>
	<path class="cls-3" d="M538.14,339.49s4.1,13.7-1.9,25.2" transform="translate(-261.05 -199.99)"/>
	<path class="cls-2" d="M608.92,560.9c0,.18,0,.35,0,.51a32.93,32.93,0,0,1-1,9.49.19.19,0,0,1,0,.1H483.58s0-.07,0-.1c-.29-2.74-.88-9-1.07-16.7,0-1.1-.05-2.24-.05-3.39,0-.57,0-1.15,0-1.74,0-2.93.08-6,.26-9.07.07-1,.14-2,.22-3a93.2,93.2,0,0,1,1.82-12.6,28.4,28.4,0,0,0,.62-4.48,2,2,0,0,0,0-.25l0-.72c0-.51,0-1,0-1.56,0-.18,0-.36,0-.55a72.89,72.89,0,0,0-.81-8.33h0c-.74-5.12-1.86-11.2-2.86-19.1-1.8-13.8-1-45-7-72l.25.2,16.82,13.05,4,3.11,4.71,3.66.26.2,73.57,57.1.25.19.24.19,2.13,1.65,30.34,23.55,1.16.9.26.2a25.16,25.16,0,0,0-1.08,4.37,44.65,44.65,0,0,0-.53,7.11c0,6.78.91,14.35,1.44,21.33.16,2,.28,3.87.32,5.7,0,.1,0,.2,0,.3v.1C608.91,560.5,608.92,560.7,608.92,560.9Z" transform="translate(-261.05 -199.99)"/>
	<path class="cls-4" d="M587.74,337.39s3,17,33,25" transform="translate(-261.05 -199.99)"/>
	<path class="cls-5" d="M592.74,348" transform="translate(-261.05 -199.99)"/>
	<path class="cls-2" d="M536.94,363s-1.3,9.4,13.4,7.9" transform="translate(-261.05 -199.99)"/>

	<path class="cls-6" d="M620.24,361.89s13.8,7.8,20,9c16,3,24,15,11,48,0,0-3,38-13,43,0,0-13-19-35-19-3.5,0-9,0-13,3s0-20,5-25" transform="translate(-261.05 -199.99)"/>
	<path class="cls-7" d="M537.74,348.29a132,132,0,0,1-13.3,6.6,124,124,0,0,1-16.3,6s-14.4,86.6-15.4,89.6,75.7,67.5,82,45c5-18,15-43,18-49,0,0-3,0-4,2l-2-2s-2-11,7-27c0,0,2-1,3,0l22.7-55.6s-20.7-4.4-28.7-17.4c0,0-4,10-7,12-3.3,2.2-10,8-15,9a10.34,10.34,0,0,1-4,1c-1,0-2-2-1-3l2-1a39.68,39.68,0,0,0,16.4-10.2s-40.1,3-41.7-3.1a35.08,35.08,0,0,1-1.9,10.6s.6.4.3,1.8a5.36,5.36,0,0,0,1.2,3.1s1.2,3.2,10.4,2.1c1.6-.2,3.7,4-1.5,4.1,0,0-7.2.5-10.3-2.2a8.32,8.32,0,0,1-3.6-8.6,2.15,2.15,0,0,1,1.6-1.2,36.91,36.91,0,0,0,1.8-9.4s0-3.3-.1-3.7Z" transform="translate(-261.05 -199.99)"/>
	<circle class="cls-1" cx="277.3" cy="137.7" r="0.8"/><path class="cls-2" d="M580.24,312.79s-2.3,17.1,7.8,24.3c0,0,7,19.5-23,28.6" transform="translate(-261.05 -199.99)"/>
	<path class="cls-3" d="M538.14,338.49s4.1,13.7-1.9,25.2" transform="translate(-261.05 -199.99)"/><path class="cls-4" d="M537.74,344.89l-.1,0L534.27,346c-3.12,2-.3.1-.46.15" transform="translate(-261.05 -199.99)"/><path class="cls-8" d="M608.93,560.9c0,.17,0,.34,0,.51a29.53,29.53,0,0,1-1.18,9,2.31,2.31,0,0,1-.24.51l-.07.1H483.69a.38.38,0,0,0,0-.1c-.21-1.78-.91-8.33-1.15-16.7,0-1.1-.06-2.24-.08-3.39,0-.57,0-1.15,0-1.74,0-2.92.05-6,.21-9.08.05-1,.12-2,.2-3a94.86,94.86,0,0,1,1.89-13.59,29.09,29.09,0,0,0,.54-3.45l.06-.62v0c0-.21,0-.42,0-.63,0-.42,0-.85,0-1.28,0-.18,0-.36,0-.55a65.33,65.33,0,0,0-.81-9.22s0-.07,0-.11c-.75-5.13-1.87-11.21-2.87-19.11-1.77-13.6-1-44.08-6.75-70.8-.07-.4-.16-.8-.25-1.2l17,13.18,4.25,3.3,4.81,3.74.26.2,73.51,57.06.29.22.23.18,2.08,1.61L609,501l-.26,19.39c-.09.26-.18.53-.26.8a27.94,27.94,0,0,0-1,4.9,51.12,51.12,0,0,0-.34,6.78c0,6.85,1,14.41,1.52,21.33.14,2,.24,3.87.27,5.7v.3a.17.17,0,0,1,0,.1C608.93,560.5,608.93,560.7,608.93,560.9Z" transform="translate(-261.05 -199.99)"/><path class="cls-9" d="M587.74,336.39s3,17,33,25" transform="translate(-261.05 -199.99)"/><path class="cls-5" d="M592.74,347" transform="translate(-261.05 -199.99)"/><path class="cls-2" d="M536.94,362s-1.3,9.4,13.4,7.9" transform="translate(-261.05 -199.99)"/><path class="cls-10" d="M620.24,360.89s13.8,7.8,20,9c16,3,24,15,11,48,0,0-3,38-13,43,0,0-13-19-35-19-3.5,0-9,0-13,3s0-20,5-25" transform="translate(-261.05 -199.99)"/><path class="cls-11" d="M537.74,347.29a132,132,0,0,1-13.3,6.6c-6,2.6-34.91,6.6-38.61,7.5,0,0,7.91,85.1,6.91,88.1s75.7,67.5,82,45c5-18,15-43,18-49,0,0-3,0-4,2l-2-2s-2-11,7-27c0,0,2-1,3,0l22.7-55.6s-20.7-4.4-28.7-17.4c0,0-4,10-7,12-3.3,2.2-10,8-15,9a10.34,10.34,0,0,1-4,1c-1,0-2-2-1-3l2-1a39.68,39.68,0,0,0,16.4-10.2s-40.1,3-41.7-3.1a35.08,35.08,0,0,1-1.9,10.6s.6.4.3,1.8a5.36,5.36,0,0,0,1.2,3.1s1.2,3.2,10.4,2.1c1.6-.2,3.7,4-1.5,4.1,0,0-7.2.5-10.3-2.2a8.32,8.32,0,0,1-3.6-8.6,2.15,2.15,0,0,1,1.6-1.2,36.91,36.91,0,0,0,1.8-9.4s0-3.3-.1-3.7Z" transform="translate(-261.05 -199.99)"/><line class="cls-12" x1="194.46" y1="240.8" x2="194.46" y2="240.79"/><path class="cls-8" d="M480.72,454.64l-.06.07-11.22,5.18c-11-42.71-18.41-41.17-26.55-42.93C468,358.32,480,358.32,480,358.32c21.69-2.1,28.92-5.23,28.92-5.23l-1,.73c16-4,30.83-8.93,30.83-8.93" transform="translate(-261.05 -199.99)"/><path class="cls-13" d="M582.23,312.84c12.21-10.75,26.91-27.45,30-47.35,1.7-11.5-1.2-19-1.7-20.3-1.89-10.9-2.89-13.8-7.1-21.3-15.79-28.4-55-21.3-73.79-17.9-3.91.7-7.21,1.3-8.3,1.2-3.91-.5-5.31-2.8-6.41-4.7a4.34,4.34,0,0,0-2.5-2.5l-2.09.5c-5.61,3.9-9.91,10.9-11.91,19.3-1.59,6.7-2.5,17.3,2.3,30.5,1.61,4.2,3.91,9.4,6.3,10.1-.8,8.7-.6,17.3.81,20,1,2.1.69,6.7.39,10.7-.3,4.5-.59,8.7.61,11.3,1.09,2.3,2.39,5.4,3.8,8.8,4,9.7,8.7,20.8,12.5,24.6l.09.1a16.72,16.72,0,0,0,10,3h.3l-.59,23a9,9,0,0,0,2.4,6.83c2.16,2.23,5.51,3.36,10,3.36a30.16,30.16,0,0,0,3.2-.17,1.28,1.28,0,0,0,.34-.07l14.74-4.21c11.55-3.5,19.26-8.94,22.89-16.17a20.29,20.29,0,0,0,1.41-15,2,2,0,0,0-.72-1c-9-6.4-7-22.25-7-22.4A1.61,1.61,0,0,0,582.23,312.84Z" transform="translate(-261.05 -199.99)"/><path class="cls-11" d="M586.32,338.3A16.58,16.58,0,0,1,585,349.63c-3.12,6.21-10,11-20.45,14.14L550,367.92c-4.63.45-8-.23-9.71-2a4.86,4.86,0,0,1-1.33-3.69,1.55,1.55,0,0,0,0-.22l.6-23.3a1.1,1.1,0,0,0,0-.26,31.36,31.36,0,0,0,7.33-2.39,1.59,1.59,0,0,0,.69-2,1.47,1.47,0,0,0-2-.7c-11.6,5.3-17.8.7-18.39.2-3.41-3.5-8.3-15.1-11.8-23.6-1.41-3.4-2.7-6.6-3.81-8.9-.89-1.8-.6-5.9-.3-9.8.41-4.8.7-9.4-.7-12.2-2.19-4.5-.39-32.6,4.2-37.5.5-.6.8-.5.91-.4,17.5,7.5,31.59,5.4,41,4,4.09-.6,7.59-1.1,8.59-.2,2.8,2.3,4.2,6.8,5.61,11.2s2.69,8.6,5.5,10.8a1.42,1.42,0,0,1,.69,1.3c-.19,1.9-3.89,4.8-6.5,6.2l-.6.3-.2.6c-2.09,8.3-.09,13.7,0,13.8a2.18,2.18,0,0,0,1.7,1.5c1.91.3,5.3-2.8,9.91-9.1l.09-.2.1-.2c.9-2.5,2.9-6.6,5.61-6.1a5.28,5.28,0,0,1,3.5,3.6c0,4.1-2.91,5.4-5.91,6.8-2,.9-3.89,1.7-4.89,3.4-2.31,3.8-1.61,6.5-.91,8.9a11.4,11.4,0,0,1,.71,3.8,36.42,36.42,0,0,1-1.21,7.9c-.46,2-.73,3.29-.29,4.1C577.81,317.55,577.35,331.33,586.32,338.3Z" transform="translate(-261.05 -199.99)"/><path class="cls-13" d="M516.84,273.79a3.8,3.8,0,1,0,3.8,3.8A3.93,3.93,0,0,0,516.84,273.79Z" transform="translate(-261.05 -199.99)"/><path class="cls-13" d="M526,269.69c-1.9-3.3-10.5-4.3-14.6-3.8,0,0-4.1.5-5.2,1.4-.7.6-.6,2.4.5,3.3,1.9,1.6,4.7-1.6,9.8-1.2a29.66,29.66,0,0,1,8.6,1.7C525.34,271.09,526.54,270.59,526,269.69Z" transform="translate(-261.05 -199.99)"/><path class="cls-13" d="M536.84,270c-.6.8.6,1.4.8,1.4,2.6-.5,4-1.2,8.7-1.1,5.1.1,7.7,3.5,9.7,1.9,1.1-.9,1.3-2.7.7-3.2-1-.9-5.1-1.7-5.1-1.7C547.74,266.39,539,266.89,536.84,270Z" transform="translate(-261.05 -199.99)"/><path class="cls-13" d="M546.44,274.79a3.8,3.8,0,1,0,3.8,3.8A3.8,3.8,0,0,0,546.44,274.79Z" transform="translate(-261.05 -199.99)"/><path class="cls-13" d="M552.05,278.29a1,1,0,0,1-.79-.38c-3.81-4.84-11.41-.22-11.49-.17a1,1,0,1,1-1-1.7c3.17-2,10.2-4.35,14.11.63a1,1,0,0,1-.78,1.62Z" transform="translate(-261.05 -199.99)"/><path class="cls-13" d="M511.25,277a1,1,0,0,1-.77-1.65c4.1-4.8,11-2.22,14.11-.18a1,1,0,1,1-1.09,1.67c-.08-.05-7.53-4.85-11.49-.19A1,1,0,0,1,511.25,277Z" transform="translate(-261.05 -199.99)"/><path class="cls-13" d="M530.2,304.44c-3.94,0-6.34-1.66-7.32-3.42a3.65,3.65,0,0,1,.21-4.19,27.52,27.52,0,0,0,5.67-12.25,1.5,1.5,0,1,1,3,.42,30.23,30.23,0,0,1-6.33,13.75c-.13.15-.09.48.1.81.69,1.23,3,2.25,6.53,1.74a1.52,1.52,0,0,1,1.7,1.28,1.5,1.5,0,0,1-1.27,1.7A16.66,16.66,0,0,1,530.2,304.44Z" transform="translate(-261.05 -199.99)"/><path class="cls-13" d="M532.06,318.85a13.1,13.1,0,0,1-4.34-.66,1.5,1.5,0,0,1,1-2.81c.3.11,7.26,2.52,14.42-4.65a1.5,1.5,0,0,1,2.13,2.12C540.39,317.77,535.45,318.85,532.06,318.85Z" transform="translate(-261.05 -199.99)"/><circle class="cls-7" cx="253.8" cy="78.1" r="1.3"/><circle class="cls-7" cx="283.3" cy="78.6" r="1.3"/><path class="cls-13" d="M280,308.88c-4.12-.19-8.11,1.77-8,6.44.21,8.11,2.22,16.59,3.3,24.64.65,4.87,1.13,9.8,2,14.63.15.89,1.6,12,2.1,12.71,1,1.49,3.52,3.34,5.74,3.35a10.57,10.57,0,0,0,6.38-3.06,3.57,3.57,0,0,0,.75-2.31c0,1.66-2.75,2.15-3,.19-.05-.39-.11-.77-.16-1.15-1.11,2.58-4.05,3.6-6.69,1.55-1.61-1.27-1.74-9.91-2.09-11.44-.84-3.76-.94-7-1.34-10q-1.72-13.05-3.48-26.06c-.4-3-.36-7.12,4.18-6.26,3.41.65,3,4.26,3.36,6.87l3.48,26,2.58,19.29a5.16,5.16,0,0,0,.36-1.21c.1-.53,2.26.12,2.7,1.48-4-18.52-3.92-32.08-6.65-49.87C285,311.41,283.67,309.06,280,308.88Z" transform="translate(-261.05 -199.99)"/><path class="cls-11" d="M279.65,312.14c-4.54-.86-4.58,3.28-4.18,6.26q1.74,13,3.48,26.06c.4,2.94.5,6.21,1.34,10,.35,1.53.48,10.17,2.09,11.44,2.64,2.05,5.58,1,6.69-1.55L286.49,345,283,319C282.66,316.4,283.06,312.79,279.65,312.14Zm-.92,4.8c-.2-1.49,2-2,2.23-.43q2.79,21.08,5.59,42.14c.2,1.48-2,2-2.23.43Q281.53,338,278.73,316.94Z" transform="translate(-261.05 -199.99)"/><path class="cls-13" d="M281,316.51c-.21-1.58-2.43-1.06-2.23.43q2.81,21.06,5.59,42.14c.21,1.56,2.43,1.05,2.23-.43Q283.75,337.58,281,316.51Z" transform="translate(-261.05 -199.99)"/><path class="cls-13" d="M292.13,364.59c-.44-1.36-2.6-2-2.7-1.48a5.16,5.16,0,0,1-.36,1.21c.05.38.11.76.16,1.15.26,2,3,1.47,3-.19,0-.06,0-.12,0-.18a.68.68,0,0,0,0-.2l0-.1A1.6,1.6,0,0,0,292.13,364.59Z" transform="translate(-261.05 -199.99)"/><path class="cls-13" d="M292.22,365.1c0,.06,0,.12,0,.18A.37.37,0,0,0,292.22,365.1Z" transform="translate(-261.05 -199.99)"/><path class="cls-5" d="M271.5,358.5c-3.2-1.77,1.29-12.3,1.29-12.3s4-1.32,6.09-3.58,0-5.4,0-5.4-9.45,4.15-10.6,5-6.63,10.37-5.58,13.75l3.95,7.29" transform="translate(-261.05 -199.99)"/><path class="cls-5" d="M265.24,353.54s-1-11.24-.71-12.76.12-5.27,1.83-8.3c.93-1.64,5.58-5,5.58-5l4.12-3s3.27,6.37-.38,8.87c0,0-1.05.15-3.64,2a4,4,0,0,0-1.33,4.78" transform="translate(-261.05 -199.99)"/><path class="cls-11" d="M275.27,326.24s-7.43,6-7.95,6.94-2.09,8.46-1.35,9.77a6.93,6.93,0,0,1,1.41-1.55c.63-.28,2-1.14,2-1.14a17.4,17.4,0,0,1,.83-4.13c.42-1,3.87-2.9,4.44-3.45C277.4,330,276.52,329.42,275.27,326.24Z" transform="translate(-261.05 -199.99)"/><path class="cls-5" d="M290.09,368.84a9.42,9.42,0,0,0,3.54,3.8" transform="translate(-261.05 -199.99)"/><path class="cls-5" d="M272.14,348.55c.44,1.58,1.63,7.49,2.36,8.95" transform="translate(-261.05 -199.99)"/><path class="cls-5" d="M273,320.78s-7.54,5.09-8.65,8.11c-.82,2.23.39,10.08.39,10.08" transform="translate(-261.05 -199.99)"/><path class="cls-11" d="M286.69,356.14s-12.22,1.81-12.76,2.13-6,5.72-6.66,7.83l1.55.59,8.95-5.37a9.21,9.21,0,0,1,2.63-1.14C281.73,359.89,285.57,360.37,286.69,356.14Z" transform="translate(-261.05 -199.99)"/><path class="cls-11" d="M278.17,338.59l-9,4.65s-5.12,5-5.76,11.4l3.38,5.95c.11.19,1.18-2.35,2.71-3.5,0,0-1.55-3.16-.51-5.75.91-2.24,4.41-6.78,4.41-6.78S280.09,343.37,278.17,338.59Z" transform="translate(-261.05 -199.99)"/><path class="cls-5" d="M444.5,416.5s-25,19-25,24c0,0-32.87-17.82-51-27-8.27-4.19-13.49-9.41-21.17-14.72-6-4.18-11.78-8.83-17.78-13.07-5.68-4-12.26-6.53-17.63-11-1.41-1.19-3.64-6-7-10.69a31.85,31.85,0,0,0-5.15-5.78,17.82,17.82,0,0,0-2.07-1.53,14.64,14.64,0,0,0-2.09-1.14s-5.33-5.54-9.34-8.88a14.24,14.24,0,0,0-3.55-2.42l-2.94-1" transform="translate(-261.05 -199.99)"/><path class="cls-5" d="M468.5,456.5s-26.69,20.83-38.76,22.19-4.63,2.24-14.85-1.79-63.75-23.91-100-71.6c-6.29-4.68-6.06-5.47-8.89-9.13-5.48-7.07-25.07-9.71-28.26-13.17s-10.26-17.4-10.26-17.4,4.6-7.87,7.22-8.33,12.63-2.07,12.63-2.07c-1.39,6.44-5.2,5.85-7.81,6.32,0,0-3.55,2-3.9,4.24" transform="translate(-261.05 -199.99)"/></g><g id="Muscle"><path id="Muscle-2" data-name="Muscle" class="cls-14" d="M584.5,441.51c27.5-8.51,48,15,48,15-39,74.2-70,74.2-70,74.2s-7.5,1.25-9-1A38.3,38.3,0,0,1,544,509c-1.52-10.84,2.15-25.53,3-30C551,458,584.5,441.51,584.5,441.51Z" transform="translate(-261.05 -199.99)"/></g>
	
	
	<g id="Arm_4" data-name="Arm 4">
		<path class="cls-11" d="M559,526.77c11.51-8.95,16.3-24.87,21.09-38.79,0-2,2.88-4,3.84-6a20.68,20.68,0,0,0,3.54-9.54,10.75,10.75,0,0,0-3.48,6.27l6.62-104.55s8.72-27.55,1.53-31.61L572.69,339s-14.55,62.36-23,75.83-20,82.39-8.94,98.74c7.76,11.43,7,17,17.13,16.38A4.88,4.88,0,0,1,559,526.77Z" transform="translate(-261.05 -199.99)"/>
		<path class="cls-17" d="M540.74,288.61a3.81,3.81,0,0,1-3.62-3.8v-9a3.82,3.82,0,0,1,3.81-3.81h15.49a3.81,3.81,0,0,1,3.8,3.81v8.86a4,4,0,0,1-.66,2.28,3.82,3.82,0,0,1-3.15,1.66v0H540.74Z" transform="translate(-261.05 -199.99)"/>
		<path class="cls-18" d="M581.53,273.25" transform="translate(-261.05 -199.99)"/>
		<path class="cls-18" d="M572.41,274.82l-11.8,2.24c.62.61,30.08-7.73,33.24-4,3.47,4.13-2,12.48,2.43,12.56" transform="translate(-261.05 -199.99)"/>
		<path class="cls-17" d="M527.72,279.4a9.74,9.74,0,0,1,9.59.35" transform="translate(-261.05 -199.99)"/>
		<path class="cls-17" d="M507.75,287.74a3.81,3.81,0,0,1-3.62-3.81v-9a3.81,3.81,0,0,1,3.81-3.81h15.49a3.81,3.81,0,0,1,3.8,3.81v8.86a4,4,0,0,1-.66,2.28,3.8,3.8,0,0,1-3.15,1.67v0H507.75Z" transform="translate(-261.05 -199.99)"/>
		<path class="cls-9" d="M573.38,338.76c.59,3.92-2.32,14.29-6.28,25.9l-.69,2c-1.35,3.88-2.8,7.87-4.25,11.78-.43,1.16-.86,2.32-1.29,3.45s-1,2.46-1.41,3.67c-.76,2-1.51,3.93-2.23,5.8l-.17.39c-1.92,4.92-3.65,9.2-4.91,12.29h0l-.74,1.84c-.86,2.1-1.37,3.3-1.37,3.3-24.9,55.28-18,124.46,9.08,121.66" transform="translate(-261.05 -199.99)"/>
		<path class="cls-13" d="M561.11,268l.38-.29c.24-.13,1.61-.86,3.25-1.65a2,2,0,0,1,.36-.18l.09-.05c7.3-3.48,9.75-3.5,11-3.22l8.92,2.09c1.62,0,4.32,1.44,8.46,7.86,4.81,7.46,9.78,15.16,7.81,21.7-.37,1.2-1,2.89-1.9,5l-.08.21c-3.16,7.87-8.44,21-5.45,27.74,4.58,10.22-.49,14.23-1.15,14.7a1.5,1.5,0,0,1-1.57.7L572.86,339a1.71,1.71,0,0,1-.38-.13,1.49,1.49,0,0,1-.8-1.5,1.35,1.35,0,0,1-.19-.38,12.21,12.21,0,0,0-2.11-3.29c-4.25-5.3-7-17.65-7.49-20.07a23.42,23.42,0,0,0-1-2.68c-2.32-5.52-7.16-17-3.1-28.13.21-.58.45-1.16.71-1.76l.15-.36.06-.05a4.24,4.24,0,0,1,3.23-2.27,4.43,4.43,0,0,1,3.51,1.72,4.57,4.57,0,0,1,.86-1.1,3,3,0,0,1-.7-.22,2.11,2.11,0,0,1-.89-.84,3,3,0,0,1,.53-3.24h-.36c-2.86,0-4.58-.66-5.27-2C558.53,270.64,560.47,268.64,561.11,268Z" transform="translate(-261.05 -199.99)"/>
		<path class="cls-11" d="M586.85,293.65" transform="translate(-261.05 -199.99)"/>
		<path class="cls-11" d="M587.18,287.25a1.2,1.2,0,0,0-.74-.07,14.56,14.56,0,0,1-9.23-2.75c-2.09.53-7,1.52-10,0-.1-.05-.19-.12-.29-.18-.23,2.27-.46,4.88.4,5.65s1,2.3-.76,2.44a.47.47,0,0,1-.28-.07c-2.89-1.82-1.47-6.8-2.26-9.12-1-1.43-1.66-1.8-1.94-1.79s-.55.34-.81.78l-.11.29,0,0c-.2.46-.39.93-.55,1.38-3.65,10,.87,20.77,3.07,26a20.32,20.32,0,0,1,1.18,3.16c1.07,5.13,3.73,14.86,6.9,18.81a14.41,14.41,0,0,1,2.63,4.27.77.77,0,0,1,0,.15l16.21,3.2.14-.23.18-.11a8.3,8.3,0,0,0,1.39-2.38c.32-1.09.56-3.6-1.47-8.12-3.59-8,2-22,5.4-30.41l0-.12c.84-2.09,1.5-3.75,1.82-4.83,1.53-5-3-12.05-7.41-18.86-3.22-5-5-6.07-5.52-6.27l-.12,0-9.66-2.26c-.17,0-1.86-.3-8.68,3l-.06,0-.18.09-.1,0c-1.4.67-2.52,1.25-3,1.5a5.1,5.1,0,0,0-.49.62,9.06,9.06,0,0,0,2.16.17h.6l.35,0h.13c.48,0,.88-.08,1.19-.12l1.49-.2v.09c6.13-3.27,16.9,1.64,17.44,1.89a1.46,1.46,0,0,1,.73,2,1.5,1.5,0,0,1-2,.73c-.13-.07-13.32-6-16.47-.29l-.1.18-.14.15a3.53,3.53,0,0,0-.25.28c.34-.06.78-.16,1.33-.31a15.79,15.79,0,0,1,5-.42h0c6.49.38,13.51,3.49,13.88,3.66a1.5,1.5,0,1,1-1.23,2.74c-.08,0-6.78-3-12.63-3.4-2.93.89-5.87,2.36-6.33,3.16,1.23,1.36,6.09.77,9-.07l.77-.22.6.5s3.63,2.94,7.69,2.56c2-.18,1.47,1.54,2,2.27" transform="translate(-261.05 -199.99)"/>
		<path class="cls-13" d="M582.36,301.69l-.18-.09a5.77,5.77,0,0,1-1.36-.94l-1.09-1,2.33-2.45,1.09,1c1.37,1.29,4.92.83,6.05.56l1.46-.34.77,3.29-1.45.35c-.46.11-4.58,1-7.62-.37Z" transform="translate(-261.05 -199.99)"/>
		<path class="cls-5" d="M592.7,338.84c1.36,4.93,4.86,19.71,1.14,29.43-2.46,6.42-5.05,46-7,73.58-.21,2.95-.41,5.76-.61,8.38" transform="translate(-261.05 -199.99)"/>
		<path class="cls-19" d="M587,474.34a14.28,14.28,0,0,1,2.34-2.64" transform="translate(-261.05 -199.99)"/>
		<path class="cls-19" d="M585.21,475.4c-.07,1.71-.14,3-.23,3.62a.13.13,0,0,1,0,.06,1.3,1.3,0,0,1-.07.36c0-.13,0-.24.07-.36a.13.13,0,0,0,0-.06,13,13,0,0,1,1.68-4.21l.31-.47" transform="translate(-261.05 -199.99)"/>
		<path class="cls-19" d="M586.24,450.23c-.39,5.23-.62,12.31-.79,18.21-.08,2.49-.15,4.78-.22,6.61,0,.12,0,.23,0,.35" transform="translate(-261.05 -199.99)"/>
		<path class="cls-20" d="M566.51,291.27a23.16,23.16,0,0,0,6.29,11.09" transform="translate(-261.05 -199.99)"/>
		<path class="cls-21" d="M571.5,290.92" transform="translate(-261.05 -199.99)"/>
		<path class="cls-21" d="M580.62,292.29" transform="translate(-261.05 -199.99)"/>
		<path class="cls-21" d="M577.76,282.87" transform="translate(-261.05 -199.99)"/>
		<path class="cls-20" d="M587.67,292.8s-10.42-.8-11.89-3.41c0,0-6.21,1.21-6.82-1.89-.44-1.42,7.35-5.89,17.71-.44" transform="translate(-261.05 -199.99)"/><path class="cls-11" d="M588,444" transform="translate(-261.05 -199.99)"/>
	</g>
	<g id="rays">
		<g id="lines">
			<line id="line5" class="cls-22" x1="213.92" y1="59.33" x2="29.56" y2="127.15"/>
			<line id="line4" class="cls-22" x1="215.03" y1="84.44" x2="39.04" y2="136"/>
			<line id="line3" class="cls-22" x1="221.43" y1="115.32" x2="46.91" y2="145.81"/>
			<line id="line2" class="cls-22" x1="231.18" y1="144.12" x2="53.58" y2="152.99"/><line id="line1" class="cls-22" x1="245.45" y1="173.55" x2="51.46" y2="154.94"/>
		</g>
		<path id="Path-64" class="cls-23" d="M287.79,325.55,477.54,241c33,6.34,59.56,101.31,35.48,145.37L313.85,358.51Z" transform="translate(-261.05 -199.99)"/>
	</g></svg>