<?xml version="1.0" encoding="utf-8"?>
<!-- Generator: Adobe Illustrator 23.0.4, SVG Export Plug-In . SVG Version: 6.00 Build 0)  -->
<svg version="1.1" id="Layer_1" xmlns="http://www.w3.org/2000/svg" xmlns:xlink="http://www.w3.org/1999/xlink" x="0px" y="0px"
	 viewBox="0 0 670 740" style="enable-background:new 0 0 670 740;" xml:space="preserve">
<style type="text/css">
	.st0{opacity:0.83;}
	.st1{fill:#E1E1E0;}
	.st2{fill:#212E8D;}
	.st3{fill:none;}
	.st4{fill:#FFFFFF;stroke:#737373;stroke-width:0.75;stroke-miterlimit:10;}
	.st5{fill:none;stroke:#212E8D;stroke-width:3;stroke-linecap:round;stroke-miterlimit:10;}
	.st6{fill:none;stroke:#212E8D;stroke-width:4;stroke-linecap:round;stroke-miterlimit:10;}
	.st7{opacity:0.46;}
	.st8{fill:#FFFFFF;}
	.st9{opacity:0.54;}
	.st10{opacity:0.57;}
	.st11{fill:#32B0FF;}
	.st12{fill:#D9D9D9;}
	.st13{opacity:0.53;}
	.st14{fill:none;stroke:#32B0FF;stroke-width:3;stroke-linecap:round;stroke-miterlimit:10;stroke-dasharray:10;}
	.st15{opacity:0.55;fill:url(#Path-64_1_);enable-background:new    ;}
	.st16{fill:#101F41;}
					#lines{
	animation: lines-anim 2s infinite;
	    animation-timing-function: cubic-bezier(0, 0, 0, 0);
	stroke-dasharray: 10;
}

@keyframes lines-anim{
	0%{
	stroke-dashoffset: 0;
	}
	100%{
	stroke-dashoffset: 60;
	}
}
</style>
<g class="st0">
	<path class="st1" d="M484.1,309.5c-0.1-1.8-15-16.3-14.5-17.5c1.5-3.4,9-7.5,9-7.5s-0.8,1.9-1.1,4.8c-0.3,2.9,1.9,7.1,2.5,10"/>
</g>
<g>
	<path class="st2" d="M504.8,321.3c3.9-1.3,6.3,5.1,2.4,6c-42.4,13.4-52,63.1-49.3,101.7c1.5,21.5,7.2,42.2,5.5,64
		c-1.1,14.2-3.7,28.4-6.9,42.3c-1.5,6.7-4.1,14-2.7,20.8c0.8,3.7-4.7,5.2-6,1.7c-5.1-13.9,17.6-12.8,24.7-11.9
		c17.5,2.3,34.2,8.6,50.2,15.6c12.7,5.5,26,13.5,39.9,15.1c-1.2,1-2.3,1.9-3.5,2.9c3-23.1,6.2-46.7,14.5-68.5
		c8.9-23.3,22.7-43.3,26.3-68.5c0.6-4.3,6.8-3.2,6.2,1c-3.4,23.7-15.1,42.6-24.3,64.2c-9.8,23.1-13.3,48.2-16.5,72.8
		c-0.2,1.8-1.7,3.1-3.5,2.9c-20.2-2.3-39.2-15.4-58-22.3c-12.8-4.7-28.4-10.1-42.4-9c-2.4,0.2-8.3,1.5-7.7,3.3c-2,0.6-4,1.1-6,1.7
		c-1.5-7.2,0.8-14.5,2.4-21.5c3.4-14.7,6.2-29.7,7.3-44.9c1.8-25-6.1-49.2-6-74.2C451.6,378.9,464.4,334,504.8,321.3L504.8,321.3z"
		/>
</g>
<g>
	<path class="st2" d="M274,537.8c-2.8-2.8,0.7-8.4,3.8-5.4c13.4,13.4,27,26.8,40.6,40.1c23,22.5,46.1,44.8,69.7,66.6
		c17,15.8,34.1,33.2,54.5,44.6c18.8,10.6,38.3,19.4,56,1.2c6.7-6.9,12.4-15.6,18.4-23.2c3.5-4.5,5.9-9.8,8.2-15
		c10-22.5,17.6-46.4,24.7-70c1.3-4.2,7-1.2,5.8,2.7c-3.6,11.9-7.4,23.7-11.5,35.4c-5.5,15.8-10.6,33.2-19.7,47.4
		c-4.4,6.9-10.2,13-15,19.6c-5.4,7.5-11.4,13.7-19.9,17.5c-16,7.2-29.9,1.3-44.4-6.5c-22.7-12.3-41.2-30.1-60.1-47.5
		C347.2,610.3,310.4,574.2,274,537.8L274,537.8z"/>
</g>
<g>
	<path class="st2" d="M305.2,501c-3.2-2.4,0.3-8,3.8-5.4c21.3,16.6,43.1,32.7,65.8,47.2c14.3,9.1,27.9,14.1,43.7,19.9
		c19.2,7.1,35.6,18,44.2,37.1c1.7,3.9-4,6.6-5.8,2.6c-10.8-23.8-33.9-30.8-56.7-38.6c-12-4.1-22.8-11.4-33.3-18.3
		C345.7,531.6,325.2,516.5,305.2,501L305.2,501z"/>
</g>
<g>
	<path class="st2" d="M452.1,549.3c0.4-4.4,6.6-3.2,6.2,1c-1.1,12.7-2.3,25.5-3.4,38.2c-0.4,4.4-6.6,3.2-6.2-1
		C449.8,574.8,451,562,452.1,549.3L452.1,549.3z"/>
</g>
<g>
	<path class="st2" d="M418.2,182c-2.3-0.5-4.7-1.1-7-1.7c-2.8-0.7-5.6-1.4-8.4-2.1c-4-0.9-6.1,5.5-2.1,6.5c1.5,0.4,2.9,0.7,4.4,1.1
		l0,0l0,0c3.7,0.9,7.4,1.8,11,2.7c-3.7-0.9-7.3-1.8-11-2.7c-0.5,1.9-0.4,4.2,0.4,6.5c1.7,4.6,5.7,7.3,8.8,6.1
		c3.1-1.1,4.3-5.5,2.8-9.9C420.4,188.3,421.8,182.9,418.2,182z M406.7,183c0.4-0.4,1-0.8,1.5-0.9C407.6,182.3,407.1,182.6,406.7,183
		z M412.1,197.5c0-0.1,0-0.1,0.1-0.2C412.1,197.3,412.1,197.4,412.1,197.5z M412.3,191.5c0,1.3-1.1,2.3-2.3,2.3
		c-1.3,0-2.3-1.1-2.3-2.3c0-1.3,1.1-2.3,2.3-2.3C411.2,189.1,412.3,190.2,412.3,191.5z"/>
	<path class="st2" d="M403.6,164.9c9,1.8,12.5,8.6,16.4,6.6c2.2-1.2,3.3-4.3,2.3-5.5c-1.6-2-8.4-4.7-8.4-4.7c-6.8-2.8-22.2-4.8-27,0
		c-1.3,1.3,0.5,2.7,1,2.7C392.7,163.9,395.2,163.3,403.6,164.9z"/>
	<path class="st2" d="M542.9,228.8L542.9,228.8L542.9,228.8c-0.2,0.8-0.1,1.7,0.7,2.7l0,0c0.4,0.9,1.2,1.7,2.5,1.9
		c11.8,1.5,18.3,14.3,19.7,24.8c3,22.7-7.9,34.4-28,42c-3.7,1.5-2.8,8.1,1.2,6.6c22.3-8.4,35.5-21.5,33.4-46.6
		c-1-12.1-6.6-25.3-17.6-30.9c0.1,0.7,0,1.6-0.4,2.3c0.4-0.7,0.5-1.6,0.4-2.3l0,0c-0.9-0.5-1.9-0.9-2.9-1.3c1,0.4,2,0.8,2.9,1.3
		c-1.1-6.2,1.3-13.7,2.7-19.7c2.2-9.7,4.8-19.3,7.4-28.9c5.5-20.3,12.5-40.4,16.8-60.9c5.9-27.9-3.4-61.1-4.1-64.2
		c-4.9-21.3-18.3-37.6-40.5-41.4c-4.5-0.8-9.3,0-13.8,0l0,0c-1.3-0.1-2.7-0.2-4-0.4c-1.6-0.3-5.8-3-8.3-3.8
		c-5.5-1.8-11.4-2.8-17.2-3.2c-25.1-1.8-50.5,6.4-73.3,16c-9.9,4.2-19.6,8.9-29.1,13.9c-8,4.2-18.6,12.4-26.2,2.4
		c-1-1.4-3.4-1.5-4.5-0.2c-4.8,5.6-8.6,11.9-10.9,18.5l0,0c-5.7,15.9-2.6,33,15.4,42.9c3.6,1.9,6.9,2.8,10.2,2.8l0,0l0,0l0,0l0,0
		c0.2,0,0.3,0,0.5,0c-0.2,0-0.3,0-0.5,0c-3.8,18.1-6.8,37.4-5.4,55.9c1.1,13.2,8.1,22.6,13.2,34.4c5.6,12.9-5.6,26.2-7.8,38.9
		c-1.8,9.9,4,13,12.9,15.1c8,1.9,13.5,1.6,18.3,9.1c2.9,4.6,5,8.4,8.8,12.3c13.1,13.6,27.9,41.5,49.5,27.5c1-0.6,1.9-1.3,2.9-2l0,0
		c5.9,7.1,7.7,5,15.2,21.6c0,0,4.8,0.8,4.1-0.8c-4.7-11.2-11-16-16.9-22.7c-0.8-0.9-1.6-1.8-2.3-2.8c0.8,1,1.5,1.9,2.3,2.8
		c9.7-7.9,18.7-19.1,25.1-29c6.9-10.7,8.7-24.8,7.8-37.3c-0.3-4.4-6.5-2.5-6.2,1.6c0.9,12-1.5,25.1-8.7,34.8
		c-6.4,8.6-13.9,18.7-22.7,25.5l0,0c-1.4,1.1-3,2.2-4.5,3.1c-12.7,7.5-20.7-4.5-28.6-13.2c-6.1-6.7-14.4-13.8-18.8-21.7
		c-5.4-9.8-6.9-11.7-18.1-14.1c-6.6-1.4-14.5-1.7-13.8-10c0.4-5.4,3.9-11.4,5.7-16.5c2.8-7.6,5.3-15,2.4-22.9
		c-4-10.6-11.7-19.2-13.3-30.8c-2.8-19.4,1.1-40.7,5.2-59.7c0-0.1,0-0.1,0-0.2c1.6-0.5,3.1-1.2,4.8-1.9c9.9-4.5,19.8-12.4,31.1-12.1
		c11.5,0.3,29.3,8.1,28.5,21.6l0,0c0,0.1,0,0.1,0,0.1c-3,11.7-10.5,26.6-5,38.8c3.7,8.2,15.4,7.7,20.9,14.4c8,9.6,4.7,23.6,8.6,34.6
		c2.5,7.4,9.3,7.4,15.2,3c8.4-6.3,3.6-16,6.2-25.4c1.6-5.7,4.6-13.3,11.2-14.9c6-1.4,10.7,3.2,12.6,8.4c3.8,10.4-4,21.3-9.5,29.5
		c-9.8,14.5,3.8,14.4,14.5,20.4c7.5,4.2,14.3,9.8,22.3,12.8C542.7,230.5,542.7,229.6,542.9,228.8"/>
	<path class="st2" d="M465.6,288.3L465.6,288.3c-0.3,0.2-0.4,0.6-0.4,1.2C465.2,289,465.4,288.5,465.6,288.3z"/>
	<path class="st2" d="M405.1,87.1c0,0.1-0.1,0.1-0.1,0.1S405.1,87.2,405.1,87.1z"/>
	<path class="st2" d="M364.4,43.8L364.4,43.8L364.4,43.8L364.4,43.8L364.4,43.8z"/>
	<path class="st2" d="M380.5,102.3c0.4-0.1,0.7-0.2,1.1-0.3v-0.1v0.1C381.2,102.1,380.9,102.2,380.5,102.3z"/>
</g>
<g>
	<path class="st2" d="M193.8,687.1c-1-1.7-0.5-3.9,1.2-4.9c13.7-8.3,30.3-17.8,44.9-26.2c12.5-7.3,23.4-13.5,27.7-16.3
		c17-11.1,40.4-30.4,62.4-51.5c1.4-1.4,3.6-1.3,5,0.1s1.3,3.6-0.1,5c-22.3,21.3-46.1,40.9-63.5,52.3c-4.5,3-14.9,8.9-28.1,16.5
		c-14.6,8.4-31.1,17.9-44.7,26.2c-0.6,0.3-1.3,0.5-1.9,0.5C195.5,688.8,194.3,688.2,193.8,687.1z"/>
</g>
<g>
	<path class="st2" d="M614.7,720.4c-1.9-0.2-3.3-2-3-4c1.5-10.3,4.1-18.1,6.7-26.3c3.2-10,6.9-21.3,9.4-39.8
		c6.8-50.1,12.4-89.6,16.9-121.4c17.7-125.1,17.7-125.1,4.2-158.7c-3.1-7.8-7.1-17.5-11.6-30.8c-2.3-6.7-14.6-20.1-25.4-32
		c-15-16.5-24.3-26.9-24.8-33.3c-2.3-28.9-34.5-41.4-34.8-41.5l0,0c-1.9-0.7-2.8-2.7-2.1-4.6c0.7-1.9,2.8-2.8,4.6-2.1
		c0.4,0.1,9.3,3.5,18.6,11c12.5,10,19.7,22.7,20.8,36.6c0.4,4.2,13.5,18.5,23,29c12.4,13.6,24.1,26.4,26.9,34.5
		c4.5,13.1,8.4,22.7,11.5,30.4c14.2,35.4,14.2,35.4-3.8,162.4c-4.5,31.8-10.1,71.3-16.9,121.4c-2.6,19.1-6.4,30.7-9.7,41
		c-2.7,8.3-5,15.4-6.4,25.1c-0.2,1.8-1.7,3.1-3.5,3.1C615.1,720.4,614.9,720.4,614.7,720.4z"/>
</g>
<g>
	<path class="st2" d="M422.7,571c-1.9-0.3-3.2-2.1-2.9-4.1c2-11.8-5.1-83.8-8-110.5V456c0-19.6,10.3-62.5,18.7-77.9
		c6-11,41.6-75.5,42-76.1c1-1.7,3.2-2.4,4.9-1.4c1.7,1,2.4,3.2,1.4,4.9c-0.4,0.7-36,65.1-42,76.1c-7.8,14.3-17.7,55.8-17.8,74.3
		c0.7,6.2,10.5,97.3,8,112.3c-0.3,1.8-1.8,3-3.5,3C423.4,571.2,423.2,571.2,422.7,571z M415.5,456.1L415.5,456.1L415.5,456.1z"/>
</g>
<g>
	<path class="st2" d="M393.9,536.7c-1.5-0.4-4.2-1.5-5.2-5.6c-5.1-21.7-27-39.7-41.5-51.6c-11.1-9.1-17.1-14.1-15.2-19.3
		c5.2-14.3,16-23.3,26.4-32c7.7-6.4,15-12.5,19.5-20.3c48.7-84.1,87-92.5,88.6-92.8c1.9-0.4,3.8,0.9,4.2,2.8
		c0.4,1.9-0.9,3.8-2.8,4.2c-0.4,0.1-37.1,8.6-83.8,89.4c-5.1,8.9-13.3,15.7-21.1,22.2c-9.5,8-19.4,16.3-24.1,28.5
		c1.1,2.1,7.5,7.5,12.8,11.8c15.2,12.5,38.2,31.5,43.9,55.5c0.1,0,0.1,0.1,0.1,0.2c2.4-0.2,10.6-5.9,21.4-19.9
		c1.2-1.5,3.4-1.8,5-0.6c1.5,1.2,1.8,3.4,0.6,5c-5.4,7.1-18.5,22.7-27.4,22.7C394.8,536.9,394.3,536.8,393.9,536.7z M338.6,462.7
		L338.6,462.7L338.6,462.7z"/>
</g>
<g>
	<path class="st2" d="M415.6,705.9l-4-37.3c-0.2-1.9,1.3-3.7,3.2-3.9s3.7,1.2,3.9,3.2l4,37.3c0.2,1.9-1.2,3.7-3.2,3.9
		c-0.1,0-0.3,0-0.4,0C417.3,709.1,415.7,707.7,415.6,705.9z"/>
</g>
<g>
	<path class="st2" d="M310.6,504.2c-1.7-1-2.3-3.2-1.3-4.9c12.6-21.2,25.5-33.7,26-34.2c1.4-1.4,3.6-1.3,5,0.1s1.3,3.6-0.1,5
		c-0.2,0.1-12.8,12.4-24.8,32.7c-0.7,1.2-1.9,1.8-3.1,1.8C311.7,504.7,311.1,504.6,310.6,504.2z"/>
</g>
<g>
	<path class="st2" d="M368.7,543.5c-1.1-1.6-0.6-3.9,1.1-4.9c9.5-6,17.3-15.7,17.4-15.8c1.2-1.6,3.5-1.8,5-0.6
		c1.6,1.2,1.8,3.5,0.6,5c-0.4,0.4-8.7,10.7-19.2,17.4c-0.6,0.3-1.2,0.5-1.9,0.5C370.5,545.1,369.4,544.5,368.7,543.5z"/>
</g>
<g>
	<path class="st2" d="M473,319.2c-1.9-0.2-3.3-2-3-4c0.2-1.9,2-3.3,4-3c10,1.4,20.4,0.6,30.1-2.2c1.9-0.6,3.9,0.5,4.4,2.4
		c0.6,1.9-0.5,3.9-2.4,4.4c-7.2,2.1-14.8,3.2-22.3,3.2C480.1,320,476.5,319.8,473,319.2z"/>
</g>
<g>
	<path class="st3" d="M197.5,662"/>
</g>
<g>
	<path class="st3" d="M206.3,680.2"/>
</g>
<g>
	<path class="st4" d="M198.2,691.5"/>
</g>
<g>
	<path class="st2" d="M602,379.8c-5.4-21.9-11.2-39.3-31.8-47.3c-1.8-0.7-2.7-2.8-2-4.6s2.8-2.7,4.6-2c23.7,9.1,30.4,29.1,36.1,52.2
		c0.5,1.9-0.7,3.8-2.6,4.3c-0.3,0.1-0.6,0.1-0.9,0.1C603.8,382.5,602.3,381.4,602,379.8z"/>
</g>
<g>
	<path class="st5" d="M212,675.9"/>
</g>
<g>
	<path class="st6" d="M182.4,669.3"/>
</g>
<g>
	<path class="st2" d="M177.9,667.2c-0.5-4.6-6.3-7-7-7.1c-0.3,0-0.6-0.2-0.7-0.5s0.1-0.7,0.5-0.8c0.6-0.1,2.8,0.9,4.2,1.9
		c1.8,1.2,4,3.4,4.3,6.4c0,0.3-0.3,0.7-0.7,0.7l0,0C178.1,667.8,177.8,667.6,177.9,667.2z"/>
</g>
<g>
	<g>
		<path class="st6" d="M64.2,700.8"/>
	</g>
	<g class="st7">
		<path class="st1" d="M120.9,660.9c0,0-4.3-4.1-5.6-4.1s-22.9-1.2-27.9,0.2c-3.7,1-17.1,1.9-23.4,1c-2.2-0.3-2.8-1.5-2.8-1.5
			l14.9-1.8l37.8-4.2l3.9,0.1L120.9,660.9z"/>
	</g>
	<g>
		<path class="st2" d="M32.7,684.4l-21.5-19l2.1-2.7c0.5-0.7,5.6-6.8,12.4-6.8c2.6,0.1,6.5,0.9,10.2,5.4c1.3,1.5,1,3.8-0.5,5
			c-1.5,1.3-3.8,1-5-0.5c-1.5-1.9-3-2.8-4.6-2.8l0,0c-1.5,0-3.1,0.8-4.4,1.8L37.5,679c1.5,1.3,1.6,3.5,0.3,5
			c-0.7,0.8-1.7,1.2-2.7,1.2C34.2,685.2,33.4,684.9,32.7,684.4z"/>
	</g>
	<g>
		<path class="st2" d="M36.1,660.7l-2.7-15.5l3.4-0.7c0.7-0.2,7.1-1.4,12.3,2.3c3.2,2.2,5.1,5.6,5.8,10.2c0.3,1.9-1.1,3.7-3,4
			s-3.7-1-4-3c-0.3-2.6-1.3-4.3-2.8-5.4c-1-0.7-2.2-1-3.3-1.2l1.4,8c0.3,1.9-1,3.8-2.9,4.1c-0.2,0-0.4,0-0.6,0
			C38,663.5,36.5,662.3,36.1,660.7z"/>
	</g>
	<g>
		<path class="st5" d="M68.5,700.8"/>
	</g>
	<g>
		<polygon class="st8" points="31.7,663.4 108,648.2 154.8,681.6 72.3,702.9 		"/>
		<path class="st2" d="M70.4,704.7l-40.5-39.5c-0.7-0.7-1-1.7-0.7-2.7c0.2-1,1-1.7,2-1.9l76.3-15.2c0.8-0.1,1.5,0.1,2.1,0.5
			l46.8,33.5c0.9,0.6,1.3,1.7,1.1,2.7s-1,1.8-2,2.1L73,705.5c-0.2,0.1-0.5,0.1-0.7,0.1C71.6,705.6,70.9,705.3,70.4,704.7z
			 M107.5,651.1l-70.2,14L73.1,700l75.5-19.5L107.5,651.1z"/>
	</g>
	<g class="st9">
		<g class="st10">
			<g>
				<path class="st11" d="M112.8,662.1c-0.2-2.7-3.5-4.6-7.3-4.3s-6.8,2.7-6.6,5.3c0.2,2.7,3.5,4.6,7.3,4.3
					C110,667.2,113,664.8,112.8,662.1z"/>
			</g>
			<g>
				<path class="st11" d="M130.4,673.5c-3.4-4.9-8.7-9.3-15-9.2c-2.9,1.7-2,2.2-4.7,3.3c-3.1,1.2-4.9,1.3-6.9,1
					c-4.6,2.3-1.4,6.7,3,11.3C125.5,680.4,130.4,673.5,130.4,673.5z"/>
			</g>
		</g>
	</g>
	<g>
		<path class="st12" d="M58.8,672.3c-0.1-0.2,0.1-0.5,0.3-0.5l30.3-6c0.2-0.1,0.5,0.1,0.5,0.3c0.1,0.2-0.1,0.5-0.3,0.5l-30.4,6
			c0.1,0,0,0,0,0C59,672.6,58.8,672.5,58.8,672.3z"/>
	</g>
	<g>
		<path class="st12" d="M62.8,678.1c-0.1-0.2,0.1-0.5,0.3-0.5l30.3-6c0.2-0.1,0.5,0.1,0.5,0.3c0.1,0.2-0.1,0.5-0.3,0.5l-30.4,6l0,0
			C63,678.4,62.8,678.3,62.8,678.1z"/>
	</g>
	<g>
		<path class="st12" d="M66.8,684.9c-0.1-0.2,0.1-0.5,0.3-0.5l30.3-6c0.2-0.1,0.5,0.1,0.5,0.3c0.1,0.2-0.1,0.5-0.3,0.5l-30.4,6l0,0
			C66.9,685.2,66.8,685,66.8,684.9z"/>
	</g>
	<g>
		<path class="st2" d="M137.3,670.3c-5.5-3.6-8.8-6.6-11.9-9.4c-2.8-2.6-5.4-5-9.8-8c-6.3,0.6-22.6-0.4-26.8-3.9
			c-4.3-3.5-10-12.9-5.5-18.4l1.3-1.6l2,0.3c4.9,0.7,9.8,1.3,21.8,0.8c1.3-0.1,2.7-0.2,4.1-0.3c6.3-0.5,14.2-1.2,19.5,2.8l25.5,12.9
			c5.4,2.9,14.6,5.7,17.8,3c0.7-0.5,2.8-2,6.9-5c7.6-5.5,19-13.7,23.7-17.9c8.9-7.8,72.6-81.7,73.2-82.5c1.2-1.5,3.5-1.7,5-0.4
			c1.5,1.2,1.7,3.5,0.4,5c-2.6,3.1-64.6,75-73.9,83.2c-5,4.4-16.5,12.8-24.2,18.3c-3.1,2.3-6,4.3-6.5,4.8
			c-8.1,6.7-23.9-1.2-25.7-2.1l-25.7-13l-0.6-0.4c-3.1-2.4-9.6-1.9-14.8-1.5c-1.6,0.1-3,0.3-4.4,0.3c-9.8,0.4-15.2,0.1-19.6-0.4
			c0.6,2,2.3,5,4.3,6.6c2.6,1.8,18.8,3.2,22.3,2.3l1.5-0.4l1.3,0.9c5.6,3.6,8.8,6.6,11.9,9.4s6,5.4,11,8.7c1.6,1.1,2.1,3.3,1,5
			c-0.7,1-1.8,1.6-3,1.6C138.7,671,138,670.8,137.3,670.3z"/>
	</g>
	<g>
		<path class="st6" d="M32.9,666.4"/>
	</g>
	<g>
		<path class="st2" d="M86.9,723.2c-16.3-6.4-36.3-13.1-36.5-13.2l-1.2-0.4l-20.6-32.8l1.3-1.9c0.2-0.3,5.3-7.7,13-7
			c6.1,0.6,11.5,6.2,16,16.5c0.4,0.8,2.9,4.3,4.9,7.1c1.8,2.5,3.7,5.2,5.1,7.3c2.3,3.4,4.1,6.1,1.5,8.4c-1.1,1-3.1,1.7-5.8-0.9
			c-0.8-0.8-1.1-1.8-1.1-2.8c-1.5-2.2-3.9-5.6-5.5-7.9c-4-5.7-5.2-7.3-5.6-8.3c-4.5-10.3-8.3-12.1-10.2-12.3s-3.7,1.1-4.9,2.2
			l16.6,26.4c4.7,1.5,21.5,7.4,35.7,12.9c1.8,0.7,2.7,2.8,2,4.6c-0.5,1.4-1.9,2.3-3.3,2.3C87.9,723.4,87.4,723.3,86.9,723.2z"/>
	</g>
	<g>
		<path class="st2" d="M109,728.8c-1.9-0.3-4.4-0.4-7.3-0.4c-8.6-0.1-20.3-0.2-35.4-7.5l-25.1-13.5l2.5-3.3
			c0.2-0.3,5.1-6.6,12.7-7.6c4.4-0.5,8.7,0.8,12.8,4c10.1,8,27,7.1,27.2,7.1c2-0.2,3.7,1.3,3.8,3.3c0.2,2-1.3,3.7-3.3,3.8
			c-0.8,0-19.8,1.1-32.1-8.6c-2.6-2-5-2.8-7.5-2.5c-1.8,0.2-3.4,1-4.7,1.9l16.9,9.1c13.5,6.5,24.3,6.6,32.2,6.7
			c3.2,0.1,5.9,0.1,8.4,0.5c5.1,0.8,11.1-1.8,19.5-5.4c9.5-4.2,21.4-9.3,38.1-12.2c17.7-3,26-9.2,26.2-19.4c0-2,1.7-3.6,3.6-3.5
			c2,0,3.5,1.6,3.5,3.6c-0.2,13.8-11,22.6-32.1,26.3c-15.9,2.8-27.3,7.7-36.5,11.7c-7.8,3.3-14.1,6.1-20.3,6.1
			C111,729,110,728.9,109,728.8z"/>
	</g>
	<g class="st13">
		<path class="st12" d="M101.7,650.6c2.6,1.7,8.2,1.2,8.2,1.2l10.8,7.7l-3.9-0.2c-6.8,1.4-23.5-6.5-23.5-6.5L101.7,650.6z"/>
	</g>
	<g>
		<path class="st2" d="M165.9,692.8c-0.1-0.1-0.1-0.3-0.1-0.5c-0.4-5.4-5.6-8.6-15.5-9.5c-0.4,0-0.6-0.3-0.6-0.7s0.3-0.6,0.7-0.6
			c7.3,0.7,16.2,3.1,16.7,10.7c0,0.2,0,0.2,0,0.3c0.1,0.3-0.1,0.7-0.4,0.8c-0.1,0-0.1,0-0.2,0C166.2,693.3,165.9,693.1,165.9,692.8z
			"/>
	</g>
	<g>
		<path class="st2" d="M74.1,704.2c-0.9-0.2-1.5-1.2-1.3-2.1s1.1-1.5,2.1-1.3c3.3,0.7,8.1,0.5,12.3,0.4c2-0.1,3.9-0.1,5.5-0.1
			c1,0,1.8,0.8,1.8,1.8s-0.8,1.8-1.8,1.8c-1.5,0-3.4,0-5.3,0.1c-1.8,0-3.6,0.1-5.4,0.1C79.2,704.9,76.4,704.8,74.1,704.2z"/>
	</g>
	<g>
		<path class="st2" d="M105.4,715.2c-0.3-0.2-0.5-0.6-0.3-0.9c0,0,1.2-2.8,0.1-5.5c-0.6-1.6-2-2.9-4-3.7c-0.4-0.2-0.5-0.6-0.4-0.9
			c0.2-0.4,0.6-0.5,0.9-0.4c2.4,1,4,2.4,4.8,4.4c1.3,3.1,0,6.4-0.1,6.5c-0.1,0.2-0.3,0.4-0.6,0.4
			C105.7,715.1,105.6,715.1,105.4,715.2z"/>
	</g>
</g>
<g id="lines">
	<line class="st14" x1="40.5" y1="663.5" x2="157" y2="410"/>
	<line class="st14" x1="59.5" y1="672.5" x2="170.5" y2="420.5"/>
	<line class="st14" x1="85.5" y1="678.5" x2="181.5" y2="430.5"/>
	<line class="st14" x1="120.5" y1="682.5" x2="192.5" y2="441.5"/>
	<line class="st14" x1="151.5" y1="679.5" x2="209.5" y2="454.5"/>
</g>
<linearGradient id="Path-64_1_" gradientUnits="userSpaceOnUse" x1="-839.8456" y1="55.0324" x2="-982.2704" y2="311.4827" gradientTransform="matrix(-0.985 -2.040000e-02 -2.040000e-02 -0.9723 -742.341 722.9057)">
	<stop  offset="0" style="stop-color:#DFF2FD;stop-opacity:0.3"/>
	<stop  offset="1" style="stop-color:#C3E1FF"/>
</linearGradient>
<path id="Path-64_2_" class="st15" d="M159.6,396.1L29,663c50,47,121,27,145,11l49-225L159.6,396.1z"/>
<g>
	<g id="XMLID_84_">
		<g>
			<path class="st2" d="M164.7,396.3c22.7,18.5,45.4,37.1,68.2,55.7c2.4,2-0.3,6-2.8,3.9c-22.8-18.6-45.5-37.1-68.3-55.7
				C159.4,398.2,162.1,394.2,164.7,396.3z"/>
			<path class="st8" d="M229.6,458.1c-4.2,0.4-9.5-1.6-12.2-3.4c-6.6-4.5-11.4-9.3-16.2-13.2c-14.1-11.4-28.2-22.9-42.3-34.4
				c-4.8-4-10.6-10.3-2.4-15.6c6.1-4,10.7,2.1,14.9,5.5c14.1,11.5,28.1,22.9,42.2,34.4c9.3,7.6,18.6,15.1,27.8,22.7
				C237.7,455.6,234.8,457.5,229.6,458.1z M164.6,396.3c-2.5-2.1-5.2,1.9-2.8,3.9c22.8,18.6,45.5,37.1,68.3,55.7
				c2.5,2.1,5.2-1.9,2.8-3.9C210.2,433.5,187.4,414.9,164.6,396.3z"/>
			<path class="st2" d="M248.2,452.5c0.7,0,1.4,0.1,1.9,0.5c0.1,0.1,0.2,0.1,0.3,0.2c1,0.8,1.5,2.2,1.3,3.5l0,0
				c-0.7,1.9-2.9,3.4-5,1.7c-1.8-1.4-3.5-2.8-5.3-4.3C243.3,453.3,245.4,452.7,248.2,452.5z"/>
			<path class="st2" d="M171.4,397c-4.2-3.4-8.7-9.5-14.9-5.5c-8.2,5.4-2.4,11.7,2.4,15.6c14.1,11.4,28.2,22.9,42.3,34.4
				c4.8,3.9,9.6,8.7,16.2,13.2c2.7,1.9,7.9,3.8,12.2,3.4c5.2-0.6,8.1-2.5,11.8-4c1.8,1.4,3.5,2.8,5.3,4.3c2.1,1.7,4.4,0.2,5-1.7
				c-0.1,1.3-1,2.4-2.6,2.5c-6.3,0.5-3.6,2.7-9.8,3.3c-3.7,0.4-18.5,0.4-22.1-0.4c-1.8-0.4-2.8-1.6-4.3-2.7
				c-8.2-6.1-15.9-12.9-23.8-19.3c-13.1-10.6-28.2-20.5-40-32.5c-6.8-6.9-3.4-15.7,3.2-21.4c5.9-5.1,11.2-3.4,16.7,0.9
				c29.4,23,48.5,43.7,81,66c-0.5-0.4-1.1-0.5-1.9-0.5c-2.8,0.2-4.9,0.8-6.8,1.6c-9.2-7.6-18.5-15.1-27.8-22.7
				C199.5,420,185.4,408.6,171.4,397z"/>
			<path class="st16" d="M251.7,456.7c0.2-1.2-0.3-2.7-1.2-3.4c-0.1,0,0,0,0,0C251.8,454.2,252,455.5,251.7,456.7z"/>
		</g>
	</g>
</g>
<g>
	<g id="XMLID_82_">
		<g>
			<path class="st2" d="M189.1,476.1c1-2.2,3.1-2.3,4.6-1.4c1.3,0.7,2,2.3,1.2,4c-0.6,1.2-1,2.4-1.2,3.5c-2.2-0.9-4.2-1.9-5.9-3.1
				C188.1,478.1,188.5,477.1,189.1,476.1z"/>
			<path class="st2" d="M193.7,474.7v-0.2c1.7,1.1,3.9,1.6,6.7,2.7c4,1.5,8.1,2.9,12.1,4.4c4.9,1.8,10.5,3.4,14.6,6.7
				c3.1,2.5-0.4,8-3.8,5.3c-5.8-4.7-19.4-7-29.6-11.4c0.2-1,0.6-2.2,1.2-3.5C195.7,477,195,475.5,193.7,474.7L193.7,474.7z"/>
			<path class="st2" d="M204.4,495.8c1.5,0.6,2.7,2.4,1.9,4.4c-0.5,1.4-0.7,2.7-0.6,3.9c-2.2-0.9-4.2-2-6.2-3.1
				c0.2-1.1,0.5-2.2,1-3.4C201.3,495.7,203,495.3,204.4,495.8z"/>
			<path class="st2" d="M204.5,495.8c-1.5-0.5-3.2-0.1-4,1.9c-0.5,1.2-0.8,2.3-1,3.4c-8.7-5.1-14.9-12-11.7-21.9
				c1.8,1.1,3.8,2.2,5.9,3.1C192.5,489,198.4,492.9,204.5,495.8L204.5,495.8z"/>
			<path class="st2" d="M206.4,500.3c0.8-2-0.4-3.8-1.9-4.4v-0.1c1.8,0.9,3.6,1.7,5.3,2.4c6,2.6,12.2,5,18.4,7.1
				c3.8,1.3,1.6,7.6-2.4,6.2c-5.3-1.8-13-4.1-20.1-7.3C205.6,503,205.8,501.7,206.4,500.3z"/>
			<path class="st2" d="M215.3,522.8c0.5,11.7,20.8,12.4,30.2,13.2c12.8,1.1,24.4-1.1,36-6.9c3.7-1.9,6.1,4.5,2.5,6.3
				c-17.9,9-36.2,8.9-55.5,5c-12.3-2.5-21.1-8.4-19.2-21.1C211.2,520.5,213.2,521.7,215.3,522.8z"/>
			<path class="st2" d="M213.8,514.8c1.4,0.8,2.4,2.4,1.9,4.3c-0.3,1.3-0.4,2.6-0.4,3.7c-2.1-1.1-4.1-2.2-6-3.5c0.1-1,0.3-2,0.6-3
				C210.4,514.1,212.3,513.8,213.8,514.8z"/>
			<path class="st2" d="M209.3,519.3c-6.6-4.4-11.3-10.4-9.8-18.2c2,1.1,4.1,2.1,6.2,3.1c0.3,4.4,4.2,7.8,8.2,10.3l-0.1,0.2
				c-1.5-0.9-3.3-0.6-3.9,1.6C209.6,517.3,209.4,518.3,209.3,519.3z"/>
			<path class="st2" d="M213.9,514.6l0.1-0.2c1.2,0.8,2.5,1.5,3.6,2c2.9,1.5,6,2.7,9,3.8c1,0.3,1.9,0.7,2.9,1c0.1,0,0.8,0.2,1.3,0.4
				c3.8,1.1,3.2,7.9-0.8,6.7c-4.2-1.2-9.6-3.1-14.7-5.6c-0.1-1.1,0.1-2.4,0.4-3.7C216.2,517.1,215.1,515.5,213.9,514.6z"/>
			<path class="st2" d="M214.4,427.1c-2.2-3.9-2.6-8.5,1.9-13.9c3.1-3.7,19.7,6.3,27.2,6.8c8.5,0.6,15.5,1.6,22.5,6.7
				c9.1,6.6,14.7,15.5,18.8,25.7c6.3,15.6,16.1,29.4,24.7,43.9c2.1,3.5-2.7,7.9-4.9,4.1c-6.7-11.4-14.3-22.4-20.4-34.2
				s-9.2-24-20-32.7c-7.2-5.8-14.7-6.4-23.7-6.9c-4.4-0.3-20.9-13.2-23.1-9c-1,2-1.9,6-0.4,9L214.4,427.1z"/>
			<path class="st2" d="M230.9,521.7L230.9,521.7C231,521.7,231,521.7,230.9,521.7z"/>
			<path class="st2" d="M239.5,465.1c-0.4-1.5,0-3.2,0.7-5c1.6,0.3,3.2,0.6,4.8,0.9c2.5,0.5,3.2,3.4,2.3,5.2l0,0l-1.7,0.8
				C243.8,467,240,467.3,239.5,465.1z"/>
			<path class="st2" d="M240.2,460.2c2.2-5.8,7.3-12.5-0.1-15.2c-6.6-2.4-13.7-5.1-19.1-10.2c-2.4-2.2-5-4.7-6.6-7.6l2.6-0.6
				c0.4,0.7,0.8,1.4,1.4,1.9c5.3,4.8,16.7,8.7,19.1,9.2c3.7,0.7,5.3,0,8.2,2c11.3,8,7.1,17,1.6,26.5c0.9-1.9,0.2-4.7-2.3-5.2
				C243.4,460.7,241.8,460.4,240.2,460.2z"/>
			<path class="st2" d="M218.7,463.2c-5.3-0.9-10.6-1.8-15.9-2.5c-1.7-0.2-3.8-0.8-5.5-0.6c-6.1,0.6-8,2.2-6.9,8.2
				c0.6,3.3,1.7,5,3.3,6.1l-0.1,0.2c-1.5-0.8-3.6-0.7-4.6,1.4c-0.5,1.1-0.9,2.1-1.2,3.1c-5.3-3.6-8-8.5-5.3-16
				c3.4-9.4,10.9-10.2,19.6-9.2c12.7,1.5,25.4,3.8,38,6.2c-0.7,1.9-1,3.5-0.7,5c0.5,2.2,4.3,2,6.1,1.9l1.7-0.8c-0.5,1-1.5,1.8-3,1.5
				C235.7,466.1,227.3,464.6,218.7,463.2z"/>
		</g>
	</g>
</g>
</svg>
