<?xml version="1.0" encoding="utf-8"?>
<!-- Generator: Adobe Illustrator 23.0.4, SVG Export Plug-In . SVG Version: 6.00 Build 0)  -->
<svg version="1.1" id="Layer_1" xmlns="http://www.w3.org/2000/svg" xmlns:xlink="http://www.w3.org/1999/xlink" x="0px" y="0px"
	 viewBox="0 0 673.1 717.9" style="enable-background:new 0 0 673.1 717.9;" xml:space="preserve">
<style type="text/css">
	.st0{opacity:0.83;fill:#E1E1E0;enable-background:new    ;}
	.st1{fill:#212E8D;}
	.st2{fill:#FFFFFF;}
	.st3{fill:#101F41;}
	.st4{fill:none;stroke:#101F41;stroke-width:2.5;stroke-linecap:round;stroke-miterlimit:10;}
	.st5{fill:none;stroke:#212E8D;stroke-width:5;stroke-linecap:round;stroke-linejoin:round;stroke-miterlimit:10;}
	.st6{fill:none;stroke:#101F41;stroke-width:3.5;stroke-linecap:round;stroke-linejoin:round;stroke-miterlimit:10;}
	.st7{fill:#FFFFFF;stroke:#212E8D;stroke-width:5;stroke-linecap:round;stroke-linejoin:round;stroke-miterlimit:10;}
	.st8{fill:none;stroke:#212E8D;stroke-width:5;stroke-linecap:round;stroke-miterlimit:10;}
	.st9{fill:none;stroke:#212E8D;stroke-width:5;stroke-miterlimit:10;}
	.st10{fill:none;stroke:#212E8D;stroke-width:3.5;stroke-linecap:round;stroke-linejoin:round;stroke-miterlimit:10;}
	.st11{fill:none;stroke:#212E8D;stroke-width:6;stroke-linecap:round;stroke-miterlimit:10;}
	.st12{fill:#E6F3FF;}
	.st13{fill:none;stroke:#32B0FF;stroke-width:3;stroke-linecap:round;stroke-miterlimit:10;stroke-dasharray:10;}
	.st14{opacity:0.55;fill:url(#Path-64_2_);enable-background:new    ;}
	.st15{fill:#FFFFFF;stroke:#737373;stroke-width:0.75;stroke-miterlimit:10;}
	.st16{opacity:0.3;fill:none;stroke:#A1A1A1;stroke-miterlimit:10;enable-background:new    ;}
	.st17{opacity:0.49;fill:#C6C6C5;stroke:#A1A1A1;stroke-miterlimit:10;enable-background:new    ;}
					#lines{
	animation: lines-anim 2s infinite;
	    animation-timing-function: cubic-bezier(0, 0, 0, 0);
	stroke-dasharray: 10;
}

@keyframes lines-anim{
	0%{
	stroke-dashoffset: 0;
	}
	100%{
	stroke-dashoffset: 60;
	}
}
</style>
<path class="st0" d="M504.6,282.6c-0.1-1.7-13.9-15.3-13.4-16.3c1.5-3.2,8.5-7,8.5-7s-0.7,1.8-1,4.5c-0.4,2.7,1.8,6.6,2.3,9.3"/>
<g>
	<g id="XMLID_3_">
		<g>
			<path class="st1" d="M207.8,363.3c21.1,17.3,42.3,34.5,63.4,51.8c2.1,1.9-0.4,5.7-2.7,3.7c-21.1-17.3-42.3-34.5-63.4-51.8
				C202.9,365,205.4,361.4,207.8,363.3z"/>
			<path class="st2" d="M207.8,363.4c-2.4-1.8-5,1.9-2.7,3.7c21.1,17.3,42.3,34.5,63.4,51.8c2.5,1.8,5-1.9,2.7-3.7
				C250.1,397.9,228.8,380.6,207.8,363.4z M253.3,396c8.6,7,17.3,14.1,25.9,21.1c-3.4,1.4-6.2,3.2-11,3.7c-4,0.3-9-1.5-11.5-3.2
				c-5.9-4.2-10.4-8.6-14.9-12.3c-13.1-10.6-26.2-21.4-39.3-32c-4.6-3.6-9.9-9.4-2.3-14.4c5.8-3.7,9.9,1.9,13.9,5.1
				C227,374.7,240.1,385.5,253.3,396z"/>
			<path class="st1" d="M284.2,421c1.9,1.5,3.9,0.1,4.6-1.7c-0.2,1.1-1,2.1-2.5,2.3c-5.8,0.3-3.3,2.5-9.1,3
				c-3.5,0.4-17.3,0.5-20.6-0.3c-1.7-0.3-2.7-1.5-4-2.5c-7.7-5.6-14.8-11.9-22.1-17.9c-12.1-9.8-26.2-19.1-37.2-30.2
				c-6.3-6.5-3.1-14.6,3-19.9c5.5-4.7,10.5-3.2,15.6,0.8c27.4,21.4,45.2,40.6,75.4,61.4c-0.5-0.3-1.1-0.5-1.8-0.5
				c-2.5,0.1-0.9,1.6-2.7,2.3c-8.6-6.9-20.9-14.7-29.5-21.9c-13-10.6-26.1-21.3-39.2-31.9c-3.9-3.1-8.1-8.8-13.9-5.1
				c-7.7,4.9-2.2,10.7,2.3,14.4c13.1,10.6,26.2,21.4,39.3,32c4.3,3.7,8.8,8.1,14.9,12.3c2.7,1.7,7.5,3.5,11.5,3.2
				c4.8-0.7,11.3-1.7,14.6-3C284.5,419.2,282.5,419.8,284.2,421z"/>
			<path class="st3" d="M288.8,419.5c0.1-1.2-0.4-2.5-1.2-3.2c-0.1-0.1,0,0,0,0C288.8,417.2,288.9,418.3,288.8,419.5z"/>
		</g>
	</g>
</g>
<path class="st0" d="M255.8,387.8c-0.6,3.5,1,3.9,6.5,9s17.9,11.9,19.1,5.8c1.1-6.2-9.3-7.2-16.3-8c-7-1-3.2-6-3.2-6
	S256.6,383,255.8,387.8z"/>
<path class="st1" d="M523.9,293.6c3.6-1.1,6,4.7,2.7,5.6c-39.3,12.3-48.3,58.6-45.8,94.5c1.4,19.9,6.8,39.1,5.1,59.4
	c-1.2,13.2-3.5,26.3-6.5,39.3c-1.3,6.2-3.8,13-2.5,19.3c0.7,3.5-4.4,5-5.6,1.7c-4.7-12.9,16.3-11.9,22.9-11.1
	c16.2,2,31.7,8,46.7,14.5c11.8,5.1,24,12.6,37,14.1c-1.1,0.9-2.1,1.9-3.3,2.7c2.8-21.4,5.6-43.3,13.4-63.6
	c8.3-21.6,21.1-40.2,24.4-63.6c0.7-4,6.3-3,5.8,1c-3.2,21.9-14.1,39.5-22.6,59.4c-9,21.3-12.3,44.7-15.3,67.6
	c-0.3,1.7-1.6,2.9-3.3,2.7c-18.8-2.2-36.6-14.3-54-20.8c-12.1-4.3-26.5-9.3-39.5-8.3c-2.1,0.2-7.8,1.3-7.1,3
	c-1.9,0.7-3.8,1.2-5.6,1.7c-1.4-6.6,0.8-13.4,2.3-19.9c3.1-13.7,5.8-27.7,6.8-41.8c1.5-23.2-5.8-45.7-5.6-68.9
	C474.4,347.1,486.4,305.4,523.9,293.6L523.9,293.6z"/>
<path class="st1" d="M309.4,494.9c-2.5-2.7,0.6-7.8,3.2-5.3c12.5,12.7,25.1,24.9,37.7,37.4c21.5,20.9,42.9,41.6,64.8,61.9
	c15.7,14.8,31.7,30.9,50.6,41.5c17.6,10,35.7,18.1,52.1,1.2c6.3-6.5,11.5-14.6,17.1-21.6c3.3-4.1,5.4-9.1,7.6-13.9
	c9.3-20.9,16.3-43.2,22.9-65.1c1.2-4,6.7-1.2,5.5,2.5c-3.3,11-6.8,21.9-10.6,32.9c-5,14.8-9.8,30.9-18.3,44.2
	c-3.9,6.5-9.4,12.2-13.9,18.3c-5,7-10.4,12.6-18.4,16.3c-14.8,6.7-27.8,1.2-41.2-6.1c-21.1-11.5-38.4-28.1-55.8-44.2
	C377.5,562.3,343.3,528.8,309.4,494.9L309.4,494.9z"/>
<path class="st1" d="M338.4,460.7c-3-2.4,0.4-7.5,3.3-5.1c19.8,15.4,40,30.4,61.1,43.8c13.3,8.4,26.1,13.1,40.7,18.4
	c18,6.6,33.2,16.7,41.2,34.5c1.7,3.7-3.6,6.2-5.3,2.5c-10.1-22.1-31.5-28.6-52.8-35.9c-11.1-3.8-21.1-10.6-30.9-16.9
	C376.1,489.1,357,475.1,338.4,460.7L338.4,460.7z"/>
<path class="st1" d="M475.1,505.5c0.3-4,6.1-3,5.8,1c-1,11.9-2.2,23.7-3.2,35.5c-0.3,4-6.1,3-5.8-1
	C472.9,529.1,474.1,517.3,475.1,505.5L475.1,505.5z"/>
<g>
	<path class="st1" d="M419.1,31.5c21.1-10.8,50.5-20.1,73.1-26.1c22.6-6,44.7,4.1,45.5,4.3s4.8-0.6,22.1,3s26.4,27.2,26.4,27.2
		l-8.8,0.7c0,0,4,11.5,12.3,25.1s0.8,43.5,0.3,51.3c-0.6,7.8-19.7,66.6-22.2,77.7c-2.5,11.1,1,14.9,1,14.9s0,0-4.3-0.3
		c-4.4-0.4-30.3-15.7-36.4-20.3c-6.3-4.7,1.6-8.2,7.6-23.1c5.9-15,1-22.6-11-25.1c-11.9-2.5-15.8,18.5-15.6,24.1
		c0.1,5.6,1.1,11.3-6.5,16.1c-7.5,4.8-8.5-8.9-11-24.1s-10.8-13.4-21.9-25.2c-11.1-12,1.2-19.3,2.7-36.2s-18.3-20.2-32.2-20.9
		c-13.7-0.6-22.2,11.3-34,13s-19.3-4.3-25.9-22.3c-6.6-17.9,11.3-33,11.3-33C395.5,40.4,398,42.6,419.1,31.5z"/>
	<path class="st1" d="M403.8,88.3c0.9-4,6.5-2.2,5.8,2.1c-3.8,17.6-7.5,37.6-5,55.5c1.5,10.7,8.6,18.8,12.3,28.6
		c2.8,7.4,0.3,14.3-2.2,21.3c-1.6,4.7-5,10.3-5.3,15.3c-0.6,7.8,6.7,8,12.8,9.3c10.4,2.1,11.9,4,16.9,13.1c4,7.5,11.8,14,17.4,20.3
		c7.3,8.1,14.8,19.3,26.6,12.3c10.1-6,18.4-17.3,25.2-26.6c6.6-9.2,8.9-21.3,8.1-32.4c-0.2-3.8,5.5-5.7,5.8-1.5
		c0.8,11.6-0.8,24.7-7.3,34.7c-7.1,10.9-17.4,23.4-28.4,30.5c-20.1,12.9-33.9-13-46-25.6c-3.5-3.7-5.4-7.2-8.1-11.5
		c-4.3-7-9.4-6.7-16.9-8.5c-8.3-2.1-13.7-5-12-14.1c2-11.8,12.2-24.2,7.1-36.2c-4.8-10.9-11.3-19.7-12.3-32
		C396.8,124.8,400,105.9,403.8,88.3L403.8,88.3z"/>
	<path class="st1" d="M469.1,97.7c1.2-12.8-15.6-20.1-26.4-20.4c-10.5-0.3-19.8,7.1-28.9,11.3c-7.1,3.4-13,4.2-20.1,0.2
		c-23.8-13.1-19.6-39.3-4.2-57.1c1-1.1,3.2-1,4.2,0.2c6.9,9.3,16.7,1.7,24.2-2.3c8.8-4.9,18-9.2,27.1-13
		C466.3,7.7,489.7,0,513.1,1.7c5.3,0.3,10.8,1.3,15.9,3c2.3,0.7,6.1,3.2,7.6,3.5c5.1,1,11.3-0.7,16.6,0.3
		C574,12,586.3,27.2,590.9,47c0.7,2.8-3.1,5.1-5.1,2.8c-4.2-4.6-9.8-10.8-16.3-11.6c0.8-1.8,1.7-3.5,2.5-5.3
		c18.4,18.7,28.2,47.8,22.7,73.7c-4,19.1-10.5,37.8-15.6,56.6c-2.5,9-5,17.9-7,26.9c-1.2,5.5-3.5,12.5-2.5,18.3
		c0.1,1.6-1.2,4-3.2,3.8c-11-1.3-18.8-8.7-28.1-13.8c-9.9-5.5-22.5-5.5-13.4-18.9c5.1-7.6,12.3-17.8,8.8-27.4
		c-1.8-4.8-6.2-9.1-11.8-7.8c-6,1.4-8.8,8.6-10.3,13.9c-2.3,8.7,2,17.6-5.8,23.6c-5.5,4-11.6,4-14.1-2.8c-3.7-10.3-0.5-23.2-8-32.2
		c-5.1-6.1-15.9-5.8-19.4-13.4c-5.3-11.6,2.1-25.7,4.8-36.7c0.9-3.8,6.5-2,5.5,1.8c-2.1,9.1-6.1,17.1-5.6,26.7
		c0.4,5.8,1.7,6.8,7,9.3c8.6,4.2,13.9,8.3,16.9,17.6c1.5,4.6,2.1,9.6,2.8,14.4c0.5,4.2-0.4,12.8,5.6,11c0.7-0.2,4.7-5,3.5-1.5
		c0.4-1-0.3-3.8-0.3-5c-0.2-6,0.6-12.3,2.8-18.1c3-7.8,9.1-16.1,18.4-15.3c8.8,0.8,14.8,10,15.1,18.1c0.2,5.3-1.8,10.5-4,15.3
		c-3.5,7.5-12.1,13.8-2,18.8c10.1,4.9,20.4,14.6,32.2,15.9c-1.2,1.1-2.2,2.5-3.2,3.8c-2-11.7,3.7-25.9,6.5-36.9
		c4.8-18.2,10.3-36.3,15.3-54.6c5.7-20.1,6.7-38.5-2.3-57.8c-4-8.5-9.2-16.8-15.8-23.6c-1.7-1.8,0-5.6,2.5-5.3
		c8.3,1.1,15,7.5,20.3,13.6c-1.6,0.8-3.4,1.8-5.1,2.8C580,25.6,563.4,12,540.7,13.3c-6.1,0.3-9.8-2.3-15.9-4
		C513,6,500.3,6.6,488.3,8.8c-22.1,3.8-43.4,12.8-63.3,23.1c-11.2,5.8-25.6,17.1-35.9,3.5c1.4,0,2.9,0.2,4.2,0.2
		c-10.5,12.3-16.3,28.7-3.7,41.7c7.5,7.6,14.3,8.8,23.6,4.3c14.5-6.8,25.4-14.6,41.7-8.6c11.3,4,21.5,11.3,20.3,24.4
		C474.7,101.4,468.9,101.4,469.1,97.7z"/>
	<path class="st1" d="M488.5,267.6c-2.3-3-1.5-6.7,0.9-3.4c6,7.8,12.8,11.9,17.8,23.7c0.7,1.6-3.8,0.8-3.8,0.8
		C496,272.6,494.5,275.4,488.5,267.6L488.5,267.6z"/>
	<path class="st1" d="M561.9,211.8c-3.8-0.5-3.3-6.8,0.3-6.3c15.3,2.1,22.9,17.3,24.1,31.2c2,23.4-10.2,35.5-31,43.3
		c-3.9,1.4-4.7-4.8-1.2-6.1c18.8-7.1,28.8-17.9,26.1-39C579,225.1,572.9,213.3,561.9,211.8L561.9,211.8z"/>
	<path class="st1" d="M439.2,144.9c-6.3-2.5-20.6-4.5-25.1,0c-1.2,1.2,0.5,2.5,1,2.5c4.5-0.2,6.8-0.7,14.6,0.8
		c8.5,1.6,11.6,7.9,15.3,6.1c2.2-1.1,3-3.9,2.2-5.1C445.8,147.4,439.5,144.9,439.2,144.9z"/>
	<path class="st1" d="M434.3,164.3c-3,1.1-4.2,5.4-2.5,9.6c1.5,4.1,5.1,6.8,8.1,5.6c3-1.1,4.2-5.4,2.5-9.6
		C440.7,165.6,437,163.1,434.3,164.3z"/>
	<path class="st2" d="M433.4,169.5c-1,0.5-1.3,1.9-0.8,3.2s1.7,2.3,2.7,1.8s1.3-1.9,0.8-3.2C435.6,169.8,434.4,169.1,433.4,169.5z"
		/>
	<path class="st1" d="M427.3,166.6c-3.7-0.8-1.9-6.9,2-6c4.8,1.2,9.5,2.3,14.3,3.5c3.6,0.9,1.7,7-2,6
		C436.8,168.9,432.1,167.8,427.3,166.6L427.3,166.6z"/>
	<path class="st1" d="M433.2,174.6c-0.5,0.7,0,2,1.2,3.2s2.7,1.7,3.2,1s0-2-1.2-3.2C435.2,174.4,433.7,173.9,433.2,174.6z"/>
</g>
<path class="st4" d="M111.1,663.4c0.4-6.6,1.2-12.6,5.5-17.6c0.9-1.2,1.9-2.2,3.2-3c2-1.3,4.4-1.6,6.6-2.3c5-1.7,9.1-5.7,11.1-10.5"
	/>
<path class="st5" d="M189.9,580.2c-7.5-7.2-4-7.8-13.3-11c-10-3.4-25.8-10.9-32.9-14.4c-1.5,3.5,0.1,12.4,2.8,15.6
	c2.2,2.5,13.5,9.8,16.3,11.3"/>
<path class="st5" d="M249.6,633c10-22.1,22.1-23.8,33.9-31.9c28.2-19.2,57.1-39.3,76.7-60.4"/>
<path class="st6" d="M236.6,659.9c11.2-9.8,10-22.7,10-23.7"/>
<path class="st7" d="M200.6,688.5c-4.1-6.7-22.4,1.2-23.8,0.2c-3.1-2.4,13.4-6.2,7.4-13.8c-6-7.5-21.9,2.7-24.4,0.8
	c0,0,12.3-5,6.8-14.4c-4.1-7-22.8,4.8-24.2,1.7c-0.7-1.5,14.8-7,8.9-13.6c-9.6-10.6-29-0.8-30.9-1.9c-24.6-15.1-50.5-34.2-73.8-49.1
	c-25.6-16.1-42-27.2-42-27.2l102.6-20.9c0,0,110.6,49.5,149.1,81.4c9.7,7.9,31.5,30.5,31.5,30.5l-82,52.3c0,0-7.8-7.3-14.9-13.7
	C190.9,700.8,203.1,694.5,200.6,688.5z"/>
<path class="st8" d="M626.7,661.2c3.1-20.9,10.6-30,14.9-61.4c37.4-274,36.2-210.4,8.8-290.6c-4.8-13.8-45.7-49.8-46.5-59.8
	c-2.3-29.2-34.5-41.3-34.5-41.3"/>
<path class="st9" d="M449.2,523.7c2.4-13.9-7.1-106.9-7.1-106.9c0-17.6,9.4-56.9,16.9-70.7c5.6-10.4,39-70.7,39-70.7"/>
<path class="st9" d="M446.8,468.5c-11.6,15-25.9,27.3-27.7,19.3c-8-33.7-55.5-56.8-52.8-63.9c8.3-22.2,32.2-30.3,42.5-48.1
	c45-77.9,80-84.7,80-84.7"/>
<path class="st5" d="M444.3,650.8c-0.8-6.6-3.1-28.1-3.8-34.7"/>
<path class="st5" d="M345,460.6c11.6-19.5,23.6-31,23.6-31"/>
<path class="st5" d="M400.4,498.3c9.3-5.9,16.9-15.4,16.9-15.4"/>
<path class="st10" d="M184.2,573.8c8.8,10.6,15.1,17.2,23.2,19.4"/>
<path class="st5" d="M207.5,593.2c14.3-4.2,28.7-13.3,34.2-21.8c11.2-17.2,67.7-76.5,67.7-76.5"/>
<path class="st11" d="M524.2,286.3c-9.5,2.9-19.6,3.5-29.4,2.2"/>
<path class="st1" d="M247.8,624.4c-1-2-2-4-3-5.8s-2-3.6-3.3-5.3s-2.6-3-4.8-4.2c2.3-0.4,4.8,0.8,6.6,2.3c2,1.5,3.3,3.5,4.5,5.5
	s2,4.3,2.5,6.5c0.6,2.2,1,4.5,0.8,6.8C249.9,628.2,248.9,626.2,247.8,624.4z"/>
<polygon class="st12" points="68.3,592.7 131.7,572.9 112.6,563.4 41.4,579.2 "/>
<g id="lines">
	<line id="line5" class="st13" x1="68.6" y1="563.3" x2="193.1" y2="374"/>
	<line id="line4" class="st13" x1="101.8" y1="568.3" x2="203.1" y2="385.6"/>
	<line id="line3" class="st13" x1="141.7" y1="579.9" x2="214.7" y2="395.6"/>
	<line id="line2" class="st13" x1="178.2" y1="594.8" x2="223" y2="403.9"/>
	<line id="line1" class="st13" x1="214.7" y1="614.7" x2="226" y2="401.9"/>
</g>
<linearGradient id="Path-64_2_" gradientUnits="userSpaceOnUse" x1="-859.7382" y1="245.1423" x2="-980.6758" y2="462.9029" gradientTransform="matrix(-0.985 -2.040000e-02 -2.040000e-02 -0.9723 -717.0951 836.8556)">
	<stop  offset="0" style="stop-color:#DFF2FD;stop-opacity:0.3"/>
	<stop  offset="1" style="stop-color:#C3E1FF"/>
</linearGradient>
<path id="Path-64_1_" class="st14" d="M191.5,370.7L43.7,563.3c2.3,36.7,123.7,79.8,186.8,60.4V403.9L191.5,370.7z"/>
<g>
	<path class="st1" d="M265.9,448.9c2.8,2.3-0.5,7.4-3.6,5.1c-10-8.1-45.2-8.3-37.9-28.4c3.2-8.8,10.2-9.6,18.3-8.6
		c13.4,1.6,26.5,4.1,39.8,6.6c3.8,0.7,3.1,7-0.7,6.3c-7.8-1.5-15.8-2.9-23.6-4.2c-4.8-0.8-9.8-1.6-14.8-2.3c-1.5-0.4-3.5-0.9-5-0.7
		c-5.8,0.6-7.5,2-6.5,7.6c1.2,6.1,4,6.1,9.3,8.1c3.8,1.5,7.6,2.9,11.3,4.2C256.9,444.3,262.1,445.7,265.9,448.9L265.9,448.9z"/>
	<path class="st1" d="M230.5,437.4c1.7-3.6,7-1,5.4,2.4c-5,10.5,6.3,14.8,13.9,18.1c5.6,2.4,11.3,4.6,17.1,6.6
		c3.6,1.2,1.5,7.1-2.2,5.8C251.1,465.6,220.5,457.7,230.5,437.4L230.5,437.4z"/>
	<path class="st1" d="M241.1,457.5c1.5-3.8,6.8-1.2,5.3,2.6c-2.8,7.3,5,12.2,10.5,14.9c2.7,1.3,5.5,2.5,8.3,3.5
		c0.9,0.3,1.9,0.7,2.7,1c0.1,0,2.5,0.6,1.3,0.3c3.6,1.2,3,7.5-0.7,6.3C256.7,482.6,234.5,474.1,241.1,457.5L241.1,457.5z"/>
	<path class="st1" d="M249.8,474.9c1-3.9,6.4-1.1,5.5,2.7c-3.8,14.3,18,15,27.6,15.8c11.9,1,22.7-1,33.5-6.5
		c3.5-1.8,5.6,4.1,2.3,5.8c-16.7,8.4-33.7,8.3-51.6,4.6C254.8,494.8,246.3,488.5,249.8,474.9L249.8,474.9z"/>
	<path class="st1" d="M282.8,433.6c-2,3.5-6.6-0.7-4.4-3.7c3.8-6.4,8.8-18-0.2-21.3c-6.2-2.2-12.8-4.9-17.8-9.5
		c-5.1-4.8-11.4-11.3-4.3-19.9c2.8-3.5,18.2,5.8,25.2,6.3c7.9,0.5,14.4,1.5,20.9,6.1c8.4,6.1,13.6,14.4,17.4,23.9
		c5.8,14.6,14.9,27.4,22.9,40.8c1.9,3.3-2.6,7.3-4.6,3.8c-6.3-10.6-13.3-20.9-18.9-31.9s-8.6-22.3-18.6-30.4
		c-6.8-5.5-13.8-6-22.1-6.5c-4.1-0.2-19.4-12.1-21.4-8.3c-1.4,2.3-2.2,7.4,0.8,10.1c5,4.4,15.5,8.1,17.8,8.6c3.4,0.6,4.9,0,7.6,1.8
		C293.6,411,287.9,424.8,282.8,433.6L282.8,433.6z"/>
</g>
<path class="st15" d="M90.9,610.6"/>
<polygon class="st12" points="197.6,679.8 190,673.5 246.9,640.3 254.9,647.1 "/>
<path class="st15" d="M237.5,643.5"/>
<polygon class="st12" points="172.6,595 110.3,620.6 129.4,633.2 192.3,604.8 "/>
<path class="st15" d="M78.3,598.3"/>
<line class="st16" x1="83.9" y1="602.6" x2="144.7" y2="581.7"/>
<line class="st16" x1="100.8" y1="611.3" x2="158.6" y2="589.5"/>
<path class="st17" d="M134.9,640.6"/>
<path class="st17" d="M156.3,652.3"/>
<g id="XMLID_2_">
	<g>
		<path class="st1" d="M136.5,669.4c-2,2.5-4,6.1-2,8.3c3.9,4.2,13.7,0.2,18.8-2.3c3.9-2,13.7-5.8,11-10.8s-11-2.2-15.8-0.5
			c-4.1,1.4-5.1-5.1-0.8-6.6c9.1-3.2,19.1-4,23.4,4.3c4.5,8.7-6.8,15.1-13.9,18.8c-8.8,4.7-21.9,8.8-28.2,1.7
			c-3.6-4.1-1.8-11.1,2.2-16.1C134.2,662.6,139.5,666,136.5,669.4z"/>
	</g>
</g>
<path class="st1" d="M148.3,679.2c2.8-3.7,8-0.2,5.3,3.7c-1.8,2.5-3.8,5.9-1.8,8.1c3.8,4.1,13.6,0.3,18.6-2.2
	c3.8-2,13.5-5.8,10.8-10.6c-2.6-4.8-10.8-2.2-15.6-0.5c-4.1,1.4-5.1-5.1-0.8-6.6c9.1-3.1,18.9-3.8,23.2,4.5
	c4.5,8.6-6.6,14.7-13.6,18.4c-8.8,4.5-21.8,8.4-28.1,1.3C142.5,691,144.3,684.2,148.3,679.2L148.3,679.2z"/>
<path class="st1" d="M184.1,689.8c-4,0-10.2,2.7-11,8c-1.5,9.3,13.6,2.1,18.1-0.2c1.9-1,7.7-4,7-7
	C197.4,687,186.8,689.3,184.1,689.8c-3.1,0.5-3.3-5,0.2-5.5c5.9-1,18-3.1,19.2,4.7c1,7.3-8.5,12.4-13.8,14.9
	c-8,3.7-22.6,7.7-21.8-4.8c0.6-8.5,9.4-14.6,16.4-14.8C187.3,684.1,187.5,689.6,184.1,689.8z"/>
<path class="st0" d="M146.9,560.9c0.9,1.5,8,6.8,11,7.6c3,0.7,10.9,3,13.1,5.5s0,4.5,0,4.5l-11.1-5.6c-10.6-5.8-12.1-4.5-13.1-8
	C146,561.6,145.7,558.5,146.9,560.9z"/>
<path class="st9" d="M617.4,347.3c-5.2-21-10.8-38.4-31.6-46.4"/>
<line class="st16" x1="146.3" y1="640.8" x2="204.3" y2="613.4"/>
<line class="st16" x1="162.3" y1="652.3" x2="219.5" y2="623.7"/>
<line class="st16" x1="178.9" y1="665.4" x2="237.5" y2="633.8"/>
<g id="XMLID_1_">
	<g>
		<path class="st1" d="M132.1,642.4c-4.3,0.2-5.3,6.3-1.8,7c-5.1-0.3-12.9,1.8-14.9,8.3c-3.5,11.7,17.3,5.4,23.4,3.2
			c2.5-0.8,10.6-3.6,10.3-7.6c-0.3-4.5-12.3-4-16.9-3.8c3.3-0.7,3.7-6.7,0-7c7.8-0.2,23.9-0.7,23.9,9.8c0,9.6-12.9,14.4-20.4,16.6
			c-10.9,3.1-30.4,5.3-27.2-10.5C110.6,647.6,123.2,641.5,132.1,642.4z"/>
		<path class="st1" d="M131.1,649.4c-0.2,0-0.3,0-0.5,0h-0.2c-3.3-0.7-2.5-7,1.8-7c3.7,0.5,3.3,6.3,0,7
			C131.7,649.4,131.4,649.4,131.1,649.4z"/>
		<path class="st3" d="M132.3,649.4c-0.4,0-0.9,0-1.2,0C131.4,649.4,131.7,649.4,132.3,649.4z"/>
	</g>
</g>
</svg>
