<?xml version="1.0" encoding="utf-8"?>
<!-- Generator: Adobe Illustrator 25.2.1, SVG Export Plug-In . SVG Version: 6.00 Build 0)  -->
<svg version="1.1" id="Layer_1" xmlns="http://www.w3.org/2000/svg" xmlns:xlink="http://www.w3.org/1999/xlink" x="0px" y="0px"
	 viewBox="0 0 150.5 312.8" style="enable-background:new 0 0 150.5 312.8;" xml:space="preserve">
<style type="text/css">
	.st0{fill:#B6D1FF;}
	.st1{fill:#2B6AD8;}
	.st2{fill:#D4E2FF;}
	.st3{fill:none;stroke:#2B6AD8;stroke-width:0.5;}
	.st4{fill:#FFFFFF;}
	.st5{fill:#5B8CE1;}
	.st6{fill:#DEE2ED;}
	.st7{fill:#1D2C42;}
	.st8{fill-rule:evenodd;clip-rule:evenodd;fill:#EF5350;}
	.st9{opacity:0;}
	.st10{fill:#DEE2ED;stroke:#DEE2ED;}
	.st11{fill-rule:evenodd;clip-rule:evenodd;fill:#2B6AD8;}
	.st12{enable-background:new    ;}
	.st13{fill:none;stroke:#DEE2ED;stroke-width:6;stroke-linecap:round;}


#passport{
	animation: passport-anim 10s infinite;
	    animation-timing-function: cubic-bezier(0, 0, 0, 0);
	transform: translate(50px,0px) rotateZ(-5deg);
	 transform-origin: 76px 170px;
}

@keyframes passport-anim{
	10%{
	transform: translate(100px,0px) rotateZ(8deg);
	}
	
	100%{
	transform: translate(100px,0px) rotateZ(8deg);
	}
	
}


#txt{
	animation: txt-anim 10s infinite;
	    opacity:1;
}

@keyframes txt-anim{
	25%{
	opacity:1;
	}
	26%{
	opacity:0;
	}
	100%{
	opacity:0;
	}
	
}

#txt1{
	animation: txt1-anim 10s infinite;
	    opacity:0;
}

@keyframes txt1-anim{
	26%{
	opacity:0;
	}
	27%{
	opacity:1;
	}
	40%{
	opacity:1;
	}
	41%{
	opacity:0;
	}
	100%{
	opacity:0;
	}
	
}

#txt2{
	animation: txt2-anim 10s infinite;
	    opacity:0;
}

@keyframes txt2-anim{
	41%{
	opacity:0;
	}
	42%{
	opacity:1;
	}
	49%{
	opacity:1;
	}
	50%{
	opacity:0;
	}
	100%{
	opacity:0;
	}
	
}

#loader{
	animation: loader-anim 1s infinite;
	animation-timing-function: cubic-bezier(0, 0, 0, 0);
	 transform-origin: 95px 176px;
	 <!-- transform: translate(10px , 50px) ; -->
}

@keyframes loader-anim{
	0%{
	transform:  rotate(0deg);
	<!-- transform: translate(10px , 50px) ; -->
	}
	
	100%{
	transform: rotate(360deg);
	<!-- transform: translate(10px , 50px) ; -->
	}
	
}

#dba{
	animation: dba-anim 10s infinite;
	    animation-timing-function: cubic-bezier(0, 0, 0, 0);
	transform: translate(-710px , -350px);
	opacity:1;
}

@keyframes dba-anim{
	15%{
	opacity:1;
	}
	
	16%{
	opacity:0;
	}
	100%{
	opacity:0;
	}
	
}


#extractmbl{
	animation: extractmbl-anim 10s infinite;
	   animation-timing-function: cubic-bezier(0, 0, 0, 0);
	
	opacity:0;

}

@keyframes extractmbl-anim{
	50%{
	opacity:0;
	}
	
	51%{
	opacity:1;
	}
	100%{
	opacity:1;
	}
	
}

#btn{
	animation: btn-anim 10s infinite;
	   animation-timing-function: cubic-bezier(0, 0, 0, 0);
	
	opacity:0;
}

@keyframes btn-anim{
	59%{
	opacity:0;
	}
	
	60%{
	opacity:1;
	}
	100%{
	opacity:1;
	}
	
}

#line1{
	animation: line1-anim 10s infinite;
	   animation-timing-function: cubic-bezier(0, 0, 0, 0);
	
	opacity:0;
	stroke-dasharray: 80;
	stroke-dashoffset:80;
}

@keyframes line1-anim{
	50%{
	opacity:0;
	stroke-dashoffset:80;
	}
	
	51%{
	opacity:1;
	troke-dashoffset:80;
	}

	 56%{
	stroke-dashoffset:0;
	}
	100%{
	stroke-dashoffset:0;
	opacity:1;
	}
	
}


#line2{
	animation: line2-anim 10s infinite;
	   animation-timing-function: cubic-bezier(0, 0, 0, 0);
	
	opacity:0;
stroke-dasharray: 80;
	stroke-dashoffset:80;
}

@keyframes line2-anim{
	50%{
	opacity:0;
	stroke-dashoffset:80;
	}
	
	51%{
	opacity:1;
	stroke-dashoffset:80;
	}
	52%{
	stroke-dashoffset:80;
	}
	 57%{
	stroke-dashoffset:0;
	}
	100%{
	stroke-dashoffset:0;
	opacity:1;
	}
	
}

#line3{
	animation: line3-anim 10s infinite;
	   animation-timing-function: cubic-bezier(0, 0, 0, 0);
	
	opacity:0;
stroke-dasharray: 80;
	stroke-dashoffset:80;
}

@keyframes line3-anim{
	50%{
	opacity:0;
	stroke-dashoffset:80;
	}
	
	51%{
	opacity:1;
	stroke-dashoffset:80;
	}
	53%{
	stroke-dashoffset:80;
	}
	 58%{
	stroke-dashoffset:0;
	}
	100%{
	stroke-dashoffset:0;
	opacity:1;
	}
	
}


#circle-1{

	animation: circle-1-anim 8s infinite;
	animation-timing-function: cubic-bezier(0.61, 0.04, 0.43, 1);
	<!-- animation-delay:1.5s; -->
    <!-- stroke-dasharray: 1550 -->
   
    transform-origin: 540px 540px;
    stroke-width:85;
    animation-duration: 5s;
    animation-delay:1.5s;
      <!-- transform: scale(0.1); -->
      transform: translate(-291px , -360px) scale(0.0375);
    
    
}

@keyframes circle-1-anim{
0%{
	    <!-- transform: scale(1); -->
	    <!-- transform: scale(0.1); -->
		stroke-width:92;
		stroke:#ef5350;
		 
		 transform: translate(-291px , -360px) scale(0.0375);
	    
	}
	7%{
	<!-- transform: scale(1.05); -->
	<!-- transform: scale(0.105); -->
	stroke-width:45;
	stroke:#ef5350;
	 
	 transform: translate(-291px, -360px) scale(0.039375);
	}
	12.5%,23%{
	<!-- transform: scale(1.08); -->
	<!-- transform: scale(0.108); -->
	stroke-width:35;
	stroke:#ef5350;
	 
	 transform: translate(-291px, -360px) scale(0.0405);
	}
	25%,37%{
	stroke:#2B6AD8;
	<!-- transform: scale(1.08); -->
	<!-- transform: scale(0.108); -->
	stroke-width:35;
	 
	 transform: translate(-291px, -360px) scale(0.0405);
	}
	50%{
	stroke:#2B6AD8;
	<!-- transform: scale(0.99); -->
	<!-- transform: scale(0.099); -->
	stroke-width:96;
	 
	 transform: translate(-291px, -360px) scale(0.037125);
	}
	56%,71%{
	stroke:#2B6AD8;
	<!-- transform: scale(1); -->
	<!-- transform: scale(0.1); -->
	stroke-width:92;
	 
	 transform: translate(-291px, -360px) scale(0.0375);
	}
	73%,100%{
	<!-- transform: scale(1); -->
	<!-- transform: scale(0.1); -->
	stroke-width:92;
	stroke:#ef5350;
	 
	 transform: translate(-291px  , -360px ) scale(0.0375);
	}
	
}



#circle-2{
	animation: circle-2-anim 8s infinite;
	animation-timing-function: cubic-bezier(0.61, 0.04, 0.43, 1);
    stroke-dasharray: 1550;
   
    transform-origin: 540px 540px;
    animation-delay:1.5s;
     animation-duration: 5s;
        <!-- transform: scale(0.1); -->
        transform: translate(-291px , -360px) scale(0.0375) rotateY( 0deg);
    
    
}

@keyframes circle-2-anim{
	0%{
	    
	    <!-- transform: rotateY(0deg); -->
	     <!-- transform: scale(0.1); -->
	     transform: translate(-291px , -360px) scale(0.0375) rotateY(0deg);
	}
	7.5%,22.5%{
	<!-- transform: rotateY(180deg); -->
	opacity:1;
	 <!-- transform: scale(0.1); -->
	 transform: translate(-291px , -360px) scale(0.0375) rotateY(180deg);
	
	}
	23%,100%{
	opacity:0;
	 <!-- transform: scale(0.1); -->
	 transform: translate(-291px , -360px) scale(0.0375) rotateY(180deg);
	
	}
	
	
}

#circle-2-1{
	animation: circle-2-1-anim 8s infinite;
	animation-timing-function: cubic-bezier(0.61, 0.04, 0.43, 1);
    stroke-dasharray: 1550;
    transform-origin: 540px 540px;
    animation-delay:1.5s;
    animation-duration: 5s;
       <!-- transform: scale(0.1); -->
       transform: translate(-291px , -360px) scale(0.0375) rotateY(0deg);
    
}

@keyframes circle-2-1-anim{
	0%{
	    
	    <!-- transform: rotateY(0deg); -->
	     <!-- transform: scale(0.1); -->
	    transform: translate(-291px , -360px) scale(0.0375) rotateY(0deg);
	}
	17.5%,22.5%{
	<!-- transform: rotateY(180deg); -->
	opacity:1;
	 <!-- transform: scale(0.1); -->
	 transform: translate(-291px , -360px) scale(0.0375) rotateY(180deg);
	
	}
	23%,100%{
	opacity:0;
	 <!-- transform: scale(0.1); -->
	 transform: translate(-291px , -360px) scale(0.0375) rotateY(180deg);
	
	}
	
}



#circle-3{
	animation: circle-3-anim 8s infinite;
	animation-timing-function: cubic-bezier(0.61, 0.04, 0.43, 1);
    stroke-dasharray: 1550;
    transform-origin: 540px 540px;
    animation-delay:1.5s;
    animation-duration: 5s;
       <!-- transform: scale(0.1); -->
       transform: translate(-291px , -360px) scale(0.0375) rotateZ(0deg);
    
    
}

@keyframes circle-3-anim{
	0%{
	    
	      <!-- transform: rotateZ(0deg); -->
	    opacity:0;
	     <!-- transform: scale(0.1); -->
	     transform: translate(-291px , -360px) scale(0.0375) rotateZ(0deg);
	}
	7.5%,22.5%{
	  <!-- transform: rotateZ(0deg); -->
	opacity:0;
	 <!-- transform: scale(0.1); -->
	 transform: translate(-291px , -360px) scale(0.0375) rotateZ(0deg);
	
	}
	22.75%{
	opacity:1;
	stroke:#ef5350;
	  <!-- transform: rotateZ(0deg); -->
	   <!-- transform: scale(0.1); -->
	   transform: translate(-291px , -360px) scale(0.0375) rotateZ(0deg);
	
	}
	25%{
	stroke:#2B6AD8;
	  <!-- transform: rotateZ(0deg); -->
	   <!-- transform: scale(0.1); -->
	   transform: translate(-291px , -360px) scale(0.0375) rotateZ(0deg);
	}
	32.5%,40%{
	opacity:1;
	stroke:#2B6AD8;
	<!-- transform: rotateZ(-90deg); -->
	 <!-- transform: scale(0.1); -->
	 transform: translate(-291px , -360px) scale(0.0375) rotateZ(-90deg);
	}
	40.75%,100%{
	opacity:0;
	 <!-- transform: scale(0.1); -->
	 transform: translate(-291px , -360px) scale(0.0375) rotateZ(-90deg);
	}
	
	
}

#circle-3-1{
	animation: circle-3-1-anim 8s ease infinite;
	animation-timing-function: cubic-bezier(0.61, 0.04, 0.43, 1);
    stroke-dasharray: 1550;
    transform-origin: 540px 540px;
    animation-delay:1.5s;
    animation-duration: 5s;
      <!-- transform: scale(0.1); -->
      transform: translate(-291px , -360px) scale(0.0375) rotateZ(0deg);
}

@keyframes circle-3-1-anim{
	0%{
	    
	    <!-- transform: rotateZ(0deg); -->
	    opacity:0;
	     <!-- transform: scale(0.1); -->
	     transform: translate(-291px , -360px) scale(0.0375) rotateZ(0deg);
	}
	15%,22.5%{
	  <!-- transform: rotateZ(0deg); -->
	opacity:0;
	 <!-- transform: scale(0.1); -->
	 transform: translate(-291px , -360px) scale(0.0375) rotateZ(0deg);
	
	}
	22.75%{
	opacity:1;
	stroke:#ef5350;
	  <!-- transform: rotateZ(0deg); -->
	   <!-- transform: scale(0.1); -->
	   transform: translate(-291px , -360px) scale(0.0375) rotateZ(0deg);
	
	}
	25%{
	  <!-- transform: rotateZ(0deg); -->
	stroke:#2B6AD8;
	 <!-- transform: scale(0.1); -->
	 transform: translate(-291px , -360px) scale(0.0375) rotateZ(0deg);
	}
	32.5%,40%{
	opacity:1;
	stroke:#2B6AD8;
	<!-- transform: rotateZ(-90deg); -->
	 <!-- transform: scale(0.1); -->
	 transform: translate(-291px , -360px) scale(0.0375) rotateZ(-90deg);
	}
	40.75%,100%{
	opacity:0;
	 <!-- transform: scale(0.1); -->
	 transform: translate(-291px , -360px) scale(0.0375) rotateZ(-90deg);
	}
	
}




#circle-4{
	animation: circle-4-anim 8s infinite;
	animation-timing-function: cubic-bezier(0.61, 0.04, 0.43, 1);
    stroke-dasharray: 1550;
    transform-origin: 540px 540px;
    animation-delay:1.5s;
    stroke:#2B6AD8;
    opacity:0;
    animation-duration: 5s;
  <!-- transform: scale(0.1); -->
  transform: translate(-291px , -360px) scale(0.0375) rotateX(0deg);
    
    
}

@keyframes circle-4-anim{
	0%,35%{
	    
	    <!-- transform: rotateX(0deg); -->
	    opacity:0;
	     <!-- transform: scale(0.1); -->
	     transform: translate(-291px , -360px) scale(0.0375) rotateX(0deg);
	}
	40%{
	opacity:1;
	<!-- transform: rotateX(0deg); -->
	 <!-- transform: scale(0.1); -->
	 transform: translate(-291px , -360px) scale(0.0375) rotateX(0deg);
	}
	47.5%,70%{
	  <!-- transform: rotateX(180deg); -->
		opacity:1;
		 <!-- transform: scale(0.1); -->
		 transform: translate(-291px , -360px) scale(0.0375) rotateX(180deg);
	
	}
	71%,100%{
	opacity:0;
	 <!-- transform: scale(0.1); -->
	 transform: translate(-291px , -360px) scale(0.0375) rotateX(180deg);
	}

	
	
}

#circle-4-1{
	animation: circle-4-1-anim 8s infinite;
	animation-timing-function: cubic-bezier(0.61, 0.04, 0.43, 1);
    stroke-dasharray: 1550;
    transform-origin: 540px 540px;
    stroke:#2B6AD8;
    opacity:0;
    animation-delay:1.5s;
    animation-duration: 5s;
      <!-- transform: scale(0.1); -->
      transform: translate(-291px , -360px) scale(0.0375) rotateX(0deg);
    
    
}

@keyframes circle-4-1-anim{
	0%,35%{
	    
	    <!-- transform: rotateX(0deg); -->
	    opacity:0;
	     <!-- transform: scale(0.1); -->
	    transform: translate(-291px , -360px) scale(0.0375) rotateX(0deg);
	}
	40%{
	opacity:1;
	<!-- transform: rotateX(0deg); -->
	 <!-- transform: scale(0.1); -->
	 transform: translate(-291px , -360px) scale(0.0375) rotateX(0deg);
	}
	57.5%,70%{
	  <!-- transform: rotateX(180deg); -->
		opacity:1;
		<!-- transform: scale(0.1); -->
		transform: translate(-291px , -360px) scale(0.0375) rotateX(180deg);
	
	}
	71%,100%{
	opacity:0;
	 <!-- transform: scale(0.1); -->
	 transform: translate(-291px , -360px) scale(0.0375) rotateX(180deg);
	}
	
	
}



#circle-5{
	animation: circle-5-anim 8s infinite;
	animation-timing-function: cubic-bezier(0.61, 0.04, 0.43, 1);
    stroke-dasharray: 1550;
    transform-origin: 540px 540px;
    stroke:#2B6AD8;
    animation-delay:1.5s;
    animation-duration: 5s;
       <!-- transform: scale(0.1);
        transform: scale(0.1); -->
        transform: translate(-291px , -360px) scale(0.0375) rotateZ(0deg);
    
    
}

@keyframes circle-5-anim{
	0%,70%{
	    
	     <!-- transform: rotateZ(0deg); -->
	    opacity:0;
	    stroke:#2B6AD8;
	     <!-- transform: scale(0.1); -->
	    transform: translate(-291px , -360px) scale(0.0375) rotateZ(0deg);
	}
	71%{
	opacity:1;
	stroke:#2B6AD8;
	 <!-- transform: scale(0.1); -->
	 transform: translate(-291px , -360px) scale(0.0375) rotateZ(0deg);
	}
	73%{
	opacity:1;
	stroke:#ef5350;
	 <!-- transform: scale(0.1); -->
	 transform: translate(-291px , -360px) scale(0.0375) rotateZ(0deg);
	}
	80%,100%{
	  <!-- transform: rotateZ(90deg); -->
	opacity:1;
	stroke:#ef5350;
	 <!-- transform: scale(0.1); -->
	transform: translate(-291px , -360px) scale(0.0375) rotateZ(90deg);
	
	}
	
}

#circle-5-1{
	animation: circle-5-1-anim 8s ease infinite;
	animation-timing-function: cubic-bezier(0.61, 0.04, 0.43, 05);
    stroke-dasharray: 1550;
    transform-origin: 540px 540px;
    animation-delay:1.5s;
    animation-duration: 5s;
     <!-- transform: scale(0.1); -->
    transform: translate(-291px , -360px) scale(0.0375) rotateZ(0deg);
    
}

@keyframes circle-5-1-anim{
	0%,70%{
	    
	     <!-- transform: rotateZ(0deg) ; -->
	    opacity:0;
	     <!-- transform: scale(0.1); -->
	     transform: translate(-291px , -360px) scale(0.0375) rotateZ(0deg);
	}
	71%{
	opacity:1;
	stroke:#2B6AD8;
	 <!-- transform: scale(0.1); -->
	 transform: translate(-291px , -360px) scale(0.0375) rotateZ(0deg);
	}
	73%{
	opacity:1;
	stroke:#ef5350;
	 <!-- transform: scale(0.1); -->
	 transform: translate(-291px , -360px) scale(0.0375) rotateZ(0deg);
	}
	80%,100%{
	  <!-- transform: rotateZ(90deg); -->
	opacity:1;
	stroke:#ef5350;
	 <!-- transform: scale(0.1); -->
	 transform: translate(-291px , -360px) scale(0.0375) rotateZ(90deg);
	
	}
	
}
</style>
<g id="passport">
	<g id="Page-1_2_">
		<g id="NFC-id-scan" transform="translate(-71.000000, -326.000000)">
			<g id="Scaaning-document-_x28_ID-card_x29_" transform="translate(68.127854, 289.408676)">
				
					<g id="Group-5_1_" transform="translate(85.455923, 98.309435) rotate(-12.000000) translate(-85.455923, -98.309435) translate(8.455923, 50.309435)">
					
						<g id="Path_7_" transform="translate(75.605367, 49.490230) rotate(-1.000000) translate(-75.605367, -49.490230) translate(1.105367, 4.490230)">
						<g id="path-1-link">
							<path id="path-1" d="M-9.8,133.4l-134.3,0c-3.8,0-6.8-2.9-6.8-6.5l0-77.9c0-2.7,2.3-4.9,5.2-4.9l137.5,0c2.9,0,5.3,2.2,5.3,5
								l0,77.8C-2.9,130.5-6,133.4-9.8,133.4z"/>
						</g>
						<g id="path-1-link_1_">
							<path id="path-1_1_" class="st0" d="M-9.8,133.4l-134.3,0c-3.8,0-6.8-2.9-6.8-6.5l0-77.9c0-2.7,2.3-4.9,5.2-4.9l137.5,0
								c2.9,0,5.3,2.2,5.3,5l0,77.8C-2.9,130.5-6,133.4-9.8,133.4z"/>
						</g>
					</g>
					<g id="Path_6_" transform="translate(4.462746, 0.030255)">
						<g id="path-3-link">
							<path id="path-3" d="M-9.2,140l-134.3,0c-3.8,0-6.8-3-6.8-6.8l0-81.5c0-2.9,2.3-5.2,5.2-5.2l137.5,0c2.9,0,5.3,2.3,5.3,5.2
								l0,81.4C-2.4,136.9-5.4,140-9.2,140z"/>
						</g>
						<g id="path-3-link_1_">
							<path id="path-3_1_" class="st1" d="M-9.2,140l-134.3,0c-3.8,0-6.8-3-6.8-6.8l0-81.5c0-2.9,2.3-5.2,5.2-5.2l137.5,0
								c2.9,0,5.3,2.3,5.3,5.2l0,81.4C-2.4,136.9-5.4,140-9.2,140z"/>
						</g>
					</g>
					<g id="Group_1_" transform="translate(12.047966, 7.356567)">
						<path id="Rectangle" class="st2" d="M-149.4,46.2l11.1,0c0.6,0,1,0.4,1,1v5.6c0,0.6-0.4,1-1,1h-11.1c-0.6,0-1-0.4-1-1v-5.6
							C-150.4,46.7-149.9,46.2-149.4,46.2z"/>
						
							<ellipse id="Oval" transform="matrix(-1 2.305043e-06 -2.305043e-06 -1 -287.7094 99.9935)" class="st3" cx="-143.9" cy="50" rx="2.1" ry="2.1"/>
						<path id="Shape" class="st3" d="M-141.7,50h4.4 M-150.4,50h4.4"/>
					</g>
					<path id="Path_5_" class="st4" d="M-19.6,93.3l-48.5,0c-1.6,0-2.9-1.4-2.9-3.1c0-1.7,1.3-3.1,2.9-3.1l48.5,0
						c1.6,0,2.9,1.4,2.9,3.1C-16.7,91.9-18,93.3-19.6,93.3z"/>
					<path id="Path-Copy" class="st4" d="M-19.5,105.4l-48.5,0c-1.6,0-2.9-1.4-2.9-3.1c0-1.7,1.3-3.1,2.9-3.1l48.5,0
						c1.6,0,2.9,1.4,2.9,3.1C-16.6,104-17.9,105.4-19.5,105.4z"/>
					<path id="Path-Copy-2" class="st4" d="M-19.5,118l-48.5,0c-1.6,0-2.9-1.4-2.9-3.1c0-1.7,1.3-3.1,2.9-3.1l48.5,0
						c1.6,0,2.9,1.4,2.9,3.1C-16.6,116.6-17.9,118-19.5,118z"/>
					<path id="Shape_4_" class="st4" d="M-108,94.9c-4.4,0-8.5-2.7-10.2-6.9c-1.7-4.2-0.8-9,2.4-12.2c3.1-3.2,7.9-4.2,12-2.4
						c4.1,1.7,6.8,5.8,6.8,10.4C-97,89.9-101.9,94.9-108,94.9z"/>
					<path id="Shape_3_" class="st4" d="M-89.9,118l-35.6,0c-0.8,0-1.5-0.7-1.5-1.6v-7.8c0-5.8,4.4-10.5,9.9-10.5h18.8
						c5.5,0,9.9,4.7,9.9,10.5v7.7c0,0.4-0.2,0.9-0.5,1.2S-89.5,118-89.9,118L-89.9,118z"/>
					<path id="Path_4_" class="st5" d="M-43.1,80.8h-24.8c-1.5,0-2.8-1.3-2.8-2.9s1.2-2.9,2.8-2.9l24.8,0c1.5,0,2.8,1.3,2.8,2.9
						C-40.4,79.5-41.6,80.8-43.1,80.8z"/>
				</g>
			</g>
		</g>
	</g>
</g>
<g id="mbl1">
	<desc>Created with Sketch.</desc>
	<g id="Page-1">
		<g id="NFC-passport" transform="translate(-34.000000, -26.000000)">
			<g id="Group-3" transform="translate(222.087866, 45.004184)">
				<g id="undraw_modern_design_v3wv">
					<path id="Path" class="st6" d="M-31.4,105h-1.3V69.4c0-5.5-2.2-10.7-6.1-14.6s-9.2-6-14.6-6h-75.9c-5.5,0-10.8,2.2-14.6,6
						c-3.8,3.8-6.1,9.1-6.1,14.6v195.5c0,5.5,2.2,10.7,6.1,14.6c3.9,3.9,9.2,6,14.6,6h75.8c5.5,0,10.8-2.2,14.6-6
						c3.9-3.9,6.1-9.1,6.1-14.6V130.4h1.3L-31.4,105L-31.4,105z"/>
					<path id="Path_1_" class="st4" d="M-52.6,54.4h-9.9c0.9,2.3,0.7,4.8-0.7,6.8c-1.4,2-3.7,3.2-6.1,3.2h-43.5
						c-2.4,0-4.7-1.2-6.1-3.2c-1.4-2-1.6-4.6-0.7-6.8h-9.2c-4.1,0-8,1.6-10.9,4.5s-4.5,6.8-4.5,10.9V265c0,4.1,1.6,8,4.5,10.9
						c2.9,2.9,6.8,4.5,10.9,4.5h76.2c4.1,0,8-1.6,10.9-4.5s4.5-6.8,4.5-10.9V69.8c0-4.1-1.6-8-4.5-10.9
						C-44.6,56.1-48.5,54.4-52.6,54.4L-52.6,54.4z"/>
				</g>
			</g>
		</g>
	</g>
</g>
<g id="txt">
	<g>
		<path class="st7" d="M71.6,209.4c0,0.4-0.1,0.7-0.4,0.9s-0.7,0.3-1.1,0.3s-0.9-0.1-1.2-0.2v-0.7c0.2,0.1,0.4,0.2,0.6,0.2
			s0.4,0.1,0.6,0.1c0.3,0,0.5-0.1,0.6-0.2s0.2-0.2,0.2-0.4c0-0.2-0.1-0.3-0.2-0.4s-0.4-0.2-0.8-0.4c-0.4-0.2-0.7-0.3-0.8-0.5
			s-0.2-0.4-0.2-0.7c0-0.4,0.1-0.6,0.4-0.8s0.6-0.3,1-0.3c0.4,0,0.8,0.1,1.2,0.3l-0.2,0.6c-0.4-0.2-0.7-0.2-1-0.2
			c-0.2,0-0.4,0-0.5,0.1s-0.2,0.2-0.2,0.4c0,0.1,0,0.2,0.1,0.3c0,0.1,0.1,0.2,0.2,0.2s0.3,0.2,0.6,0.3c0.3,0.1,0.5,0.3,0.7,0.4
			s0.3,0.2,0.3,0.4S71.6,209.2,71.6,209.4z"/>
		<path class="st7" d="M73.7,210.6c-0.5,0-0.9-0.1-1.1-0.4c-0.3-0.3-0.4-0.7-0.4-1.2c0-0.5,0.1-1,0.4-1.3s0.7-0.4,1.2-0.4
			c0.3,0,0.7,0.1,0.9,0.2l-0.2,0.6c-0.3-0.1-0.5-0.2-0.7-0.2c-0.6,0-0.8,0.4-0.8,1.1c0,0.4,0.1,0.6,0.2,0.8s0.3,0.3,0.6,0.3
			c0.3,0,0.6-0.1,0.9-0.2v0.6c-0.1,0.1-0.3,0.1-0.4,0.2C74,210.6,73.9,210.6,73.7,210.6z"/>
		<path class="st7" d="M77.4,210.6l-0.1-0.5h0c-0.2,0.2-0.3,0.3-0.5,0.4c-0.2,0.1-0.4,0.1-0.6,0.1c-0.3,0-0.6-0.1-0.7-0.3
			c-0.2-0.2-0.3-0.4-0.3-0.7c0-0.3,0.1-0.6,0.4-0.8s0.6-0.3,1.1-0.3l0.6,0v-0.2c0-0.2,0-0.4-0.1-0.5c-0.1-0.1-0.2-0.2-0.4-0.2
			c-0.2,0-0.3,0-0.5,0.1c-0.2,0-0.3,0.1-0.4,0.2l-0.2-0.5c0.2-0.1,0.4-0.2,0.6-0.2c0.2,0,0.4-0.1,0.6-0.1c0.4,0,0.7,0.1,0.9,0.3
			c0.2,0.2,0.3,0.5,0.3,0.8v2.2H77.4z M76.3,210.1c0.2,0,0.5-0.1,0.6-0.2s0.2-0.3,0.2-0.6V209l-0.4,0c-0.3,0-0.6,0.1-0.7,0.2
			c-0.1,0.1-0.2,0.2-0.2,0.4c0,0.1,0,0.3,0.1,0.3C76,210,76.2,210.1,76.3,210.1z"/>
		<path class="st7" d="M81.7,210.6H81v-2c0-0.2-0.1-0.4-0.2-0.6s-0.3-0.2-0.5-0.2c-0.3,0-0.5,0.1-0.6,0.3s-0.2,0.5-0.2,0.9v1.6h-0.7
			v-3.2h0.5l0.1,0.4h0c0.1-0.2,0.2-0.3,0.4-0.4s0.4-0.1,0.6-0.1c0.8,0,1.2,0.4,1.2,1.2V210.6z"/>
		<path class="st7" d="M85.5,210.6h-0.7v-2c0-0.2-0.1-0.4-0.2-0.6s-0.3-0.2-0.5-0.2c-0.3,0-0.5,0.1-0.6,0.3s-0.2,0.5-0.2,0.9v1.6
			h-0.7v-3.2h0.5l0.1,0.4h0c0.1-0.2,0.2-0.3,0.4-0.4s0.4-0.1,0.6-0.1c0.8,0,1.2,0.4,1.2,1.2V210.6z"/>
		<path class="st7" d="M86.4,206.5c0-0.1,0-0.2,0.1-0.3c0.1-0.1,0.2-0.1,0.3-0.1c0.1,0,0.2,0,0.3,0.1c0.1,0.1,0.1,0.2,0.1,0.3
			c0,0.1,0,0.2-0.1,0.3c-0.1,0.1-0.2,0.1-0.3,0.1c-0.1,0-0.2,0-0.3-0.1C86.4,206.7,86.4,206.6,86.4,206.5z M87.1,210.6h-0.7v-3.2
			h0.7V210.6z"/>
		<path class="st7" d="M91,210.6h-0.7v-2c0-0.2-0.1-0.4-0.2-0.6s-0.3-0.2-0.5-0.2c-0.3,0-0.5,0.1-0.6,0.3s-0.2,0.5-0.2,0.9v1.6h-0.7
			v-3.2h0.5l0.1,0.4h0c0.1-0.2,0.2-0.3,0.4-0.4s0.4-0.1,0.6-0.1c0.8,0,1.2,0.4,1.2,1.2V210.6z"/>
		<path class="st7" d="M94.7,207.3v0.4l-0.6,0.1c0.1,0.1,0.1,0.2,0.1,0.3s0,0.2,0,0.3c0,0.3-0.1,0.6-0.3,0.8s-0.5,0.3-1,0.3
			c-0.1,0-0.2,0-0.3,0c-0.1,0.1-0.2,0.2-0.2,0.3c0,0.1,0,0.1,0.1,0.2s0.2,0.1,0.4,0.1h0.6c0.4,0,0.6,0.1,0.8,0.2s0.3,0.4,0.3,0.7
			c0,0.4-0.2,0.7-0.5,0.8s-0.7,0.3-1.3,0.3c-0.4,0-0.8-0.1-1-0.2s-0.3-0.4-0.3-0.7c0-0.2,0.1-0.4,0.2-0.5c0.1-0.1,0.3-0.2,0.5-0.3
			c-0.1,0-0.2-0.1-0.2-0.2c-0.1-0.1-0.1-0.2-0.1-0.3c0-0.1,0-0.2,0.1-0.3s0.2-0.2,0.3-0.2c-0.2-0.1-0.3-0.2-0.4-0.4
			c-0.1-0.2-0.2-0.4-0.2-0.6c0-0.4,0.1-0.6,0.3-0.8s0.5-0.3,0.9-0.3c0.1,0,0.2,0,0.3,0s0.2,0,0.2,0H94.7z M92.1,211.1
			c0,0.1,0.1,0.3,0.2,0.3s0.3,0.1,0.6,0.1c0.4,0,0.7-0.1,0.8-0.2s0.3-0.2,0.3-0.4c0-0.1-0.1-0.2-0.2-0.3c-0.1-0.1-0.3-0.1-0.6-0.1
			h-0.5c-0.2,0-0.4,0-0.5,0.1C92.2,210.8,92.1,210.9,92.1,211.1z M92.4,208.4c0,0.2,0.1,0.4,0.2,0.5s0.3,0.2,0.5,0.2
			c0.4,0,0.6-0.2,0.6-0.6c0-0.2,0-0.4-0.1-0.5c-0.1-0.1-0.2-0.2-0.5-0.2c-0.2,0-0.4,0.1-0.5,0.2C92.5,208,92.4,208.1,92.4,208.4z"/>
		<path class="st7" d="M100.4,208.4c0,0.7-0.2,1.2-0.6,1.6s-1,0.6-1.7,0.6h-1.2v-4.3h1.3c0.7,0,1.2,0.2,1.6,0.6
			S100.4,207.7,100.4,208.4z M99.6,208.4c0-1-0.5-1.5-1.4-1.5h-0.6v3.1h0.5C99.1,210,99.6,209.4,99.6,208.4z"/>
		<path class="st7" d="M104.1,208.9c0,0.5-0.1,0.9-0.4,1.2s-0.6,0.4-1.1,0.4c-0.3,0-0.6-0.1-0.8-0.2s-0.4-0.3-0.5-0.6
			s-0.2-0.6-0.2-0.9c0-0.5,0.1-0.9,0.4-1.2s0.6-0.4,1.1-0.4c0.5,0,0.8,0.2,1.1,0.5C104,208,104.1,208.4,104.1,208.9z M101.7,208.9
			c0,0.7,0.3,1.1,0.8,1.1c0.5,0,0.8-0.4,0.8-1.1c0-0.7-0.3-1.1-0.8-1.1c-0.3,0-0.5,0.1-0.6,0.3C101.8,208.3,101.7,208.6,101.7,208.9
			z"/>
		<path class="st7" d="M106.2,210.6c-0.5,0-0.9-0.1-1.1-0.4c-0.3-0.3-0.4-0.7-0.4-1.2c0-0.5,0.1-1,0.4-1.3c0.3-0.3,0.7-0.4,1.2-0.4
			c0.3,0,0.6,0.1,0.9,0.2L107,208c-0.3-0.1-0.5-0.2-0.7-0.2c-0.6,0-0.8,0.4-0.8,1.1c0,0.4,0.1,0.6,0.2,0.8s0.3,0.3,0.6,0.3
			c0.3,0,0.6-0.1,0.9-0.2v0.6c-0.1,0.1-0.3,0.1-0.4,0.2S106.4,210.6,106.2,210.6z"/>
		<path class="st7" d="M110.1,210.6l-0.1-0.4h0c-0.1,0.2-0.2,0.3-0.4,0.4s-0.4,0.1-0.6,0.1c-0.4,0-0.7-0.1-0.9-0.3s-0.3-0.5-0.3-0.9
			v-2.1h0.7v2c0,0.2,0.1,0.4,0.2,0.6s0.3,0.2,0.5,0.2c0.3,0,0.5-0.1,0.6-0.3c0.1-0.2,0.2-0.5,0.2-0.9v-1.6h0.7v3.2H110.1z"/>
		<path class="st7" d="M114.4,210.6h-0.7v-2c0-0.2,0-0.4-0.1-0.6s-0.2-0.2-0.4-0.2c-0.3,0-0.5,0.1-0.6,0.3c-0.1,0.2-0.2,0.5-0.2,0.9
			v1.6h-0.7v-3.2h0.5l0.1,0.4h0c0.1-0.2,0.2-0.3,0.4-0.4c0.2-0.1,0.4-0.1,0.6-0.1c0.5,0,0.8,0.2,1,0.5h0c0.1-0.2,0.2-0.3,0.4-0.4
			s0.4-0.1,0.6-0.1c0.4,0,0.7,0.1,0.8,0.3s0.3,0.5,0.3,0.9v2.1h-0.7v-2c0-0.2,0-0.4-0.1-0.6c-0.1-0.1-0.2-0.2-0.4-0.2
			c-0.3,0-0.5,0.1-0.6,0.2c-0.1,0.2-0.2,0.4-0.2,0.8V210.6z"/>
		<path class="st7" d="M118.8,210.6c-0.5,0-0.9-0.1-1.2-0.4c-0.3-0.3-0.4-0.7-0.4-1.2c0-0.5,0.1-0.9,0.4-1.2s0.6-0.5,1.1-0.5
			c0.4,0,0.8,0.1,1,0.4s0.4,0.6,0.4,1.1v0.4h-2.2c0,0.3,0.1,0.6,0.3,0.7c0.2,0.2,0.4,0.3,0.7,0.3c0.2,0,0.4,0,0.5-0.1
			c0.2,0,0.3-0.1,0.5-0.2v0.6c-0.2,0.1-0.3,0.1-0.5,0.2S119,210.6,118.8,210.6z M118.7,207.8c-0.2,0-0.4,0.1-0.5,0.2
			c-0.1,0.1-0.2,0.3-0.2,0.6h1.5c0-0.3-0.1-0.5-0.2-0.6C119.1,207.8,118.9,207.8,118.7,207.8z"/>
		<path class="st7" d="M123.7,210.6H123v-2c0-0.2-0.1-0.4-0.2-0.6s-0.3-0.2-0.5-0.2c-0.3,0-0.5,0.1-0.6,0.3s-0.2,0.5-0.2,0.9v1.6
			h-0.7v-3.2h0.5l0.1,0.4h0c0.1-0.2,0.2-0.3,0.4-0.4s0.4-0.1,0.6-0.1c0.8,0,1.2,0.4,1.2,1.2V210.6z"/>
		<path class="st7" d="M125.9,210.1c0.2,0,0.3,0,0.5-0.1v0.5c-0.1,0-0.2,0.1-0.3,0.1c-0.1,0-0.2,0-0.4,0c-0.7,0-1-0.3-1-1v-1.7h-0.4
			v-0.3l0.5-0.3l0.2-0.7h0.4v0.7h0.9v0.5h-0.9v1.7c0,0.2,0,0.3,0.1,0.4C125.6,210,125.7,210.1,125.9,210.1z"/>
	</g>
</g>
<path id="loader" class="st8" d="M111.4,176c0-9-7.3-16.4-16.4-16.4s-16.4,7.3-16.4,16.4 M81.4,176c0-7.5,6-13.6,13.6-13.6
	s13.6,6.1,13.6,13.6"/>
<rect id="dba" x="771.1" y="508.2" class="st4" width="77" height="64"/>
<g id="extractmbl" class="st9">
	<g id="Page-1_1_">
		<g id="Group-2_1_">
			<g id="Group">
				<path id="Path_3_" class="st6" d="M156.8,124h-1.3V88.4c0-5.5-2.2-10.7-6.1-14.6s-9.2-6-14.6-6H59c-5.5,0-10.8,2.2-14.6,6
					c-3.9,3.9-6.1,9.1-6.1,14.6v195.5c0,5.5,2.2,10.7,6.1,14.6c3.9,3.9,9.2,6,14.6,6h75.8c5.5,0,10.8-2.2,14.6-6s6.1-9.1,6.1-14.6
					V149.4h1.3V124z"/>
				<path id="Path_2_" class="st4" d="M125.7,73.4c0.9,2.3,0.7,4.8-0.7,6.8c-1.4,2-3.7,3.2-6.1,3.2H75.5c-2.4,0-4.7-1.2-6.1-3.2
					c-1.4-2-1.6-4.6-0.7-6.8h-9.2c-4.1,0-8,1.6-10.9,4.5s-4.5,6.8-4.5,10.9V284c0,4.1,1.6,8,4.5,10.9s6.8,4.5,10.9,4.5h76.2
					c4.1,0,8-1.6,10.9-4.5s4.5-6.8,4.5-10.9V88.8c0-4.1-1.6-8-4.5-10.9s-6.8-4.5-10.9-4.5H125.7z"/>
			</g>
			<g id="user" transform="translate(43.000000, 48.000000)">
				<path id="Shape_2_" class="st10" d="M54.2,86.8c2.5,0,4.7-0.9,6.5-2.8c1.8-1.8,2.7-4.1,2.7-6.7s-0.9-4.9-2.7-6.7
					c-1.8-1.8-4-2.8-6.5-2.8s-4.7,0.9-6.5,2.8c-1.8,1.8-2.7,4.1-2.7,6.7s0.9,4.9,2.7,6.7C49.5,85.8,51.7,86.8,54.2,86.8z M49.3,72.2
					c1.4-1.4,3-2.1,4.9-2.1s3.6,0.7,4.9,2.1c1.4,1.4,2,3.1,2,5.1s-0.7,3.7-2,5.1c-1.4,1.4-3,2.1-4.9,2.1s-3.6-0.7-4.9-2.1
					c-1.4-1.4-2-3.1-2-5.1C47.2,75.3,47.9,73.6,49.3,72.2z"/>
				<path id="Shape_1_" class="st10" d="M70.1,97.8c-0.1-0.8-0.2-1.6-0.3-2.4c-0.2-0.9-0.4-1.7-0.6-2.5c-0.2-0.8-0.6-1.6-1-2.3
					c-0.4-0.8-0.9-1.4-1.5-2s-1.3-1-2.2-1.4c-0.8-0.3-1.8-0.5-2.8-0.5c-0.4,0-0.8,0.2-1.5,0.6c-0.5,0.3-1,0.6-1.6,1
					c-0.5,0.3-1.2,0.6-2,0.9s-1.7,0.4-2.5,0.4s-1.7-0.1-2.5-0.4s-1.5-0.6-2-0.9c-0.6-0.4-1.1-0.7-1.6-1c-0.7-0.5-1.1-0.6-1.5-0.6
					c-1,0-1.9,0.2-2.8,0.5c-0.8,0.3-1.6,0.8-2.2,1.4c-0.6,0.6-1.1,1.2-1.5,2c-0.4,0.7-0.8,1.5-1,2.3s-0.4,1.6-0.6,2.5
					c-0.2,0.9-0.3,1.7-0.3,2.4c-0.1,0.7-0.1,1.5-0.1,2.3c0,2,0.6,3.7,1.9,4.9c1.2,1.2,2.9,1.8,4.9,1.8h18.5c2,0,3.6-0.6,4.9-1.8
					c1.3-1.2,1.9-2.8,1.9-4.9C70.2,99.3,70.2,98.6,70.1,97.8L70.1,97.8z M66.8,103.3c-0.8,0.8-1.9,1.2-3.3,1.2H45
					c-1.4,0-2.5-0.4-3.3-1.2c-0.8-0.8-1.2-1.8-1.2-3.2c0-0.7,0-1.4,0.1-2.1c0-0.7,0.1-1.4,0.3-2.2c0.1-0.8,0.3-1.5,0.5-2.2
					c0.2-0.6,0.5-1.3,0.8-1.9s0.7-1.1,1.1-1.5c0.4-0.4,0.9-0.7,1.4-0.9c0.5-0.2,1.1-0.3,1.8-0.3c0.1,0,0.2,0.1,0.4,0.3
					c0.5,0.3,1,0.7,1.6,1c0.7,0.4,1.5,0.8,2.5,1.1c1,0.3,2.1,0.5,3.2,0.5s2.1-0.2,3.2-0.5c1-0.3,1.9-0.7,2.5-1.1s1.1-0.7,1.6-1
					c0.2-0.1,0.4-0.2,0.4-0.3c0.6,0,1.2,0.1,1.8,0.3c0.6,0.2,1.1,0.5,1.4,0.9c0.4,0.4,0.8,0.9,1.1,1.5s0.6,1.2,0.8,1.9
					c0.2,0.7,0.4,1.4,0.5,2.2c0.1,0.8,0.2,1.5,0.3,2.2l0,0c0,0.7,0.1,1.4,0.1,2.1C68,101.5,67.6,102.5,66.8,103.3L66.8,103.3z"/>
			</g>
		</g>
	</g>
</g>
<g id="btn" class="st9">
	<path id="Rectangle_1_" class="st11" d="M76.2,247.3h43c4.1,0,7.5,3.4,7.5,7.5l0,0c0,4.1-3.4,7.5-7.5,7.5h-43
		c-4.1,0-7.5-3.4-7.5-7.5l0,0C68.7,250.6,72.1,247.3,76.2,247.3z"/>
	<g class="st12">
		<path class="st4" d="M84,251.9c-0.6,0-1.1,0.2-1.5,0.6s-0.5,1-0.5,1.7s0.2,1.3,0.5,1.7s0.8,0.6,1.5,0.6c0.4,0,0.9-0.1,1.4-0.2v0.6
			c-0.4,0.1-0.9,0.2-1.5,0.2c-0.8,0-1.5-0.3-1.9-0.8c-0.5-0.5-0.7-1.2-0.7-2.2c0-0.6,0.1-1.1,0.3-1.5s0.5-0.8,1-1
			c0.4-0.2,0.9-0.4,1.5-0.4s1.1,0.1,1.6,0.3l-0.3,0.6C84.8,252,84.4,251.9,84,251.9z"/>
		<path class="st4" d="M90.2,255c0,0.7-0.2,1.2-0.5,1.6c-0.4,0.4-0.8,0.6-1.5,0.6c-0.4,0-0.7-0.1-1-0.3s-0.5-0.4-0.7-0.8
			c-0.2-0.3-0.2-0.7-0.2-1.2c0-0.7,0.2-1.2,0.5-1.6c0.3-0.4,0.8-0.6,1.5-0.6c0.6,0,1.1,0.2,1.4,0.6C90,253.7,90.2,254.3,90.2,255z
			 M86.9,255c0,0.5,0.1,1,0.3,1.2c0.2,0.3,0.5,0.4,1,0.4c0.4,0,0.7-0.1,1-0.4c0.2-0.3,0.3-0.7,0.3-1.3c0-0.5-0.1-1-0.3-1.2
			c-0.2-0.3-0.5-0.4-1-0.4c-0.4,0-0.7,0.1-1,0.4C87,254,86.9,254.4,86.9,255z"/>
		<path class="st4" d="M94.2,257.1v-2.8c0-0.3-0.1-0.6-0.2-0.8c-0.2-0.2-0.4-0.3-0.7-0.3c-0.4,0-0.8,0.1-1,0.4
			c-0.2,0.2-0.3,0.6-0.3,1.2v2.2h-0.6v-4.3h0.5l0.1,0.6l0,0c0.1-0.2,0.3-0.4,0.6-0.5c0.2-0.1,0.5-0.2,0.8-0.2c0.5,0,0.9,0.1,1.2,0.4
			c0.3,0.2,0.4,0.6,0.4,1.2v2.8h-0.8V257.1z"/>
		<path class="st4" d="M97.6,256.6c0.1,0,0.2,0,0.3,0s0.2,0,0.3-0.1v0.5c-0.1,0-0.2,0.1-0.3,0.1s-0.3,0-0.4,0
			c-0.8,0-1.2-0.4-1.2-1.3v-2.5h-0.6V253l0.6-0.3l0.3-0.9H97v1h1.2v0.5H97v2.5c0,0.3,0.1,0.5,0.2,0.6
			C97.2,256.6,97.4,256.6,97.6,256.6z"/>
		<path class="st4" d="M99,251.7c0-0.1,0-0.3,0.1-0.3c0.1-0.1,0.2-0.1,0.3-0.1s0.2,0,0.3,0.1s0.1,0.2,0.1,0.3s0,0.3-0.1,0.3
			c-0.1,0.1-0.2,0.1-0.3,0.1s-0.2,0-0.3-0.1S99,251.8,99,251.7z M99.7,257.1H99v-4.3h0.6L99.7,257.1L99.7,257.1z"/>
		<path class="st4" d="M104,257.1v-2.8c0-0.3-0.1-0.6-0.2-0.8c-0.2-0.2-0.4-0.3-0.7-0.3c-0.4,0-0.8,0.1-1,0.4
			c-0.2,0.2-0.3,0.6-0.3,1.2v2.2h-0.6v-4.3h0.5l0.1,0.6l0,0c0.1-0.2,0.3-0.4,0.6-0.5c0.2-0.1,0.5-0.2,0.8-0.2c0.5,0,0.9,0.1,1.2,0.4
			c0.3,0.2,0.4,0.6,0.4,1.2v2.8H104V257.1z"/>
		<path class="st4" d="M106.6,252.8v2.8c0,0.3,0.1,0.6,0.2,0.8c0.2,0.2,0.4,0.3,0.7,0.3c0.4,0,0.8-0.1,1-0.4
			c0.2-0.2,0.3-0.6,0.3-1.2v-2.2h0.6v4.3H109l-0.1-0.6l0,0c-0.1,0.2-0.3,0.4-0.6,0.5c-0.2,0.1-0.5,0.2-0.8,0.2
			c-0.5,0-0.9-0.1-1.2-0.4c-0.3-0.2-0.4-0.6-0.4-1.2v-2.8L106.6,252.8L106.6,252.8z"/>
		<path class="st4" d="M112.7,257.2c-0.6,0-1.1-0.2-1.5-0.6s-0.5-0.9-0.5-1.6c0-0.7,0.2-1.2,0.5-1.6s0.8-0.6,1.4-0.6
			c0.5,0,1,0.2,1.3,0.5c0.3,0.4,0.5,0.8,0.5,1.4v0.4h-2.9c0,0.5,0.1,0.9,0.4,1.1c0.2,0.3,0.6,0.4,1,0.4c0.5,0,0.9-0.1,1.4-0.3v0.6
			c-0.2,0.1-0.4,0.2-0.7,0.2C113.2,257.2,113,257.2,112.7,257.2z M112.5,253.3c-0.3,0-0.6,0.1-0.8,0.3c-0.2,0.2-0.3,0.5-0.4,0.9h2.2
			c0-0.4-0.1-0.7-0.3-0.9C113.1,253.4,112.9,253.3,112.5,253.3z"/>
	</g>
</g>
<g id="line3" >
	<line id="Line_2_" class="st13" x1="59.2" y1="222.3" x2="135.2" y2="222.3"/>
</g>
<g id="line2" >
	<line id="Line_4_" class="st13" x1="59.2" y1="199.3" x2="135.2" y2="199.3"/>
</g>
<g id="line1" >
	<line id="Line" class="st13" x1="59.2" y1="176.3" x2="135.2" y2="176.3"/>
</g>
<g id="txt1" class="st9">
	<g>
		<path d="M62.4,210.5H60v-4.3h2.4v0.6h-1.7v1.2h1.6v0.6h-1.6v1.3h1.7V210.5z"/>
		<path d="M64,208.8l-1.1-1.6h0.8l0.7,1.1l0.7-1.1h0.8l-1.1,1.6l1.1,1.7h-0.8l-0.8-1.2l-0.8,1.2h-0.8L64,208.8z"/>
		<path d="M67.8,210c0.2,0,0.3,0,0.5-0.1v0.5c-0.1,0-0.2,0.1-0.3,0.1c-0.1,0-0.2,0-0.4,0c-0.7,0-1-0.3-1-1v-1.7h-0.4v-0.3l0.5-0.3
			l0.2-0.7h0.4v0.7h0.9v0.5h-0.9v1.7c0,0.2,0,0.3,0.1,0.4C67.5,209.9,67.6,210,67.8,210z"/>
		<path d="M70.6,207.2c0.1,0,0.3,0,0.3,0l-0.1,0.6c-0.1,0-0.2,0-0.3,0c-0.3,0-0.5,0.1-0.7,0.3c-0.2,0.2-0.3,0.4-0.3,0.7v1.7h-0.7
			v-3.2h0.5l0.1,0.6h0c0.1-0.2,0.2-0.3,0.4-0.5C70.2,207.2,70.4,207.2,70.6,207.2z"/>
		<path d="M73.5,210.5l-0.1-0.5h0c-0.2,0.2-0.3,0.3-0.5,0.4c-0.2,0.1-0.4,0.1-0.6,0.1c-0.3,0-0.6-0.1-0.7-0.3
			c-0.2-0.2-0.3-0.4-0.3-0.7c0-0.3,0.1-0.6,0.4-0.8s0.6-0.3,1.1-0.3l0.6,0v-0.2c0-0.2,0-0.4-0.1-0.5c-0.1-0.1-0.2-0.2-0.4-0.2
			c-0.2,0-0.3,0-0.5,0.1s-0.3,0.1-0.4,0.2l-0.2-0.5c0.2-0.1,0.4-0.2,0.6-0.2s0.4-0.1,0.6-0.1c0.4,0,0.7,0.1,0.9,0.3
			c0.2,0.2,0.3,0.5,0.3,0.8v2.2H73.5z M72.5,210c0.2,0,0.5-0.1,0.6-0.2s0.2-0.3,0.2-0.6v-0.3l-0.4,0c-0.3,0-0.6,0.1-0.7,0.2
			c-0.1,0.1-0.2,0.2-0.2,0.4c0,0.1,0,0.3,0.1,0.3C72.2,209.9,72.3,210,72.5,210z"/>
		<path d="M76.3,210.5c-0.5,0-0.9-0.1-1.1-0.4c-0.3-0.3-0.4-0.7-0.4-1.2c0-0.5,0.1-1,0.4-1.3c0.3-0.3,0.7-0.4,1.2-0.4
			c0.3,0,0.6,0.1,0.9,0.2l-0.2,0.6c-0.3-0.1-0.5-0.2-0.7-0.2c-0.6,0-0.8,0.4-0.8,1.1c0,0.4,0.1,0.6,0.2,0.8s0.3,0.3,0.6,0.3
			c0.3,0,0.6-0.1,0.9-0.2v0.6c-0.1,0.1-0.3,0.1-0.4,0.2S76.5,210.5,76.3,210.5z"/>
		<path d="M79.2,210c0.2,0,0.3,0,0.5-0.1v0.5c-0.1,0-0.2,0.1-0.3,0.1c-0.1,0-0.2,0-0.4,0c-0.7,0-1-0.3-1-1v-1.7h-0.4v-0.3l0.5-0.3
			l0.2-0.7h0.4v0.7h0.9v0.5h-0.9v1.7c0,0.2,0,0.3,0.1,0.4C78.9,209.9,79,210,79.2,210z"/>
		<path d="M80.3,206.4c0-0.1,0-0.2,0.1-0.3c0.1-0.1,0.2-0.1,0.3-0.1c0.1,0,0.2,0,0.3,0.1c0.1,0.1,0.1,0.2,0.1,0.3
			c0,0.1,0,0.2-0.1,0.3c-0.1,0.1-0.2,0.1-0.3,0.1c-0.1,0-0.2,0-0.3-0.1C80.3,206.6,80.3,206.5,80.3,206.4z M81,210.5h-0.7v-3.2H81
			V210.5z"/>
		<path d="M84.8,210.5h-0.7v-2c0-0.2-0.1-0.4-0.2-0.6s-0.3-0.2-0.5-0.2c-0.3,0-0.5,0.1-0.6,0.3s-0.2,0.5-0.2,0.9v1.6H82v-3.2h0.5
			l0.1,0.4h0c0.1-0.2,0.2-0.3,0.4-0.4s0.4-0.1,0.6-0.1c0.8,0,1.2,0.4,1.2,1.2V210.5z"/>
		<path d="M88.5,207.2v0.4l-0.6,0.1c0.1,0.1,0.1,0.2,0.1,0.3s0,0.2,0,0.3c0,0.3-0.1,0.6-0.3,0.8s-0.5,0.3-1,0.3c-0.1,0-0.2,0-0.3,0
			c-0.1,0.1-0.2,0.2-0.2,0.3c0,0.1,0,0.1,0.1,0.2s0.2,0.1,0.4,0.1h0.6c0.4,0,0.6,0.1,0.8,0.2s0.3,0.4,0.3,0.7c0,0.4-0.2,0.7-0.5,0.8
			s-0.7,0.3-1.3,0.3c-0.4,0-0.8-0.1-1-0.2s-0.3-0.4-0.3-0.7c0-0.2,0.1-0.4,0.2-0.5c0.1-0.1,0.3-0.2,0.5-0.3c-0.1,0-0.2-0.1-0.2-0.2
			c-0.1-0.1-0.1-0.2-0.1-0.3c0-0.1,0-0.2,0.1-0.3s0.2-0.2,0.3-0.2c-0.2-0.1-0.3-0.2-0.4-0.4c-0.1-0.2-0.2-0.4-0.2-0.6
			c0-0.4,0.1-0.6,0.3-0.8s0.5-0.3,0.9-0.3c0.1,0,0.2,0,0.3,0s0.2,0,0.2,0H88.5z M86,211c0,0.1,0.1,0.3,0.2,0.3s0.3,0.1,0.6,0.1
			c0.4,0,0.7-0.1,0.8-0.2s0.3-0.2,0.3-0.4c0-0.1-0.1-0.2-0.2-0.3c-0.1-0.1-0.3-0.1-0.6-0.1h-0.5c-0.2,0-0.4,0-0.5,0.1
			C86,210.7,86,210.8,86,211z M86.3,208.3c0,0.2,0.1,0.4,0.2,0.5s0.3,0.2,0.5,0.2c0.4,0,0.6-0.2,0.6-0.6c0-0.2,0-0.4-0.1-0.5
			c-0.1-0.1-0.2-0.2-0.5-0.2c-0.2,0-0.4,0.1-0.5,0.2C86.3,207.9,86.3,208,86.3,208.3z"/>
		<path d="M94.2,208.3c0,0.7-0.2,1.2-0.6,1.6s-1,0.6-1.7,0.6h-1.2v-4.3h1.3c0.7,0,1.2,0.2,1.6,0.6S94.2,207.6,94.2,208.3z
			 M93.5,208.3c0-1-0.5-1.5-1.4-1.5h-0.6v3.1H92C93,209.9,93.5,209.3,93.5,208.3z"/>
		<path d="M98,208.8c0,0.5-0.1,0.9-0.4,1.2s-0.6,0.4-1.1,0.4c-0.3,0-0.6-0.1-0.8-0.2s-0.4-0.3-0.5-0.6s-0.2-0.6-0.2-0.9
			c0-0.5,0.1-0.9,0.4-1.2s0.6-0.4,1.1-0.4c0.5,0,0.8,0.2,1.1,0.5C97.8,207.9,98,208.3,98,208.8z M95.6,208.8c0,0.7,0.3,1.1,0.8,1.1
			c0.5,0,0.8-0.4,0.8-1.1c0-0.7-0.3-1.1-0.8-1.1c-0.3,0-0.5,0.1-0.6,0.3C95.7,208.2,95.6,208.5,95.6,208.8z"/>
		<path d="M100.1,210.5c-0.5,0-0.9-0.1-1.1-0.4c-0.3-0.3-0.4-0.7-0.4-1.2c0-0.5,0.1-1,0.4-1.3c0.3-0.3,0.7-0.4,1.2-0.4
			c0.3,0,0.6,0.1,0.9,0.2l-0.2,0.6c-0.3-0.1-0.5-0.2-0.7-0.2c-0.6,0-0.8,0.4-0.8,1.1c0,0.4,0.1,0.6,0.2,0.8s0.3,0.3,0.6,0.3
			c0.3,0,0.6-0.1,0.9-0.2v0.6c-0.1,0.1-0.3,0.1-0.4,0.2S100.3,210.5,100.1,210.5z"/>
		<path d="M104,210.5l-0.1-0.4h0c-0.1,0.2-0.2,0.3-0.4,0.4s-0.4,0.1-0.6,0.1c-0.4,0-0.7-0.1-0.9-0.3s-0.3-0.5-0.3-0.9v-2.1h0.7v2
			c0,0.2,0.1,0.4,0.2,0.6s0.3,0.2,0.5,0.2c0.3,0,0.5-0.1,0.6-0.3c0.1-0.2,0.2-0.5,0.2-0.9v-1.6h0.7v3.2H104z"/>
		<path d="M108.3,210.5h-0.7v-2c0-0.2,0-0.4-0.1-0.6s-0.2-0.2-0.4-0.2c-0.3,0-0.5,0.1-0.6,0.3c-0.1,0.2-0.2,0.5-0.2,0.9v1.6h-0.7
			v-3.2h0.5l0.1,0.4h0c0.1-0.2,0.2-0.3,0.4-0.4c0.2-0.1,0.4-0.1,0.6-0.1c0.5,0,0.8,0.2,1,0.5h0c0.1-0.2,0.2-0.3,0.4-0.4
			s0.4-0.1,0.6-0.1c0.4,0,0.7,0.1,0.8,0.3s0.3,0.5,0.3,0.9v2.1h-0.7v-2c0-0.2,0-0.4-0.1-0.6c-0.1-0.1-0.2-0.2-0.4-0.2
			c-0.3,0-0.5,0.1-0.6,0.2c-0.1,0.2-0.2,0.4-0.2,0.8V210.5z"/>
		<path d="M112.7,210.5c-0.5,0-0.9-0.1-1.2-0.4c-0.3-0.3-0.4-0.7-0.4-1.2c0-0.5,0.1-0.9,0.4-1.2s0.6-0.5,1.1-0.5
			c0.4,0,0.8,0.1,1,0.4s0.4,0.6,0.4,1.1v0.4h-2.2c0,0.3,0.1,0.6,0.3,0.7c0.2,0.2,0.4,0.3,0.7,0.3c0.2,0,0.4,0,0.5-0.1
			c0.2,0,0.3-0.1,0.5-0.2v0.6c-0.2,0.1-0.3,0.1-0.5,0.2S112.9,210.5,112.7,210.5z M112.6,207.7c-0.2,0-0.4,0.1-0.5,0.2
			c-0.1,0.1-0.2,0.3-0.2,0.6h1.5c0-0.3-0.1-0.5-0.2-0.6C113,207.7,112.8,207.7,112.6,207.7z"/>
		<path d="M117.6,210.5h-0.7v-2c0-0.2-0.1-0.4-0.2-0.6s-0.3-0.2-0.5-0.2c-0.3,0-0.5,0.1-0.6,0.3s-0.2,0.5-0.2,0.9v1.6h-0.7v-3.2h0.5
			l0.1,0.4h0c0.1-0.2,0.2-0.3,0.4-0.4s0.4-0.1,0.6-0.1c0.8,0,1.2,0.4,1.2,1.2V210.5z"/>
		<path d="M119.7,210c0.2,0,0.3,0,0.5-0.1v0.5c-0.1,0-0.2,0.1-0.3,0.1c-0.1,0-0.2,0-0.4,0c-0.7,0-1-0.3-1-1v-1.7h-0.4v-0.3l0.5-0.3
			l0.2-0.7h0.4v0.7h0.9v0.5h-0.9v1.7c0,0.2,0,0.3,0.1,0.4C119.5,209.9,119.6,210,119.7,210z"/>
		<path d="M126,208.3c0,0.7-0.2,1.2-0.6,1.6s-1,0.6-1.7,0.6h-1.2v-4.3h1.3c0.7,0,1.2,0.2,1.6,0.6S126,207.6,126,208.3z M125.3,208.3
			c0-1-0.5-1.5-1.4-1.5h-0.6v3.1h0.5C124.8,209.9,125.3,209.3,125.3,208.3z"/>
		<path d="M128.9,210.5l-0.1-0.5h0c-0.2,0.2-0.3,0.3-0.5,0.4c-0.2,0.1-0.4,0.1-0.6,0.1c-0.3,0-0.6-0.1-0.7-0.3
			c-0.2-0.2-0.3-0.4-0.3-0.7c0-0.3,0.1-0.6,0.4-0.8s0.6-0.3,1.1-0.3l0.6,0v-0.2c0-0.2,0-0.4-0.1-0.5c-0.1-0.1-0.2-0.2-0.4-0.2
			c-0.2,0-0.3,0-0.5,0.1s-0.3,0.1-0.4,0.2l-0.2-0.5c0.2-0.1,0.4-0.2,0.6-0.2s0.4-0.1,0.6-0.1c0.4,0,0.7,0.1,0.9,0.3
			c0.2,0.2,0.3,0.5,0.3,0.8v2.2H128.9z M127.9,210c0.2,0,0.5-0.1,0.6-0.2s0.2-0.3,0.2-0.6v-0.3l-0.4,0c-0.3,0-0.6,0.1-0.7,0.2
			c-0.1,0.1-0.2,0.2-0.2,0.4c0,0.1,0,0.3,0.1,0.3C127.6,209.9,127.7,210,127.9,210z"/>
		<path d="M131.5,210c0.2,0,0.3,0,0.5-0.1v0.5c-0.1,0-0.2,0.1-0.3,0.1c-0.1,0-0.2,0-0.4,0c-0.7,0-1-0.3-1-1v-1.7H130v-0.3l0.5-0.3
			l0.2-0.7h0.4v0.7h0.9v0.5h-0.9v1.7c0,0.2,0,0.3,0.1,0.4C131.3,209.9,131.4,210,131.5,210z"/>
		<path d="M134.7,210.5l-0.1-0.5h0c-0.2,0.2-0.3,0.3-0.5,0.4c-0.2,0.1-0.4,0.1-0.6,0.1c-0.3,0-0.6-0.1-0.7-0.3
			c-0.2-0.2-0.3-0.4-0.3-0.7c0-0.3,0.1-0.6,0.4-0.8s0.6-0.3,1.1-0.3l0.6,0v-0.2c0-0.2,0-0.4-0.1-0.5c-0.1-0.1-0.2-0.2-0.4-0.2
			c-0.2,0-0.3,0-0.5,0.1s-0.3,0.1-0.4,0.2l-0.2-0.5c0.2-0.1,0.4-0.2,0.6-0.2s0.4-0.1,0.6-0.1c0.4,0,0.7,0.1,0.9,0.3
			c0.2,0.2,0.3,0.5,0.3,0.8v2.2H134.7z M133.7,210c0.2,0,0.5-0.1,0.6-0.2s0.2-0.3,0.2-0.6v-0.3l-0.4,0c-0.3,0-0.6,0.1-0.7,0.2
			c-0.1,0.1-0.2,0.2-0.2,0.4c0,0.1,0,0.3,0.1,0.3C133.4,209.9,133.5,210,133.7,210z"/>
	</g>
</g>
<g id="txt2" class="st9">
	<g>
		<path d="M58.2,210h-0.7v-3.7h-1.3v-0.6h3.2v0.6h-1.3V210z"/>
		<path d="M61.6,206.7c0.1,0,0.3,0,0.3,0l-0.1,0.6c-0.1,0-0.2,0-0.3,0c-0.3,0-0.5,0.1-0.7,0.3s-0.3,0.4-0.3,0.7v1.7H60v-3.2h0.5
			l0.1,0.6h0c0.1-0.2,0.2-0.3,0.4-0.5S61.4,206.7,61.6,206.7z"/>
		<path d="M64.6,210l-0.1-0.5h0c-0.2,0.2-0.3,0.3-0.5,0.4c-0.2,0.1-0.4,0.1-0.6,0.1c-0.3,0-0.6-0.1-0.7-0.3s-0.3-0.4-0.3-0.7
			c0-0.3,0.1-0.6,0.4-0.8s0.6-0.3,1.1-0.3l0.6,0v-0.2c0-0.2,0-0.4-0.1-0.5c-0.1-0.1-0.2-0.2-0.4-0.2c-0.2,0-0.3,0-0.5,0.1
			c-0.2,0-0.3,0.1-0.4,0.2l-0.2-0.5c0.2-0.1,0.4-0.2,0.6-0.2c0.2,0,0.4-0.1,0.6-0.1c0.4,0,0.7,0.1,0.9,0.3c0.2,0.2,0.3,0.5,0.3,0.8
			v2.2H64.6z M63.6,209.5c0.2,0,0.5-0.1,0.6-0.2c0.2-0.1,0.2-0.3,0.2-0.6v-0.3l-0.4,0c-0.3,0-0.6,0.1-0.7,0.2
			c-0.1,0.1-0.2,0.2-0.2,0.4c0,0.1,0,0.3,0.1,0.3C63.3,209.5,63.4,209.5,63.6,209.5z"/>
		<path d="M68.9,210h-0.7v-2c0-0.2-0.1-0.4-0.2-0.6s-0.3-0.2-0.5-0.2c-0.3,0-0.5,0.1-0.6,0.3s-0.2,0.5-0.2,0.9v1.6h-0.7v-3.2h0.5
			l0.1,0.4h0c0.1-0.2,0.2-0.3,0.4-0.4s0.4-0.1,0.6-0.1c0.8,0,1.2,0.4,1.2,1.2V210z"/>
		<path d="M72.1,209.1c0,0.3-0.1,0.6-0.3,0.7c-0.2,0.2-0.6,0.3-1,0.3c-0.4,0-0.8-0.1-1-0.2v-0.6c0.4,0.2,0.7,0.3,1.1,0.3
			c0.4,0,0.6-0.1,0.6-0.4c0-0.1,0-0.2-0.1-0.2s-0.1-0.1-0.2-0.2s-0.3-0.1-0.4-0.2c-0.4-0.1-0.6-0.3-0.8-0.4
			c-0.1-0.1-0.2-0.3-0.2-0.6c0-0.3,0.1-0.5,0.3-0.6c0.2-0.2,0.5-0.2,0.9-0.2c0.4,0,0.7,0.1,1.1,0.2l-0.2,0.5
			c-0.3-0.1-0.6-0.2-0.9-0.2c-0.4,0-0.5,0.1-0.5,0.3c0,0.1,0,0.2,0.1,0.3c0.1,0.1,0.3,0.2,0.6,0.3c0.3,0.1,0.5,0.2,0.6,0.3
			s0.2,0.2,0.3,0.3C72,208.8,72.1,208.9,72.1,209.1z"/>
		<path d="M74.4,207.3h-0.8v2.7h-0.7v-2.7h-0.5V207l0.5-0.2v-0.2c0-0.4,0.1-0.7,0.3-0.9c0.2-0.2,0.5-0.3,0.8-0.3
			c0.2,0,0.5,0,0.7,0.1l-0.2,0.5c-0.2-0.1-0.3-0.1-0.5-0.1c-0.2,0-0.3,0-0.3,0.1c-0.1,0.1-0.1,0.2-0.1,0.4v0.2h0.8V207.3z"/>
		<path d="M76.4,210.1c-0.5,0-0.9-0.1-1.2-0.4c-0.3-0.3-0.4-0.7-0.4-1.2c0-0.5,0.1-0.9,0.4-1.2s0.6-0.5,1.1-0.5c0.4,0,0.8,0.1,1,0.4
			s0.4,0.6,0.4,1.1v0.4h-2.2c0,0.3,0.1,0.6,0.3,0.7c0.2,0.2,0.4,0.3,0.7,0.3c0.2,0,0.4,0,0.5-0.1c0.2,0,0.3-0.1,0.5-0.2v0.6
			c-0.2,0.1-0.3,0.1-0.5,0.2S76.6,210.1,76.4,210.1z M76.3,207.2c-0.2,0-0.4,0.1-0.5,0.2c-0.1,0.1-0.2,0.3-0.2,0.6H77
			c0-0.3-0.1-0.5-0.2-0.6C76.7,207.3,76.5,207.2,76.3,207.2z"/>
		<path d="M80.1,206.7c0.1,0,0.3,0,0.3,0l-0.1,0.6c-0.1,0-0.2,0-0.3,0c-0.3,0-0.5,0.1-0.7,0.3c-0.2,0.2-0.3,0.4-0.3,0.7v1.7h-0.7
			v-3.2H79l0.1,0.6h0c0.1-0.2,0.2-0.3,0.4-0.5C79.7,206.8,79.9,206.7,80.1,206.7z"/>
		<path d="M82.7,206.7c0.1,0,0.3,0,0.3,0l-0.1,0.6c-0.1,0-0.2,0-0.3,0c-0.3,0-0.5,0.1-0.7,0.3c-0.2,0.2-0.3,0.4-0.3,0.7v1.7H81v-3.2
			h0.5l0.1,0.6h0c0.1-0.2,0.2-0.3,0.4-0.5C82.3,206.8,82.5,206.7,82.7,206.7z"/>
		<path d="M83.6,205.9c0-0.1,0-0.2,0.1-0.3c0.1-0.1,0.2-0.1,0.3-0.1c0.1,0,0.2,0,0.3,0.1c0.1,0.1,0.1,0.2,0.1,0.3
			c0,0.1,0,0.2-0.1,0.3c-0.1,0.1-0.2,0.1-0.3,0.1c-0.1,0-0.2,0-0.3-0.1C83.6,206.1,83.6,206,83.6,205.9z M84.3,210h-0.7v-3.2h0.7
			V210z"/>
		<path d="M88.1,210h-0.7v-2c0-0.2-0.1-0.4-0.2-0.6s-0.3-0.2-0.5-0.2c-0.3,0-0.5,0.1-0.6,0.3S86,208,86,208.4v1.6h-0.7v-3.2h0.5
			l0.1,0.4h0c0.1-0.2,0.2-0.3,0.4-0.4s0.4-0.1,0.6-0.1c0.8,0,1.2,0.4,1.2,1.2V210z"/>
		<path d="M91.8,206.8v0.4l-0.6,0.1c0.1,0.1,0.1,0.2,0.1,0.3s0,0.2,0,0.3c0,0.3-0.1,0.6-0.3,0.8s-0.5,0.3-1,0.3c-0.1,0-0.2,0-0.3,0
			c-0.1,0.1-0.2,0.2-0.2,0.3c0,0.1,0,0.1,0.1,0.2s0.2,0.1,0.4,0.1h0.6c0.4,0,0.6,0.1,0.8,0.2s0.3,0.4,0.3,0.7c0,0.4-0.2,0.7-0.5,0.8
			s-0.7,0.3-1.3,0.3c-0.4,0-0.8-0.1-1-0.2s-0.3-0.4-0.3-0.7c0-0.2,0.1-0.4,0.2-0.5c0.1-0.1,0.3-0.2,0.5-0.3c-0.1,0-0.2-0.1-0.2-0.2
			c-0.1-0.1-0.1-0.2-0.1-0.3c0-0.1,0-0.2,0.1-0.3s0.2-0.2,0.3-0.2c-0.2-0.1-0.3-0.2-0.4-0.4c-0.1-0.2-0.2-0.4-0.2-0.6
			c0-0.4,0.1-0.6,0.3-0.8s0.5-0.3,0.9-0.3c0.1,0,0.2,0,0.3,0s0.2,0,0.2,0H91.8z M89.3,210.5c0,0.1,0.1,0.3,0.2,0.3s0.3,0.1,0.6,0.1
			c0.4,0,0.7-0.1,0.8-0.2s0.3-0.2,0.3-0.4c0-0.1-0.1-0.2-0.2-0.3c-0.1-0.1-0.3-0.1-0.6-0.1h-0.5c-0.2,0-0.4,0-0.5,0.1
			C89.3,210.2,89.3,210.4,89.3,210.5z M89.6,207.8c0,0.2,0.1,0.4,0.2,0.5s0.3,0.2,0.5,0.2c0.4,0,0.6-0.2,0.6-0.6
			c0-0.2,0-0.4-0.1-0.5c-0.1-0.1-0.2-0.2-0.5-0.2c-0.2,0-0.4,0.1-0.5,0.2C89.6,207.4,89.6,207.6,89.6,207.8z"/>
		<path d="M97.5,207.8c0,0.7-0.2,1.2-0.6,1.6s-1,0.6-1.7,0.6h-1.2v-4.3h1.3c0.7,0,1.2,0.2,1.6,0.6S97.5,207.2,97.5,207.8z
			 M96.8,207.8c0-1-0.5-1.5-1.4-1.5h-0.6v3.1h0.5C96.3,209.4,96.8,208.9,96.8,207.8z"/>
		<path d="M101.3,208.4c0,0.5-0.1,0.9-0.4,1.2s-0.6,0.4-1.1,0.4c-0.3,0-0.6-0.1-0.8-0.2s-0.4-0.3-0.5-0.6s-0.2-0.6-0.2-0.9
			c0-0.5,0.1-0.9,0.4-1.2s0.6-0.4,1.1-0.4c0.5,0,0.8,0.2,1.1,0.5C101.1,207.5,101.3,207.9,101.3,208.4z M98.9,208.4
			c0,0.7,0.3,1.1,0.8,1.1c0.5,0,0.8-0.4,0.8-1.1c0-0.7-0.3-1.1-0.8-1.1c-0.3,0-0.5,0.1-0.6,0.3C99,207.8,98.9,208,98.9,208.4z"/>
		<path d="M103.4,210.1c-0.5,0-0.9-0.1-1.1-0.4c-0.3-0.3-0.4-0.7-0.4-1.2c0-0.5,0.1-1,0.4-1.3c0.3-0.3,0.7-0.4,1.2-0.4
			c0.3,0,0.6,0.1,0.9,0.2l-0.2,0.6c-0.3-0.1-0.5-0.2-0.7-0.2c-0.6,0-0.8,0.4-0.8,1.1c0,0.4,0.1,0.6,0.2,0.8s0.3,0.3,0.6,0.3
			c0.3,0,0.6-0.1,0.9-0.2v0.6c-0.1,0.1-0.3,0.1-0.4,0.2S103.6,210.1,103.4,210.1z"/>
		<path d="M107.3,210l-0.1-0.4h0c-0.1,0.2-0.2,0.3-0.4,0.4s-0.4,0.1-0.6,0.1c-0.4,0-0.7-0.1-0.9-0.3s-0.3-0.5-0.3-0.9v-2.1h0.7v2
			c0,0.2,0.1,0.4,0.2,0.6s0.3,0.2,0.5,0.2c0.3,0,0.5-0.1,0.6-0.3c0.1-0.2,0.2-0.5,0.2-0.9v-1.6h0.7v3.2H107.3z"/>
		<path d="M111.6,210h-0.7v-2c0-0.2,0-0.4-0.1-0.6s-0.2-0.2-0.4-0.2c-0.3,0-0.5,0.1-0.6,0.3c-0.1,0.2-0.2,0.5-0.2,0.9v1.6h-0.7v-3.2
			h0.5l0.1,0.4h0c0.1-0.2,0.2-0.3,0.4-0.4c0.2-0.1,0.4-0.1,0.6-0.1c0.5,0,0.8,0.2,1,0.5h0c0.1-0.2,0.2-0.3,0.4-0.4s0.4-0.1,0.6-0.1
			c0.4,0,0.7,0.1,0.8,0.3s0.3,0.5,0.3,0.9v2.1h-0.7v-2c0-0.2,0-0.4-0.1-0.6c-0.1-0.1-0.2-0.2-0.4-0.2c-0.3,0-0.5,0.1-0.6,0.2
			c-0.1,0.2-0.2,0.4-0.2,0.8V210z"/>
		<path d="M116,210.1c-0.5,0-0.9-0.1-1.2-0.4c-0.3-0.3-0.4-0.7-0.4-1.2c0-0.5,0.1-0.9,0.4-1.2s0.6-0.5,1.1-0.5c0.4,0,0.8,0.1,1,0.4
			s0.4,0.6,0.4,1.1v0.4h-2.2c0,0.3,0.1,0.6,0.3,0.7c0.2,0.2,0.4,0.3,0.7,0.3c0.2,0,0.4,0,0.5-0.1c0.2,0,0.3-0.1,0.5-0.2v0.6
			c-0.2,0.1-0.3,0.1-0.5,0.2S116.2,210.1,116,210.1z M115.9,207.2c-0.2,0-0.4,0.1-0.5,0.2c-0.1,0.1-0.2,0.3-0.2,0.6h1.5
			c0-0.3-0.1-0.5-0.2-0.6C116.2,207.3,116.1,207.2,115.9,207.2z"/>
		<path d="M120.9,210h-0.7v-2c0-0.2-0.1-0.4-0.2-0.6s-0.3-0.2-0.5-0.2c-0.3,0-0.5,0.1-0.6,0.3s-0.2,0.5-0.2,0.9v1.6H118v-3.2h0.5
			l0.1,0.4h0c0.1-0.2,0.2-0.3,0.4-0.4s0.4-0.1,0.6-0.1c0.8,0,1.2,0.4,1.2,1.2V210z"/>
		<path d="M123,209.5c0.2,0,0.3,0,0.5-0.1v0.5c-0.1,0-0.2,0.1-0.3,0.1c-0.1,0-0.2,0-0.4,0c-0.7,0-1-0.3-1-1v-1.7h-0.4V207l0.5-0.3
			l0.2-0.7h0.4v0.7h0.9v0.5h-0.9v1.7c0,0.2,0,0.3,0.1,0.4C122.8,209.5,122.9,209.5,123,209.5z"/>
		<path d="M129.3,207.8c0,0.7-0.2,1.2-0.6,1.6s-1,0.6-1.7,0.6h-1.2v-4.3h1.3c0.7,0,1.2,0.2,1.6,0.6S129.3,207.2,129.3,207.8z
			 M128.6,207.8c0-1-0.5-1.5-1.4-1.5h-0.6v3.1h0.5C128.1,209.4,128.6,208.9,128.6,207.8z"/>
		<path d="M132.2,210l-0.1-0.5h0c-0.2,0.2-0.3,0.3-0.5,0.4c-0.2,0.1-0.4,0.1-0.6,0.1c-0.3,0-0.6-0.1-0.7-0.3
			c-0.2-0.2-0.3-0.4-0.3-0.7c0-0.3,0.1-0.6,0.4-0.8s0.6-0.3,1.1-0.3l0.6,0v-0.2c0-0.2,0-0.4-0.1-0.5c-0.1-0.1-0.2-0.2-0.4-0.2
			c-0.2,0-0.3,0-0.5,0.1s-0.3,0.1-0.4,0.2l-0.2-0.5c0.2-0.1,0.4-0.2,0.6-0.2s0.4-0.1,0.6-0.1c0.4,0,0.7,0.1,0.9,0.3
			c0.2,0.2,0.3,0.5,0.3,0.8v2.2H132.2z M131.2,209.5c0.2,0,0.5-0.1,0.6-0.2s0.2-0.3,0.2-0.6v-0.3l-0.4,0c-0.3,0-0.6,0.1-0.7,0.2
			c-0.1,0.1-0.2,0.2-0.2,0.4c0,0.1,0,0.3,0.1,0.3C130.9,209.5,131,209.5,131.2,209.5z"/>
		<path d="M134.8,209.5c0.2,0,0.3,0,0.5-0.1v0.5c-0.1,0-0.2,0.1-0.3,0.1c-0.1,0-0.2,0-0.4,0c-0.7,0-1-0.3-1-1v-1.7h-0.4V207l0.5-0.3
			l0.2-0.7h0.4v0.7h0.9v0.5h-0.9v1.7c0,0.2,0,0.3,0.1,0.4C134.6,209.5,134.7,209.5,134.8,209.5z"/>
		<path d="M138,210l-0.1-0.5h0c-0.2,0.2-0.3,0.3-0.5,0.4c-0.2,0.1-0.4,0.1-0.6,0.1c-0.3,0-0.6-0.1-0.7-0.3c-0.2-0.2-0.3-0.4-0.3-0.7
			c0-0.3,0.1-0.6,0.4-0.8s0.6-0.3,1.1-0.3l0.6,0v-0.2c0-0.2,0-0.4-0.1-0.5c-0.1-0.1-0.2-0.2-0.4-0.2c-0.2,0-0.3,0-0.5,0.1
			s-0.3,0.1-0.4,0.2l-0.2-0.5c0.2-0.1,0.4-0.2,0.6-0.2s0.4-0.1,0.6-0.1c0.4,0,0.7,0.1,0.9,0.3c0.2,0.2,0.3,0.5,0.3,0.8v2.2H138z
			 M137,209.5c0.2,0,0.5-0.1,0.6-0.2s0.2-0.3,0.2-0.6v-0.3l-0.4,0c-0.3,0-0.6,0.1-0.7,0.2c-0.1,0.1-0.2,0.2-0.2,0.4
			c0,0.1,0,0.3,0.1,0.3C136.7,209.5,136.8,209.5,137,209.5z"/>
	</g>
</g>
</svg>
