<?xml version="1.0" encoding="utf-8"?>
<!-- Generator: Adobe Illustrator 24.0.2, SVG Export Plug-In . SVG Version: 6.00 Build 0)  -->
<svg version="1.1" id="Layer_3" xmlns="http://www.w3.org/2000/svg" xmlns:xlink="http://www.w3.org/1999/xlink" x="0px" y="0px"
	 viewBox="0 0 456 391.4" style="enable-background:new 0 0 456 391.4;" xml:space="preserve">
<style type="text/css">
	.st0{fill:#1D2C42;}
	.st1{fill:#FFFFFF;}
	.st2{fill:#101F41;}
	.st3{fill:none;stroke:#FFFFFF;stroke-width:4;stroke-miterlimit:10;}
	.st4{fill:none;stroke:#32B0FF;stroke-width:2;stroke-linecap:round;stroke-miterlimit:10;stroke-dasharray:10;}
	.st5{fill:none;stroke:#FFFFFF;stroke-width:4;stroke-linecap:round;stroke-linejoin:round;stroke-miterlimit:10;}
	.st6{fill:none;stroke:#FFFFFF;stroke-width:2;stroke-linecap:round;stroke-linejoin:round;stroke-miterlimit:10;}
	.st7{fill:none;stroke:#FFFFFF;stroke-width:2;stroke-linecap:round;stroke-linejoin:round;}
	.st8{fill:none;stroke:#FFFFFF;stroke-width:3;stroke-linecap:round;stroke-linejoin:round;stroke-miterlimit:10;}
	.st9{fill:none;stroke:#212E8D;stroke-width:3;stroke-miterlimit:10;}
	.st10{fill:none;stroke:#212E8D;stroke-width:3;stroke-linecap:round;stroke-linejoin:round;stroke-miterlimit:10;}
	.st11{fill:#1D2C42;stroke:#FFFFFF;stroke-width:4;stroke-linecap:round;stroke-linejoin:round;stroke-miterlimit:10;}
	.st12{fill:none;stroke:#FFFFFF;stroke-width:3;stroke-linecap:round;stroke-miterlimit:10;}
	.st13{fill:#212E8D;}
	.st14{fill:none;stroke:#212E8D;stroke-width:3;stroke-linecap:round;stroke-miterlimit:10;}
	.st15{opacity:0.24;fill:#858585;enable-background:new    ;}
	.st16{fill:#1D2C42;stroke:#FFFFFF;stroke-width:2;stroke-linecap:round;stroke-linejoin:round;stroke-miterlimit:10;}
	.st17{font-family:'Myriad-Roman';}
	.st18{font-size:7px;}
	.st19{fill:#FFFFFF;stroke:#212E8D;stroke-width:0.25;stroke-linecap:round;stroke-linejoin:round;stroke-miterlimit:10;}
	.st20{opacity:0.55;fill:url(#Path-64_1_);enable-background:new    ;}
	.st21{fill:#1D2C42;stroke:#FFFFFF;stroke-width:3;stroke-miterlimit:10;}
</style>
<g>
	<g>
		<g id="XMLID_84_">
			<g>
				<path class="st0" d="M25.7,147.8c4.5,14.8,9,29.6,13.5,44.4c0.5,1.6-1.9,2.3-2.4,0.7c-4.5-14.8-9-29.6-13.6-44.4
					C22.8,146.9,25.2,146.1,25.7,147.8z"/>
				<path class="st1" d="M36,193.6c-2-1.2-3.7-3.7-4.4-5.3c-1.6-3.9-2.3-7.4-3.2-10.5c-2.8-9.1-5.6-18.3-8.4-27.5
					c-0.9-3.2-1.6-7.6,3.5-7.1c3.9,0.3,4.1,4.3,4.9,7c2.8,9.2,5.6,18.3,8.4,27.4c1.8,6.1,3.7,12.1,5.5,18.1
					C40.3,195.2,38.4,195,36,193.6z M25.6,147.8c-0.5-1.7-2.8-0.9-2.4,0.7c4.5,14.8,9,29.6,13.6,44.4c0.5,1.7,2.8,0.9,2.4-0.7
					C34.7,177.4,30.2,162.6,25.6,147.8z"/>
				<path class="st0" d="M45.8,197.3c0.3,0.2,0.6,0.5,0.7,0.8c0,0.1,0.1,0.1,0.1,0.2c0.2,0.6,0,1.4-0.5,1.8l0,0
					c-0.9,0.6-2.3,0.5-2.7-0.9c-0.4-1.1-0.7-2.3-1.1-3.4C43.4,196,44.5,196.5,45.8,197.3z"/>
				<path class="st1" d="M28.4,150.2c-0.8-2.7-1-6.6-4.9-7c-5.2-0.4-4.5,4-3.5,7.1c2.8,9.1,5.6,18.3,8.4,27.5
					c1,3.1,1.7,6.6,3.2,10.5c0.6,1.6,2.3,4.1,4.4,5.3c2.5,1.4,6.4,1.6,8.5,2.1c2.8,1.9-1.4,2.2-1,3.4c0.4,1.4,1.9,1.5,2.7,0.9
					c-0.4,0.5-1,1.2-1.7,0.7c-2.9-1.8-3.2,1.8-6.1,0.1c-1.7-1-7.6-8.1-8.9-9.6c-0.7-0.7-0.8-1.5-1.1-2.5c-1.8-5.1-3.2-10.3-4.8-15.4
					c-2.6-8.5-6.3-17.3-8-26c-1-5,3.1-7.5,7.7-7.7c4.1-0.2,5.9,2.2,7.1,5.7c6.1,18.7,8.4,33.2,16.1,52.7c-0.1-0.3-0.3-0.6-0.7-0.8
					c-1.3-0.8-2.4-1.2-3.5-1.5c-1.8-6-3.7-12-5.5-18.1C34,168.5,31.2,159.4,28.4,150.2z"/>
				<path class="st2" d="M46.1,200.1c0.4-0.4,0.7-1.2,0.5-1.8c0,0,0,0,0,0C46.9,199.1,46.6,199.7,46.1,200.1z"/>
			</g>
		</g>
	</g>
	<path class="st3" d="M204.5,183.4l-31.6,17.4c-5.1,2.7-93-5.2-93-5.2s-7.6-20.7-17.2-22.6c-7.6-1.5-8.9-9.4-14.6-16.2
		c-1.6-1.8-13.6-13.3-13.6-13.3s-5,2.2-2.4,11c5.4,18.2,5.4,16.7,3.8,12.6"/>
	<g id="lines">
		<line id="line5" class="st4" x1="35" y1="138.6" x2="264.2" y2="76.7"/>
		<line id="line4" class="st4" x1="36.8" y1="148" x2="273.4" y2="110.9"/>
		<line id="line3" class="st4" x1="38.6" y1="159.1" x2="286.1" y2="142.4"/>
		<line id="line2" class="st4" x1="40.3" y1="169.8" x2="286.1" y2="174.5"/>
		<line id="line1" class="st4" x1="42.7" y1="181.4" x2="291" y2="201.9"/>
	</g>
	<path class="st5" d="M419.5,137.9c3.1,8-1.1,20.5-1.1,20.5s-5.5,3.7-6.6,8.4c-2.8,11.5-3.1,11.4-2.8,15.2c0.5,6.3,5,16,6.6,28.6
		c1.2,9.5,1.8,13.1,4.5,27.1c3.4,17.9,26.6,60.5,10.5,84.3"/>
	<path class="st6" d="M48.3,185.1c4.5,0.5,8.5,3.9,9.6,8.3"/>
	<path class="st6" d="M75.2,197c-1.7,2-2.6,3.6-2.9,6.4"/>
	<g>
		<g id="XMLID_3_">
			<g>
				<path class="st1" d="M47,196.8c-0.7-1.4-3-1.7-3-1.1c0,0.5,0,0.9-0.1,1.4c0.2,0.4,0.3,0.9,0.4,1.3c0.7,2.2,3.3,1.1,2.9-0.8
					l0-0.1c0-0.1,0-0.2-0.1-0.3l0-0.1c0,0,0,0,0-0.1C47,197,47,196.9,47,196.8z"/>
				<path class="st1" d="M31.8,193.6c0.7,2,2.9,8.6,3.1,8.8c3.6,4,9.8,2.9,12-2.1c0.4-0.8,0.4-1.9,0.2-2.7c0.3,1.9-2.2,3-2.9,0.8
					c-0.2-0.4-0.3-0.9-0.4-1.3c-0.5,3.2-3.2,4.8-6.3,3.1c-0.8-0.5-2-5.5-2.8-7.9"/>
				<path class="st1" d="M33.1,187.7c-1.6-4-2.5-7.7-3.5-10.9c-3.1-9.6-6.1-19-9.2-28.6c-1.1-3.3-2-7.9,2.7-7.9
					c3.5,0,3.9,4.2,4.8,7.1c0.3,1,1.4,4.1,1.7,5l2.5-1.9c-0.8-2.7-1.7-5.6-2.7-8.4c-1.2-3.6-3-6-6.7-5.5c-4.1,0.6-7.6,3.6-6.5,8.8
					c1.9,9,5.8,18.2,8.6,27c1.7,5.3,3.3,10.8,5.2,16.1"/>
				<path class="st1" d="M33,163.1c1.4,4.3,2.7,8.5,4.1,12.8c2.3,7,4.5,14.1,6.8,21.1c0.1-0.5,0.1-1,0.1-1.4c-0.1-0.6,2.3-0.3,3,1.1
					c0,0.1,0.1,0.2,0.1,0.3c-4.6-11.6-7.6-21.6-10.5-31.6L33,163.1z"/>
				<path class="st1" d="M47.2,197.3c0,0.1,0,0.2,0.1,0.3C47.2,197.4,47.2,197.3,47.2,197.3z"/>
				<path class="st1" d="M47.2,197.5L47.2,197.5L47.2,197.5z"/>
			</g>
		</g>
	</g>
	<g id="XMLID_2_">
		<g>
			<path class="st1" d="M278.7,76.2c-2.1,0-3.8,1.7-3.8,3.8s1.7,3.8,3.8,3.8s3.8-1.7,3.8-3.8S280.8,76.2,278.7,76.2z"/>
			<path class="st1" d="M278.4,71.7c4.8,0.3,6.1,1,8.6,1.7c0.3,0.1,1.4-0.4,0.9-1.3c-1.9-3.3-10.5-4.3-14.6-3.8c0,0-4.1,0.5-5.2,1.4
				c-0.7,0.5-0.6,2.4,0.5,3.3C270.4,74.6,273.3,71.4,278.4,71.7z"/>
			<path class="st1" d="M298.8,72.4c-0.6,0.8,0.6,1.4,0.8,1.4c2.6-0.5,4-1.2,8.7-1.1c5.1,0.1,7.7,3.4,9.7,1.9
				c1.1-0.9,1.4-2.6,0.7-3.2c-1.1-0.9-5.1-1.7-5.1-1.7C309.6,68.8,300.9,69.3,298.8,72.4z"/>
			<path class="st1" d="M308.4,77.2c-2.1,0-3.8,1.7-3.8,3.8s1.7,3.8,3.8,3.8s3.7-1.7,3.8-3.8C312.1,78.9,310.5,77.2,308.4,77.2z"/>
		</g>
		<g>
			<path class="st7" d="M301.2,79.3c0,0,8.4-5.2,12.8,0.4"/>
			<path class="st7" d="M285.9,78.5c0,0-8.2-5.4-12.8,0"/>
		</g>
	</g>
	<path class="st8" d="M19.6,183.2c0.9,1.4,1.9,2.8,3.1,4"/>
	<path class="st9" d="M29.9,132.5"/>
	<path class="st10" d="M26,139.3"/>
	<path class="st11" d="M217.2,226.8c0,0-34.3,12.3-43.9,14.2c-7,1.4-81.2-16.9-105.8-26.3c-9.6-3.7-27.7,4.8-32.4,2.1
		s-18-16.5-18-16.5s4.9-11.1,7.8-12.5s12.9-4.5,12.9-4.5c0.4,7.5-4.2,8.1-7.1,9.5c0,0-8,4.2-4.7,15.5"/>
	<path class="st1" d="M371.6,45.8c-2-10.9-2.9-13.8-7.1-21.3c-15.9-28.4-55-21.3-73.8-17.9c-3.9,0.7-7.2,1.3-8.3,1.2
		c-3.9-0.5-5.3-2.8-6.4-4.7c-0.7-1.2-1.3-2.3-2.5-2.5c-0.7-0.2-1.4,0-2.1,0.5c-5.5,3.9-9.9,10.9-11.9,19.3
		c-1.6,6.7-2.5,17.3,2.3,30.5c1.6,4.3,3.9,9.5,6.3,10.1c-0.8,8.7-0.6,17.3,0.8,20c1,2.1,0.7,6.6,0.4,10.6c-0.3,4.5-0.6,8.8,0.6,11.3
		c1.1,2.3,2.4,5.4,3.8,8.8c4.1,9.7,8.7,20.8,12.5,24.6l0.1,0.1c0.2,0.2,3.7,3,10,3c3.2,0,7-0.7,11.6-2.8c0.8-0.3,1.1-1.2,0.7-2
		s-1.2-1.1-2-0.7c-11.5,5.3-17.8,0.7-18.4,0.2c-3.4-3.5-8.3-15.1-11.8-23.6c-1.4-3.4-2.8-6.6-3.8-8.9c-0.9-1.9-0.6-5.9-0.3-9.8
		c0.3-4.8,0.7-9.4-0.7-12.2c-2.3-4.5-0.4-32.7,4.2-37.6c0.5-0.5,0.7-0.4,0.9-0.4c17.5,7.5,31.7,5.4,41,4c4-0.6,7.5-1.1,8.6-0.2
		c2.8,2.3,4.2,6.9,5.6,11.2c1.4,4.4,2.7,8.6,5.4,10.8c0.7,0.6,0.8,1,0.7,1.3c-0.2,1.9-3.9,4.8-6.5,6.2l-0.6,0.3l-0.2,0.6
		c-2.1,8.4,0,13.7,0,13.8c0.3,0.8,0.9,1.4,1.7,1.5c2,0.3,5.3-2.8,9.9-9.1l0.1-0.2l0.1-0.2c1-2.5,3-6.6,5.6-6.1
		c2,0.4,3.5,2.9,3.5,3.6c0,4.1-2.9,5.4-5.9,6.8c-2,0.9-3.9,1.8-4.9,3.4c-2.2,3.8-1.5,6.6-0.9,9c0.3,1.2,0.7,2.4,0.7,3.8
		c0,2.8-0.7,5.8-1.2,7.9c-0.6,2.6-0.9,3.9,0.3,4.7c0.5,0.3,1.3,0.5,2.4-0.4c12.5-10.7,28-27.8,31.1-48.3
		C375,54.5,372.1,47.1,371.6,45.8z"/>
	<path class="st12" d="M291.1,84.2c0,0-1,7-6,13c-1.5,1.8,1,6,8,5"/>
	<path class="st12" d="M289.1,116.2c0,0,8,3,16-5"/>
	<ellipse transform="matrix(0.3243 -0.9459 0.9459 0.3243 79.3757 381.8478)" class="st1" cx="307" cy="135.4" rx="0.8" ry="1"/>
	<circle class="st13" cx="299.3" cy="138.1" r="0.8"/>
	<path class="st5" d="M341.1,113.2c0,0-2.3,17.1,7.8,24.3c0,0,7,19.5-23,28.6"/>
	<path class="st8" d="M299,138.9c0,0,4.1,13.7-1.9,25.2"/>
	<path class="st5" d="M269.7,151c14.3,0.2,29-5.6,29-5.6"/>
	<path class="st5" d="M269.7,388.6c0,0-6.1-41.3-7.1-62c-0.4-9,2.2-13.3,0-30.7c-1.8-13.8-2.5-41.7-2.5-64.7"/>
	<path class="st5" d="M403.3,334.5c-4.8,13.6-9.2,44.5-13.2,56.4"/>
	<path class="st5" d="M350,137.5c0,0,34.7,16.2,50,20.5"/>
	<path class="st12" d="M386.2,143.2c0,0,12.5,10.1,21.6,8.8c9.1-1.2,41.4,8.8,36.4,40.5c-1.4,9.2,11.3,38.3,6,51.5
		c-3.5,8.7-13.7,3.6-27.4,3.5"/>
	<path class="st11" d="M270.7,151c0,0-7.3-1.5-15.3-2.2c-11.4-0.9-31.7,11-39.9,18.3c-2.5,2.2-23.8,16.3-21.2,15.1
		c10.9-4.9,20.3,7.6,25.3,18.3c6.8,14.5-5.4,32.8-5.4,32.8c0.8,4.1,16.6,3.1,27.9-4.1c0,0,20.7,3.5,24.8-1"/>
	<circle class="st0" cx="276.7" cy="80.5" r="1.3"/>
	<circle class="st0" cx="306.2" cy="81" r="1.3"/>
	<path class="st5" d="M443.2,250.1c0,0,1,25.2,2.6,42s-5,32.4-14.5,38.3c-3,1.9-7.2,14.5-18.5,10.7c-6.2-2.1-16.4-12.2-19-16.5
		c-9.2-15.3-7.8-33.3-5.8-45.6c0,0-2.8-50.7-2.8-73.9c0,0,0.4-10.3-1.4-16.7"/>
	<path class="st14" d="M353.7,147.4"/>
	<path class="st1" d="M410,142.1v20.3l0.4-0.4c0,0,4.1-15.5,2.9-19.9C412.2,137.7,410,142.1,410,142.1z"/>
	<path class="st15" d="M382.3,138.1c0,0-0.5-0.1-1.2,0c-2.4,0.4-3.4,0.4-4.5,0c0,0,0.6,2.1,1.7,2.2c0.9,0.1,2.3,0,3.2-1.3
		C381.7,138.6,382.3,138.1,382.3,138.1z"/>
	<path class="st5" d="M297.9,162.4c0,0-1.3,9.4,13.4,7.9"/>
	<path class="st8" d="M365.3,136.9c0,0-4.1-6-7.4-5.6c0,0-6.6,0.3-4.2,5.6c1.8,3.9,4.9,5.3,4.9,5.3"/>
	<path class="st16" d="M425.2,207.3l-66.6-2.3v-68.1h11.1c0,0,1.2,4.9,2.6,5.3c2.4,0.7,8.7-5.3,8.7-5.3s0.9,6.7,2.8,7.2
		c2.7,0.7,8.5-7.2,8.5-7.2s0.6,6.6,2.4,7c2.5,0.6,7.6-7,7.6-7s2.1,6.1,4,6.3c2.2,0.2,6-6.3,6-6.3h12.9V207.3z"/>
	<path class="st15" d="M368.8,141.9c0,0,2.2,3.5,4.3,3.1c1.7-0.3,2.9-1.8,3.4-3.1H368.8z"/>
	<path class="st15" d="M379.4,143.6c0,0,3.1,3.4,5.9,3.1c2.4-0.3,4.7-2.2,4.7-4.5L379.4,143.6z"/>
	<path class="st15" d="M386.4,138.1c0,0,2.2,2.2,4,2c1.6-0.2,2.8-1.2,3.3-2H386.4z"/>
	<path class="st15" d="M409.9,142.6c0,0-0.4,0.6-0.7,0.6c-0.4,0.1-0.6,0.4-0.9,0.4c-1.3,0.2-2.9,0.1-4-0.3c0,0,0.6,2.1,1.7,2.2
		c0.9,0.1,2.3,0,3.2-1.3C409.6,143.8,409.9,142.6,409.9,142.6z"/>
	<path class="st15" d="M399.5,142.6c0,0-1.4,1-1.7,1c-0.4,0.1,0.4,0.4,0.1,0.4c-1.3,0.2-3.6,0-4.7-0.4c0,0,0.4,2.2,1.5,2.3
		c0.9,0.1,3.2,0,4.1-1.3C399.1,144.2,399.5,142.6,399.5,142.6z"/>
	<text transform="matrix(1 2.100000e-04 -2.100000e-04 1 375.8898 183.7723)" class="st1 st17 st18">27/09/2019</text>
	<path class="st8" d="M393.9,125.9c0,0-6.2-4.8-7.7-1.3c-3.8,9-5.4,14.1-5.7,18.2c0,0,7.7,3.5,8.7-3.6"/>
	<text transform="matrix(1 0 0 1 370.8438 163.3398)" class="st1 st17 st18">I want to open </text>
	<text transform="matrix(1 0 0 1 373.3428 172.7397)" class="st1 st17 st18">my account.  </text>
	<path class="st8" d="M410.9,133.3c-0.3,5.7,0.7,5.5-1.7,8c-3.8,4-6.3,0.7-6-1.1c1.2-7.4,2.9-15.7,2.9-15.7s6.6-2.3,9,1
		c3.9,5.4,4.5,10.3,4.5,10.3"/>
	<path class="st8" d="M404.1,126.6c0,0-4.9-3.3-7.7-2.1l-4.5,16.7c0,0,3.4,4.7,6.1,1c3.2-4.4,2.5-6.8,2.5-6.8"/>
	<path class="st8" d="M379.7,134.4c-1.1,2.4-2.4,5.5-3.4,6.3c-3.6,3-6.6,0.6-6.6,0.6s3.7-14.1,6.8-18.7c1.1-1.8,2.1-1.5,8.1,2"/>
	<path class="st19" d="M373.2,137.6c0,0,1.2-0.4,1.8,0.3"/>
	<path class="st19" d="M384.2,138.1c0,0,1.1-0.6,2.2,0.4"/>
	<path class="st19" d="M394.7,138.4c0,0,0.6-0.2,1.3,0.3"/>
	<path class="st19" d="M405.5,139.1c0,0,0.8-0.3,1.5,0"/>
	
		<linearGradient id="Path-64_1_" gradientUnits="userSpaceOnUse" x1="-6030.9175" y1="-321.4173" x2="-6139.248" y2="-126.3569" gradientTransform="matrix(0.4372 -0.9419 -1.0145 -0.3541 2596.3936 -5655.0498)">
		<stop  offset="0" style="stop-color:#DFF2FD;stop-opacity:0.3"/>
		<stop  offset="1" style="stop-color:#C3E1FF"/>
	</linearGradient>
	<path id="Path-64_5_" class="st20" d="M45.2,195.7L286,225c2.5-4.4,9.6-13.9,10.8-21.1s-0.1-14.6,1.7-21.8
		c2.6-10.8-30.5-50.1-29.3-61.1c1.9-20-0.2-56-6.8-64.3L28.6,139.3L45.2,195.7z"/>
	<path class="st8" d="M20,192.4c-4.1-0.9-0.9-11.5-0.9-11.5s4.1-2.7,5.6-5.8s-1.7-5.8-1.7-5.8s-9.1,7.5-10.1,8.8s-4.2,13.3-2,16.6
		l6.6,6.6"/>
	<path class="st21" d="M10.1,191.3c0,0-1.6-11.8-1.8-13.5s-1.5-5.7-0.5-9.5c0.5-2.1,4.6-7.1,4.6-7.1l3.6-4.5c0,0,5.6,5.8,2.3,9.7
		c0,0-1.1,0.5-3.4,3.3s0,5.6,0,5.6"/>
	<path class="st8" d="M8,175.7c0,0-3.7-8.1-3.5-10.8c0.3-3.6,10.1-18.5,10.1-18.5s5.5,4.9,3.8,9"/>
</g>
</svg>
