<?xml version="1.0" encoding="utf-8"?>
<!-- Generator: Adobe Illustrator 23.0.4, SVG Export Plug-In . SVG Version: 6.00 Build 0)  -->
<svg version="1.1" id="Layer_1" xmlns="http://www.w3.org/2000/svg" xmlns:xlink="http://www.w3.org/1999/xlink" x="0px" y="0px"
	 viewBox="0 0 600 600" style="enable-background:new 0 0 600 600;" xml:space="preserve">
<style type="text/css">
	.st0{fill:none;stroke:#A31717;stroke-width:50;stroke-miterlimit:10;}
	.st1{fill:#EF5350;}
	.st2{opacity:0.55;fill:#A31717;}
	.st3{fill:#FFFFFF;}
	.st4{fill:#A00309;}
	#needle1{
	animation: needle1-anim 1s infinite;
	transform-origin: 300px 300px;
	}
	#needle2{
	animation: needle1-anim 2s infinite;
	transform-origin: 300px 300px;
	}
	@keyframes needle1-anim{
	0%, 100%{
	transform: rotate(0deg);
	}

	50%{
	transform: rotate(10deg);
	}

	}

#opacity{
	animation: opacity-anim 2s infinite;
	transform-origin: 300px 300px;
	}
	@keyframes opacity-anim{
	0%{
	opacity:0;
	transform: scale(0.8);
	}

	30%, 60%{
	opacity:1;
	
	}
	
	100%{
	opacity:0;
	transform: scale(1);
	}

	}


</style>
<circle id="opacity" class="st0" cx="298.52" cy="300.11" r="267.74"/>
<g id="clock_body">
	<g>
		<g>
			<circle class="st1" cx="298.52" cy="300.11" r="267.74"/>
			<circle class="st2" cx="298.52" cy="300.11" r="233.17"/>
		</g>
		<circle class="st3" cx="298.52" cy="300.11" r="226.62"/>
	</g>
	<g>
		<path class="st1" d="M298.52,134.18L298.52,134.18c-2.95,0-5.36-2.41-5.36-5.36V84.07c0-2.95,2.41-5.36,5.36-5.36l0,0
			c2.95,0,5.36,2.41,5.36,5.36v44.75C303.89,131.77,301.47,134.18,298.52,134.18z"/>
		<path class="st1" d="M298.52,521.51L298.52,521.51c-2.95,0-5.36-2.41-5.36-5.36V471.4c0-2.95,2.41-5.36,5.36-5.36l0,0
			c2.95,0,5.36,2.41,5.36,5.36v44.75C303.89,519.1,301.47,521.51,298.52,521.51z"/>
		<path class="st1" d="M463.96,300.11L463.96,300.11c0-2.95,2.41-5.36,5.36-5.36h44.75c2.95,0,5.36,2.41,5.36,5.36l0,0
			c0,2.95-2.41,5.36-5.36,5.36h-44.75C466.37,305.47,463.96,303.06,463.96,300.11z"/>
		<path class="st1" d="M76.63,300.11L76.63,300.11c0-2.95,2.41-5.36,5.36-5.36h44.75c2.95,0,5.36,2.41,5.36,5.36l0,0
			c0,2.95-2.41,5.36-5.36,5.36H82C79.05,305.47,76.63,303.06,76.63,300.11z"/>
	</g>
</g>
<path id="static" class="st1" d="M306.21,298.23L306.21,298.23c-4.06-3.67-4.39-9.99-0.72-14.06l81.85-90.67
	c3.67-4.06,9.99-4.39,14.06-0.72l0,0c4.06,3.67,4.39,9.99,0.72,14.06l-81.85,90.67C316.6,301.57,310.28,301.9,306.21,298.23z"/>
<path id="needle2" class="st1" d="M292.05,294.09L292.05,294.09c-4.43,3.8-11.17,3.29-14.97-1.14l-98.53-114.73
	c-3.8-4.43-3.29-11.17,1.14-14.97l0,0c4.43-3.8,11.17-3.29,14.97,1.14l98.53,114.73C296.99,283.55,296.48,290.29,292.05,294.09z"/>
<g>
	<circle class="st1" cx="298.52" cy="300.11" r="24.47"/>
	<circle class="st4" cx="298.52" cy="300.11" r="13.93"/>
</g>
<path id="needle1" class="st4" d="M299.89,296.65L299.89,296.65c1.39,1,1.71,2.95,0.71,4.34L189.34,455.88
	c-1,1.39-2.95,1.71-4.34,0.71l0,0c-1.39-1-1.71-2.95-0.71-4.34l111.26-154.89C296.55,295.98,298.5,295.66,299.89,296.65z"/>
</svg>
