<?xml version="1.0" encoding="utf-8"?>
<!-- Generator: Adobe Illustrator 24.0.2, SVG Export Plug-In . SVG Version: 6.00 Build 0)  -->
<svg version="1.1" id="Layer_1" xmlns="http://www.w3.org/2000/svg" xmlns:xlink="http://www.w3.org/1999/xlink" x="0px" y="0px"
	 viewBox="0 0 486.5 457.8" style="enable-background:new 0 0 486.5 457.8;" xml:space="preserve">
<style type="text/css">
	.st0{fill:#581D74;}
	.st1{fill:#F4F6FA;stroke:#581D74;stroke-width:4;stroke-linecap:round;stroke-linejoin:round;}
	.st2{fill:#FFFFFF;}
	.st3{fill:#F4F6FA;stroke:#1D2C42;stroke-width:4;stroke-linecap:round;stroke-linejoin:round;}
	.st4{fill:none;stroke:#581D74;stroke-width:4;stroke-linecap:round;stroke-linejoin:round;}
	.st5{fill:none;stroke:#212E8D;stroke-width:3;stroke-linecap:round;stroke-miterlimit:10;}
	.st6{fill:#1D2C42;stroke:#FFFFFF;stroke-width:4;stroke-linecap:round;stroke-miterlimit:10;}
	.st7{fill:#F4F6FA;}
	.st8{fill:none;stroke:#FFFFFF;stroke-width:4;stroke-linecap:round;stroke-linejoin:round;}
	.st9{fill:#1D2C42;stroke:#FFFFFF;stroke-width:3;stroke-linecap:round;stroke-linejoin:round;}
	.st10{fill:none;stroke:#FFFFFF;stroke-width:4;stroke-linecap:round;stroke-miterlimit:10;}
	.st11{fill:#1D2C43;}
	.st12{fill:none;stroke:#000000;stroke-miterlimit:10;}
	.st13{fill:none;stroke:#FFFFFF;stroke-width:3;stroke-miterlimit:10;}
	.st14{fill:#1D2C43;stroke:#FFFFFF;stroke-width:2;stroke-miterlimit:10;}
	.st15{fill:none;stroke:#FFFFFF;stroke-width:3;stroke-linecap:round;stroke-miterlimit:10;}
	.st16{fill:#1D2C42;}
	.st17{fill:#1D2C42;stroke:#FFFFFF;stroke-width:3;stroke-linecap:round;stroke-miterlimit:10;}
	.st18{fill:#1D2C42;stroke:#FFFFFF;stroke-width:4;stroke-miterlimit:10;}
	.st19{fill:none;stroke:#FF0000;stroke-width:4;stroke-miterlimit:10;}
	.st20{fill:none;stroke:#FF0000;stroke-width:4;stroke-linejoin:round;}
	.st21{fill:none;stroke:#FFFFFF;stroke-width:3;stroke-linecap:round;stroke-linejoin:round;}
	.st22{fill:none;stroke:#FFFFFF;stroke-width:3;stroke-linecap:round;stroke-linejoin:bevel;}
	.st23{fill:none;stroke:#581D74;stroke-width:3;stroke-linecap:round;stroke-linejoin:bevel;}
	.st24{fill:none;stroke:#32B0FF;stroke-width:3;stroke-linecap:round;stroke-miterlimit:10;stroke-dasharray:10;}
	.st25{opacity:0.3;fill:url(#Path-64_1_);enable-background:new    ;}
</style>
<image style="overflow:visible;" width="1080" height="2400" xlink:href="Screenshot_20220726-132128.jpg"  transform="matrix(0.4428 0 0 0.4428 -668.7666 -260.8632)">
</image>
<g>
	<g id="Body">
		<circle class="st0" cx="332.2" cy="175.6" r="0.9"/>
		<path class="st1" d="M379.9,147.3c0,0-2.6,19.5,8.9,27.7c0,0,8,22.2-26.2,32.6"/>
		<path class="st2" d="M332,176.5c0,0,4.7,15.6-2.2,28.7"/>
		<path class="st3" d="M412.6,428.5c0,0.2,0,0.4,0,0.6c0.1,3.6-0.2,7.3-1.1,10.8c0,0,0,0.1,0,0.1H269.9c0,0,0-0.1,0-0.1
			c-0.3-3.1-1-10.2-1.2-19c0-1.3-0.1-2.5-0.1-3.9c0-0.6,0-1.3,0-2c0-3.3,0.1-6.8,0.3-10.3c0.1-1.1,0.2-2.3,0.3-3.4
			c0.4-4.8,1.1-9.6,2.1-14.3c0.4-1.7,0.6-3.4,0.7-5.1c0-0.1,0-0.2,0-0.3v-0.8c0-0.6,0-1.1,0-1.8c0-0.2,0-0.4,0-0.6
			c-0.1-3.2-0.4-6.3-0.9-9.5l0,0c-0.8-5.8-2.1-12.7-3.3-21.7c-1.9-14.7,4.7-9.7,0.1-33.9c-0.5-2.4,1.9-4.4,4.2-3.4l101.2,43.3
			l0.6,0.4l2.4,1.9l34.5,26.8l1.3,1l0.3,0.2c-0.6,1.6-1,3.3-1.2,5c-0.4,2.7-0.6,5.4-0.6,8.1c0,7.7,1,16.3,1.6,24.3
			c0.2,2.3,0.3,4.4,0.4,6.5c0,0.1,0,0.2,0,0.3v0.1C412.6,428.1,412.6,428.3,412.6,428.5z"/>
		<path class="st4" d="M388.5,174.1c0,0,3.4,19.3,37.6,28.5"/>
		<path class="st5" d="M394.1,186.2"/>
		<path class="st1" d="M330.6,203.3c0,0-1.5,10.7,15.3,9"/>
		<path class="st6" d="M425.4,202c0,0,15.7,8.9,22.8,10.2c18.2,3.4,27.3,17.1,12.5,54.6c0,0-3.4,43.2-14.8,48.9
			c0,0-14.8-21.6-39.8-21.6c-4,0-10.2,0-14.8,3.4c-4.6,3.4-6.8-24.3-1.1-30"/>
		<path class="st7" d="M331.6,186.5c-4.9,2.8-10,5.3-15.1,7.5c-6,2.7-12.2,5-18.6,6.8c0,0,68.6,178.8,75.8,153.2
			c5.7-20.5,17.1-48.9,20.5-55.8c0,0-3.4,0-4.6,2.3l-2.3-2.3c0,0-2.3-12.5,8-30.7c0,0,2.3-1.1,3.4,0l25.8-63.3c0,0-23.6-5-32.7-19.8
			c0,0-4.6,11.4-8,13.7c-3.8,2.5-11.4,9.1-17.1,10.2c-1.4,0.7-3,1.1-4.6,1.1c-1.1,0-2.3-2.3-1.1-3.4l2.3-1.1
			c7.1-2.3,13.5-6.3,18.7-11.6c0,0-45.6,3.4-47.5-3.5c-0.1,4.1-1.5,12.5-1.8,14.1c0.1,1.3,0.5,2.5,1.4,3.5c0,0,1.4,3.6,11.8,2.4
			c1.8-0.2,4.2,4.6-1.7,4.7c0,0-8.2,0.6-11.7-2.5c-3.2-2.1-4.9-6-4.1-9.8c0.3-0.7,1-1.2,1.8-1.4c1.1-3.5,1.8-7.1,2-10.7
			c0,0,0-3.8-0.1-4.2L331.6,186.5z"/>
		<path class="st8" d="M379.9,146.1c0,0-2.6,19.5,8.9,27.7c0,0,8,22.2-26.2,32.6"/>
		<path class="st4" d="M331.6,182.7h-0.1l-3.8,1.3c-3.6,2.3-0.3,0.1-0.5,0.2"/>
		<path class="st9" d="M412.6,428.5c0,0.2,0,0.4,0,0.6c0.1,3.5-0.4,6.9-1.3,10.2c-0.1,0.2-0.2,0.4-0.3,0.6l-0.1,0.1H270
			c0,0,0-0.1,0-0.1c-0.2-2-1-9.5-1.3-19c0-1.3-0.1-2.5-0.1-3.9c0-0.6,0-1.3,0-2c0-3.3,0.1-6.8,0.2-10.3c0.1-1.1,0.1-2.3,0.2-3.4
			c0.3-5.1,1-10.3,2.1-15.3c0.3-1.4,0.5-2.7,0.7-4.1l0.1-0.7l0,0c0-0.2,0-0.5,0-0.7c0-0.5,0-1,0-1.5c0-0.2,0-0.4,0-0.6
			c-0.1-3.5-0.4-7-0.9-10.5c0,0,0-0.1,0-0.1c-0.9-5.8-2.1-12.8-3.3-21.8c-1.5-11.6,2.3-10.3,1.6-21.8c-0.8-11.9-0.9-25.1,8.1-32.9
			c4.1-3.6,12-4.2,12-4.2l0.3,0.2l84,65.2l2.6,2l36.3,5.8l-0.3,22.1c-0.1,0.3-0.2,0.6-0.3,0.9c-0.5,1.8-0.9,3.7-1.1,5.6
			c-0.3,2.6-0.4,5.1-0.4,7.7c0,7.8,1.1,16.4,1.7,24.3c0.2,2.3,0.3,4.4,0.3,6.5v0.3c0,0,0,0.1,0,0.1
			C412.6,428.1,412.6,428.3,412.6,428.5z"/>
		<path class="st8" d="M390.1,171.9c0,0,1.8,21.5,35.9,30.7"/>
		<path class="st5" d="M394.1,185.1"/>
		<path class="st8" d="M330.6,202.2c0,0-1.5,10.7,15.3,9"/>
		<path class="st10" d="M423.8,202.4c0,0,17.3,7.4,24.4,8.8c18.2,3.4,27.3,17.1,12.5,54.6c0,0-3.4,43.2-14.8,48.9
			c0,0-14.8-21.6-39.8-21.6c-4,0-10.2,0-14.8,3.4c-4.6,3.4,0-22.8,5.7-28.5"/>
		<path class="st11" d="M331.6,185.4c-4.9,2.8-10,5.3-15.1,7.5c-6.8,3-39.7,7.5-43.9,8.5c0,0-5.1,98.3-6.2,101.7
			c-1.1,3.4,3.2-5.5,105.9,56.2c5.7-20.5,18.5-55.3,21.9-62.1c0,0-3.4,0-4.6,2.3l-2.3-2.3c0,0-2.3-12.5,8-30.7c0,0,2.3-3.3,4.7-1.2
			l23.6-58.6c0,0-22.6-8.5-31.7-23.3c0,0-4.6,11.4-8,13.7c-3.8,2.5-11.4,9.1-17.1,10.2c-1.4,0.7-3,1.1-4.6,1.1
			c-1.1,0-2.3-2.3-1.1-3.4l2.3-1.1c7.1-2.3,13.5-6.3,18.7-11.6c0,0-45.6,3.4-47.5-3.5c-0.1,4.1-0.8,8.2-2.2,12.1c0,0,0.7,0.5,0.3,2
			c0.1,1.3,0.5,2.5,1.4,3.5c0,0,1.4,3.6,11.8,2.4c1.8-0.2,4.2,4.6-1.7,4.7c0,0-8.2,0.6-11.7-2.5c-3.2-2.1-4.9-6-4.1-9.8
			c0.3-0.7,1-1.2,1.8-1.4c1.1-3.5,1.8-7.1,2-10.7c0,0,0-3.8-0.1-4.2L331.6,185.4z"/>
		<line class="st12" x1="238" y1="291.8" x2="238" y2="291.8"/>
		<path class="st8" d="M266.7,307.6L266.7,307.6l-12.8,6c-12.5-48.6-21-46.9-30.2-48.9c28.6-66.7,42.2-66.7,42.2-66.7
			c24.7-2.4,32.9-6,32.9-6l-1.1,0.8c18.2-4.6,35.1-10.2,35.1-10.2"/>
		<path class="st13" d="M382.2,146.2c13.9-12.2,30.6-31.2,34.1-53.9c1.9-13.1-1.4-21.6-1.9-23.1c-2.2-12.4-3.3-15.7-8.1-24.2
			c-18-32.3-62.6-24.2-84-20.4c-4.5,0.8-8.2,1.5-9.4,1.4c-4.5-0.6-6-3.2-7.3-5.3c-0.5-1.3-1.5-2.3-2.8-2.8l-2.4,0.6
			c-6.4,4.4-11.3,12.4-13.6,22C285,47.9,284,60,289.4,75c1.8,4.8,4.5,10.7,7.2,11.5c-0.9,9.9-0.7,19.7,0.9,22.8
			c1.1,2.4,0.8,7.6,0.4,12.2c-0.3,5.1-0.7,9.9,0.7,12.9c1.2,2.6,2.7,6.1,4.3,10c4.6,11,9.9,23.7,14.2,28l0.1,0.1
			c3.3,2.3,7.3,3.5,11.4,3.4h0.3l-0.7,26.2c-0.2,2.9,0.8,5.7,2.7,7.8c2.5,2.5,6.3,3.8,11.4,3.8c1.2,0,2.4-0.1,3.6-0.2
			c0.1,0,0.3,0,0.4-0.1l16.8-4.8c13.1-4,21.9-10.2,26.1-18.4c2.7-5.3,3.3-11.4,1.6-17.1c-0.1-0.5-0.4-0.9-0.8-1.1
			c-10.2-7.3-8-25.3-8-25.5C382.2,146.4,382.2,146.3,382.2,146.2z"/>
		<path class="st14" d="M386.8,175.2c1,4.3,0.5,8.9-1.5,12.9c-3.6,7.1-11.4,12.5-23.3,16.1l-16.6,4.7c-5.3,0.5-9.1-0.3-11.1-2.3
			c-1.1-1.1-2.3-2.1-2.2-3.6c0-0.1-4-24.5-4-24.5c0-0.1-1.1-3.1-1.1-3.2c2.9-0.6,12.2-1.5,14.9-2.8c0.8-0.4,1.1-1.4,0.8-2.3
			c-0.4-0.8-1.4-1.2-2.2-0.8c0,0,0,0-0.1,0c-13.2,6-20.3,0.8-20.9,0.2c-3.9-4-9.4-17.2-13.4-26.9c-1.6-3.9-3.1-7.5-4.3-10.1
			c-1-2-0.7-6.7-0.3-11.2c0.5-5.5,0.8-10.7-0.8-13.9c-2.5-5.1-0.4-37.1,4.8-42.7c0.6-0.7,0.9-0.6,1-0.5c19.9,8.5,36,6.1,46.7,4.6
			c4.7-0.7,8.6-1.3,9.8-0.2c3.2,2.6,4.8,7.7,6.4,12.7c1.6,5,3.1,9.8,6.3,12.3c0.5,0.3,0.8,0.9,0.8,1.5c-0.2,2.2-4.4,5.5-7.4,7.1
			l-0.7,0.3l-0.2,0.7c-2.4,9.4-0.1,15.6,0,15.7c0.3,0.9,1,1.5,1.9,1.7c2.2,0.3,6-3.2,11.3-10.4l0.1-0.2l0.1-0.2
			c1-2.8,3.3-7.5,6.4-6.9c1.9,0.6,3.4,2.1,4,4.1c0,4.7-3.3,6.1-6.7,7.7c-2.3,1-4.4,1.9-5.6,3.9c-2.6,4.3-1.8,7.4-1,10.1
			c0.5,1.4,0.8,2.8,0.8,4.3c-0.1,3-0.6,6.1-1.4,9c-0.5,2.3-0.8,3.7-0.3,4.7C377.2,151.6,376.6,167.2,386.8,175.2z"/>
		<path class="st7" d="M307.8,101.8c-2.4,0-4.3,1.9-4.3,4.3c0,2.4,1.9,4.3,4.3,4.3c2.4,0,4.3-1.9,4.3-4.3v0
			C312,103.7,310.1,101.8,307.8,101.8z"/>
		<path class="st7" d="M318.2,97.1c-2.2-3.8-12-4.9-16.6-4.3c0,0-4.7,0.6-5.9,1.6c-0.8,0.7-0.7,2.7,0.6,3.8
			c2.2,1.8,5.3-1.8,11.2-1.4c3.3,0.2,6.6,0.8,9.8,1.9C317.4,98.7,318.8,98.1,318.2,97.1z"/>
		<path class="st7" d="M330.5,97.4c-0.7,0.9,0.7,1.6,0.9,1.6c3-0.6,4.6-1.4,9.9-1.3c5.8,0.1,8.8,4,11,2.2c1.3-1,1.5-3.1,0.8-3.6
			c-1.1-1-5.8-1.9-5.8-1.9C342.9,93.3,333,93.9,330.5,97.4z"/>
		<path class="st7" d="M341.5,102.9c-2.4,0-4.3,1.9-4.3,4.3c0,2.4,1.9,4.3,4.3,4.3c2.4,0,4.3-1.9,4.3-4.3v0
			C345.8,104.8,343.8,102.9,341.5,102.9z"/>
		<path class="st7" d="M347.8,106.9c-0.4,0-0.7-0.2-0.9-0.4c-4.3-5.5-13-0.3-13.1-0.2c-0.5,0.4-1.2,0.3-1.6-0.1
			c-0.4-0.5-0.3-1.2,0.1-1.6c0.1-0.1,0.2-0.1,0.3-0.2c3.6-2.3,11.6-5,16.1,0.7c0.4,0.5,0.3,1.2-0.2,1.6
			C348.4,106.8,348.1,106.9,347.8,106.9L347.8,106.9z"/>
		<path class="st7" d="M301.4,105.4c-0.6,0-1.1-0.5-1.1-1.1c0-0.3,0.1-0.5,0.3-0.8c4.7-5.5,12.5-2.5,16.1-0.2c0.6,0.3,0.8,1,0.4,1.5
			c-0.3,0.6-1,0.8-1.5,0.4c-0.1,0-0.1-0.1-0.1-0.1c-0.1-0.1-8.6-5.5-13.1-0.2C302.1,105.3,301.7,105.4,301.4,105.4z"/>
		<path class="st2" d="M324.9,136.6c-4.5,0-7.2-1.9-8.3-3.9c-0.9-1.5-0.8-3.4,0.2-4.8c3.3-4,5.5-8.8,6.5-13.9c0.1-0.9,1-1.6,1.9-1.5
			c0.9,0.1,1.6,1,1.5,1.9c-1,5.7-3.5,11.1-7.2,15.6c-0.1,0.2-0.1,0.5,0.1,0.9c0.8,1.4,3.4,2.6,7.4,2c0.9-0.1,1.8,0.5,1.9,1.5
			c0.1,0.9-0.5,1.8-1.4,1.9c0,0,0,0,0,0C326.6,136.6,325.8,136.6,324.9,136.6z"/>
		<path class="st2" d="M325.1,153c-1.7,0-3.3-0.2-4.9-0.8c-0.8-0.4-1.2-1.4-0.8-2.3c0.3-0.7,1.2-1.1,1.9-0.9
			c0.3,0.1,8.3,2.9,16.4-5.3c0.7-0.7,1.7-0.7,2.4,0s0.7,1.7,0,2.4l0,0C334.6,151.8,328.9,153,325.1,153z"/>
		<circle class="st11" cx="305.5" cy="106.6" r="1.5"/>
		<circle class="st11" cx="339.1" cy="107.2" r="1.5"/>
		<path class="st2" d="M36.6,142.5c-4.7,0.5-8.8,3.4-7.8,8.7c1.7,9.1,5.5,18.3,8.1,27.1c1.6,5.4,3,10.8,4.9,16.1
			c0.3,1,3.9,13.2,4.6,13.9c1.4,1.5,4.6,3.1,7,2.7c2.7-0.7,5-1.9,6.6-4.2c0.5-0.8,0.7-2.2,0.5-3.1c0.3,1.9-0.3-5.3-3.3,0.7
			c-0.1-0.4-0.3-0.8-0.4-1.3c-0.8,3.1-3.9,4.8-7.2,2.9c-2-1.1-3.7-10.8-4.4-12.5c-1.6-4.1-2.3-7.7-3.3-11
			c-2.8-9.6-5.7-19.1-8.6-28.7c-1-3.3-1.7-7.9,3.6-7.8c3.9,0.1,4.1,4.3,5,7.1l8.5,28.6l6.3,21.2c0.1-0.5-0.2,4.1-0.2,3.6
			c0-0.6,2.9-5.3,3.6-3.9c-7.8-20.1-10.1-35.4-16.4-54.9C42.7,144.5,40.8,142.1,36.6,142.5z"/>
		<path class="st2" d="M36.8,146.2c-5.3-0.2-4.6,4.5-3.6,7.8c2.8,9.5,5.7,19.1,8.6,28.7c1,3.2,1.7,6.9,3.3,11
			c0.7,1.7,2.4,11.3,4.4,12.5c2.6,1.4,5.1,0.7,6.4-1.2c0.6-0.9,1.6-1.9,1.3-2.9L50.3,182l-8.6-28.6
			C40.9,150.5,40.7,146.4,36.8,146.2z M36.6,151.8c-0.5-1.6,1.9-2.6,2.4-0.9c4.6,15.5,9.2,30.9,13.8,46.4c0.5,1.6-1.9,2.6-2.4,0.9
			C45.8,182.7,41.2,167.2,36.6,151.8L36.6,151.8z"/>
		<path class="st2" d="M52,205.1c-0.5-1.5-3-2.3-3.1-1.7c-0.1,0.5-0.2,0.9-0.4,1.4c0.1,0.4,0.1,0.9,0.2,1.3c0.3,2.3,3.4,1.7,3.4-0.2
			c0-0.1,0-0.1,0-0.2c0-0.1,0-0.2,0-0.2v-0.1C52.1,205.3,52.1,205.2,52,205.1z"/>
		<path class="st15" d="M28.5,198.2c-3.6-2,1.5-14,1.5-14s4.6-1.5,6.9-4.1c2.4-2.6,0-6.1,0-6.1s-10.8,4.7-12.1,5.7
			c-1.3,1-7.5,11.8-6.4,15.6l4.5,8.3"/>
		<path class="st15" d="M21.4,192.5c0,0-1.1-12.8-0.8-14.5s0.1-6,2.1-9.4c1.1-1.9,6.4-5.7,6.4-5.7l4.7-3.4c0,0,3.7,7.3-0.4,10.1
			c0,0-1.2,0.2-4.1,2.3c-1.7,1.2-2.3,3.5-1.5,5.4"/>
		<path class="st16" d="M32.8,161.5c0,0-8.5,6.8-9,7.9s-2.4,9.6-1.5,11.1c0.4-0.7,1-1.3,1.6-1.8c0.7-0.3,2.3-1.3,2.3-1.3
			c0.1-1.6,0.4-3.2,0.9-4.7c0.5-1.1,4.4-3.3,5.1-3.9C35.2,165.7,34.2,165.1,32.8,161.5z"/>
		<path class="st16" d="M33.1,152.2c0,0-8.7,8.4-9.3,9.4s-2.4,9.6-1.5,11.1c0.4-0.7,1-1.3,1.6-1.8c0.7-0.3,2.3-1.3,2.3-1.3
			c0.1-1.6,0.4-3.2,0.9-4.7c0.5-1.1,4.1-4.8,4.8-5.4C35,156.5,34.5,155.8,33.1,152.2z"/>
		<path class="st15" d="M29.3,186.8c0.5,1.8,1.9,8.5,2.7,10.2"/>
		<path class="st17" d="M30.2,151.6c0,0-8.6,7.8-9.8,12.5c-0.9,3.4,0.4,15.5,0.4,15.5"/>
		<path class="st16" d="M45.8,195.5c0,0-13.9,2.1-14.5,2.4c-0.6,0.4-6.8,6.5-7.6,8.9l1.8,0.7l10.2-6.1c0.9-0.6,1.9-1,3-1.3
			C40.2,199.8,44.5,200.3,45.8,195.5z"/>
		<path class="st11" d="M36,174.7l-10.1,6.1c0,0-5.8,5.7-6.6,13l3.7,9.8c0.1,0.2,2.6-2.5,4.3-3.9c0,0-2.8-6.8-1.6-9.7
			c1-2.5,5-7.7,5-7.7S38.2,180.1,36,174.7z"/>
		<path class="st15" d="M225.4,264.2c0,0-28.5,21.6-28.5,27.3c0,0-37.4-20.3-58-30.7c-9.4-4.8-15.4-10.7-24.1-16.8
			c-6.8-4.8-13.4-10-20.2-14.9c-6.5-4.6-14-7.4-20.1-12.5c-1.6-1.4-4.1-6.8-8-12.2c-1.7-2.4-3.6-4.6-5.9-6.6
			c-0.7-0.6-1.5-1.2-2.4-1.7c-0.8-0.5-1.6-0.9-2.4-1.3c0,0-6.1-6.3-10.6-10.1c-1.2-1.1-2.6-2-4-2.8l-3.3-1.1"/>
		<path class="st15" d="M252.7,309.7c0,0-30.4,23.7-44.1,25.3c-13.7,1.5-5.3,2.5-16.9-2c-11.6-4.6-72.6-27.2-113.8-81.5
			c-7.2-5.3-6.9-6.2-10.1-10.4c-6.2-8-28.5-11.1-32.2-15c-2.5-2.7-7.8-11.9-10.9-17.2c-1.4-2.5-0.9-5.5,1.1-7.5
			c2.1-2,4.7-4.3,6.3-4.5c3-0.5,14.4-2.4,14.4-2.4c-1.6,7.3-1.6,9.4-4.6,10c0,0-5.9-0.9-6.3,1.6"/>
		<path class="st16" d="M39.1,150.9c-0.5-1.7-2.9-0.8-2.4,0.9c4.6,15.4,9.2,30.9,13.8,46.4c0.5,1.7,2.9,0.7,2.4-0.9
			C48.2,181.8,43.6,166.4,39.1,150.9z"/>
	</g>
	<g id="Muscle">
		<path id="Muscle-2" class="st18" d="M384.8,292.6c31.3-9.7,54.6,17.1,54.6,17.1c-44.4,84.5-79.7,84.5-79.7,84.5s-8.5,1.4-10.2-1.1
			c-5.9-6.6-9.7-14.8-10.8-23.6c-1.7-12.3,2.4-29.1,3.4-34.1C346.6,311.4,384.8,292.6,384.8,292.6z"/>
	</g>
	<g id="Arm_4">
		<path class="st11" d="M355.7,389.7c13.1-10.2,18.6-28.3,24-44.1c0-2.3,3.3-4.6,4.4-6.8c2.2-3.2,3.6-7,4-10.9
			c-2.1,1.9-3.5,4.4-4,7.1l7.5-119c0,0,9.9-31.4,1.7-36l-22.1-4c0,0-16.6,71-26.2,86.3s-22.8,93.8-10.2,112.4
			c8.8,13,8,19.3,19.5,18.6C354.5,392,354.9,390.7,355.7,389.7z"/>
		<path class="st19" d="M335,118.6c-2.3-0.1-4.1-2-4.1-4.3v-10.2c0-2.4,1.9-4.3,4.3-4.3h17.6c2.4,0,4.3,1.9,4.3,4.3v10.1
			c0,0.9-0.2,1.8-0.8,2.6c-0.8,1.2-2.2,1.9-3.6,1.9l0,0H335z"/>
		<path class="st20" d="M381.4,101.1"/>
		<path class="st20" d="M371,102.9l-13.4,2.5c0.7,0.7,34.2-8.8,37.8-4.6c3.9,4.7-2.3,14.2,2.8,14.3"/>
		<path class="st19" d="M320.1,108.1c3.5-1.8,7.6-1.6,10.9,0.4"/>
		<path class="st19" d="M297.4,117.6c-2.3-0.1-4.1-2-4.1-4.3v-10.2c0-2.4,1.9-4.3,4.3-4.3h17.6c2.4,0,4.3,1.9,4.3,4.3v10.1
			c0,0.9-0.2,1.8-0.8,2.6c-0.8,1.2-2.1,1.9-3.6,1.9l0,0H297.4z"/>
		<path class="st8" d="M372.1,175.7c0.7,4.5-2.6,16.3-7.1,29.5l-0.8,2.3c-1.5,4.4-3.2,9-4.8,13.4c-0.5,1.3-1,2.6-1.5,3.9
			c-0.5,1.3-1.1,2.8-1.6,4.2c-0.9,2.3-1.7,4.5-2.5,6.6l-0.2,0.4c-2.2,5.6-4.2,10.5-5.6,14l0,0l-0.8,2.1c-1,2.4-1.6,3.8-1.6,3.8
			c-28.3,62.9-20.5,141.7,10.3,138.5"/>
		<path class="st2" d="M358.1,95.2l0.4-0.3c0.3-0.1,1.8-1,3.7-1.9c0.1-0.1,0.3-0.2,0.4-0.2l0.1-0.1c8.3-4,11.1-4,12.5-3.7l10.2,2.4
			c1.8,0,4.9,1.6,9.6,8.9c5.5,8.5,11.1,17.3,8.9,24.7c-0.4,1.4-1.1,3.3-2.2,5.7l-0.1,0.2c-3.6,9-9.6,23.9-6.2,31.6
			c5.2,11.6-0.6,16.2-1.3,16.7c-0.4,0.6-1.1,0.9-1.8,0.8l-20.9-4.1c-0.1,0-0.3-0.1-0.4-0.1c-0.6-0.3-1-1-0.9-1.7
			c-0.1-0.1-0.2-0.3-0.2-0.4c-0.6-1.4-1.4-2.6-2.4-3.7c-4.8-6-8-20.1-8.5-22.8c-0.3-1-0.7-2.1-1.1-3.1c-2.6-6.3-8.1-19.3-3.5-32
			c0.2-0.7,0.5-1.3,0.8-2l0.2-0.4l0.1-0.1c0.7-1.4,2.1-2.4,3.7-2.6c1.6,0,3,0.7,4,2c0.3-0.5,0.6-0.9,1-1.3c-0.3-0.1-0.5-0.1-0.8-0.3
			c-0.4-0.2-0.8-0.5-1-1c-0.5-1.2-0.3-2.7,0.6-3.7h-0.4c-3.3,0-5.2-0.8-6-2.3C355.2,98.2,357.4,95.9,358.1,95.2z"/>
		<path class="st2" d="M387.4,124.4"/>
		<path class="st11" d="M387.8,117.1c-0.3-0.1-0.6-0.1-0.8-0.1c-3.8,0.2-7.5-0.9-10.5-3.1c-2.4,0.6-8,1.7-11.4,0
			c-0.1-0.1-0.2-0.1-0.3-0.2c-0.3,2.6-0.5,5.6,0.5,6.4c1,0.9,1.1,2.6-0.9,2.8c-0.1,0-0.2,0-0.3-0.1c-3.3-2.1-1.7-7.7-2.6-10.4
			c-1.1-1.6-1.9-2-2.2-2c-0.3,0-0.6,0.4-0.9,0.9l-0.1,0.3l0,0c-0.2,0.5-0.4,1.1-0.6,1.6c-4.2,11.4,1,23.6,3.5,29.6
			c0.5,1.2,1,2.4,1.3,3.6c1.2,5.8,4.2,16.9,7.9,21.4c1.3,1.4,2.3,3.1,3,4.9c0,0.1,0,0.1,0,0.2l18.4,3.6l0.2-0.3l0.2-0.1
			c0.7-0.8,1.2-1.7,1.6-2.7c0.4-1.2,0.6-4.1-1.7-9.2c-4.1-9.1,2.3-25,6.1-34.6v-0.1c1-2.4,1.7-4.3,2.1-5.5
			c1.7-5.7-3.4-13.7-8.4-21.5c-3.7-5.7-5.7-6.9-6.3-7.1h-0.1l-11-2.6c-0.2,0-2.1-0.3-9.9,3.4h-0.1l-0.2,0.1h-0.1
			c-1.6,0.8-2.9,1.4-3.4,1.7c-0.2,0.2-0.4,0.5-0.6,0.7c0.8,0.2,1.6,0.2,2.5,0.2h0.7h0.4h0.1c0.5,0,1-0.1,1.4-0.1l1.7-0.2v0.1
			c7-3.7,19.2,1.9,19.8,2.2c0.8,0.4,1.2,1.3,0.9,2.2c0,0,0,0.1,0,0.1c-0.4,0.9-1.4,1.2-2.3,0.8c0,0,0,0,0,0
			c-0.1-0.1-15.2-6.8-18.7-0.3l-0.1,0.2l-0.2,0.2c-0.1,0.1-0.2,0.2-0.3,0.3c0.4-0.1,0.9-0.2,1.5-0.4c1.9-0.5,3.8-0.6,5.7-0.5l0,0
			c7.4,0.4,15.4,4,15.8,4.2c0.9,0.4,1.2,1.4,0.9,2.3s-1.4,1.2-2.3,0.9c-0.1,0-7.7-3.4-14.4-3.9c-3.3,1-6.7,2.7-7.2,3.6
			c1.4,1.5,6.9,0.9,10.2-0.1l0.9-0.3l0.7,0.6c0,0,4.1,3.3,8.8,2.9c2.3-0.2,1.7,1.8,2.3,2.6"/>
		<path class="st2" d="M382.3,133.5l-0.2-0.1c-0.6-0.3-1.1-0.6-1.5-1.1l-1.2-1.1l2.7-2.8l1.2,1.1c1.6,1.5,5.6,0.9,6.9,0.6l1.7-0.4
			l0.9,3.7l-1.7,0.4C390.5,134.1,385.8,135.1,382.3,133.5L382.3,133.5z"/>
		<path class="st15" d="M394.1,175.8c1.5,5.6,5.5,22.4,1.3,33.5c-2.8,7.3-5.7,52.4-8,83.7c-0.2,3.4-0.5,6.6-0.7,9.5"/>
		<path class="st21" d="M390.3,327"/>
		<path class="st21" d="M387.6,330"/>
		<path class="st21" d="M386.8,302.6c-0.4,6-0.7,14-0.9,20.7c-0.1,2.8-0.2,5.4-0.3,7.5c0,0.1,0,0.3,0,0.4"/>
		<path class="st22" d="M364.3,121.7c1.2,4.8,3.6,9.2,7.2,12.6"/>
		<path class="st23" d="M370,121.3"/>
		<path class="st23" d="M380.4,122.8"/>
		<path class="st23" d="M377.1,112.1"/>
		<path class="st22" d="M388.4,123.4c0,0-11.9-0.9-13.5-3.9c0,0-7.1,1.4-7.8-2.2c-0.5-1.6,8.4-6.7,20.2-0.5"/>
		<path class="st2" d="M388.8,295.5"/>
	</g>
	<g id="lines">
		<line id="line5" class="st24" x1="260.1" y1="81.4" x2="50.3" y2="158.6"/>
		<line id="line4" class="st24" x1="261.4" y1="110" x2="61.1" y2="168.7"/>
		<line id="line3" class="st24" x1="268.7" y1="145.1" x2="70" y2="179.9"/>
		<line id="line2" class="st24" x1="279.8" y1="177.9" x2="77.6" y2="188"/>
		<line id="line1" class="st24" x1="296" y1="211.4" x2="75.2" y2="190.2"/>
	</g>
	<linearGradient id="Path-64_1_" gradientUnits="userSpaceOnUse" x1="44.9862" y1="140.7004" x2="308.3208" y2="140.7004">
		<stop  offset="0" style="stop-color:#DFF2FD;stop-opacity:0.3"/>
		<stop  offset="1" style="stop-color:#C3E1FF"/>
	</linearGradient>
	<path id="Path-64" class="st25" d="M45,150.8l237.3-98c14.6,28.2,32.9,114.5,23.3,167.3c-1,5.5-6.2,9.3-11.8,8.5L56.1,193.1
		L45,150.8z"/>
</g>
</svg>
