<?xml version="1.0" encoding="utf-8"?>
<!-- Generator: Adobe Illustrator 23.0.4, SVG Export Plug-In . SVG Version: 6.00 Build 0)  -->
<svg version="1.1" id="Layer_3" xmlns="http://www.w3.org/2000/svg" xmlns:xlink="http://www.w3.org/1999/xlink" x="0px" y="0px"
	 viewBox="0 0 456 391.4" style="enable-background:new 0 0 456 391.4;" xml:space="preserve">
<style type="text/css">
	.st0{fill:none;stroke:#32B0FF;stroke-width:2;stroke-linecap:round;stroke-miterlimit:10;stroke-dasharray:10;}
	.st1{fill:none;stroke:#212E8D;stroke-width:4;stroke-linecap:round;stroke-linejoin:round;stroke-miterlimit:10;}
	.st2{fill:none;stroke:#212E8D;stroke-width:2;stroke-linecap:round;stroke-linejoin:round;stroke-miterlimit:10;}
	.st3{fill:none;stroke:#212E8D;stroke-width:4;stroke-miterlimit:10;}
	.st4{fill:#212E8D;}
	.st5{fill:none;stroke:#212E8D;stroke-width:2;stroke-linecap:round;stroke-linejoin:round;}
	.st6{fill:none;stroke:#212E8D;stroke-width:3;stroke-linecap:round;stroke-linejoin:round;stroke-miterlimit:10;}
	.st7{fill:none;stroke:#212E8D;stroke-width:3;stroke-miterlimit:10;}
	.st8{opacity:0.55;fill:url(#Path-64_1_);enable-background:new    ;}
	.st9{fill:none;stroke:#212E8D;stroke-width:3;stroke-linecap:round;stroke-miterlimit:10;}
	.st10{fill:#FFFFFF;}
	.st11{opacity:0.24;fill:#858585;enable-background:new    ;}
	.st12{fill:#FFFFFF;stroke:#212E8D;stroke-width:2;stroke-linecap:round;stroke-linejoin:round;stroke-miterlimit:10;}
	.st13{fill:#ADADAD;}
	.st14{font-family:'MyriadPro-Bold';}
	.st15{font-size:7px;}
	.st16{fill:#FFFFFF;stroke:#212E8D;stroke-width:0.25;stroke-linecap:round;stroke-linejoin:round;stroke-miterlimit:10;}
					#lines{
	animation: lines-anim 2s infinite;
	    animation-timing-function: cubic-bezier(0, 0, 0, 0);
	stroke-dasharray: 10;
}

@keyframes lines-anim{
	0%{
	stroke-dashoffset: 0;
	}
	100%{
	stroke-dashoffset: -60;
	}
}
</style>
<g id="lines">
	<line id="line5" class="st0" x1="35" y1="139.1" x2="264.2" y2="77.2"/>
	<line id="line4" class="st0" x1="36.8" y1="148.5" x2="273.4" y2="111.4"/>
	<line id="line3" class="st0" x1="38.6" y1="159.6" x2="286.1" y2="142.9"/>
	<line id="line2" class="st0" x1="40.3" y1="170.3" x2="286.1" y2="175"/>
	<line id="line1" class="st0" x1="42.7" y1="181.9" x2="291" y2="202.4"/>
</g>
<path class="st1" d="M419.5,138.4c3.1,8-1.1,20.5-1.1,20.5s-5.5,3.7-6.6,8.4c-2.8,11.5-3.1,11.4-2.8,15.2c0.5,6.3,5,16,6.6,28.6
	c1.2,9.5,1.8,13.1,4.5,27.1c3.4,17.9,26.6,60.5,10.5,84.3"/>
<path class="st2" d="M381.6,167.7c1.8,1.3,5.2,3.1,6.1,5.2"/>
<path class="st2" d="M48.3,185.6c4.5,0.5,8.5,3.9,9.6,8.3"/>
<path class="st2" d="M75.2,197.5c-1.7,2-2.6,3.6-2.9,6.4"/>
<path class="st3" d="M204.5,183.9L172,201.3c-5.3,2.7-95.7-5.2-95.7-5.2s-7.8-20.7-17.7-22.6c-7.8-1.5-9.2-9.4-15-16.2
	c-1.6-1.8-14-13.3-14-13.3s-6,3.5-2,10s4,7.5,4,7.5"/>
<path class="st1" d="M31.6,161.5c7,5,7.9,11.2,10.8,14.9"/>
<g>
	<g id="XMLID_3_">
		<g>
			<path class="st4" d="M31.5,191.3c0.1,0.6,0.2,1.2,0.2,1.9c0.2,2,3.1,1.4,2.8-0.5c-0.1-0.7-0.2-1.4-0.3-2.2"/>
			<path class="st4" d="M32.6,186.4c-1.9-15.6-3.8-31.2-5.7-46.8c-0.2-2-3.1-1.4-2.8,0.5c2,15.7,3.8,31.4,5.8,47.1"/>
			<path class="st4" d="M41.6,200.2c-0.5-1.7-3.3-2.5-3.4-1.9c-0.1,0.5-0.3,1-0.5,1.5c0.1,0.5,0.1,1,0.2,1.5
				c0.3,2.5,3.8,1.9,3.8-0.2V201c0-0.1,0-0.2,0-0.3v-0.1c0,0,0,0,0-0.1C41.6,200.4,41.6,200.3,41.6,200.2z"/>
			<path class="st4" d="M24.3,199.1c0.4,2.3,0.7,4.1,0.9,4.4c1.3,2,4.5,4.3,7.3,4.3c1.6,0,6.1-1.4,8.2-3.9c0.7-0.8,1-2,1-2.9
				c-0.1,2.1-3.5,2.7-3.8,0.2c-0.1-0.5-0.1-1-0.2-1.5c-1.4,3.3-5.2,4.5-8.6,2c-0.9-0.7-1.4-3.1-1.7-5.8"/>
			<path class="st4" d="M26.6,187.3c-1-4.7-1.1-8.9-1.6-12.6c-1.4-11-2.7-21.9-4.1-32.9c-0.5-3.8-0.4-9,5.4-7.9
				c4.3,0.8,3.8,5.4,4.2,8.7c0.1,1.1,0.3,2.2,0.4,3.3l4.1,1c-0.3-3.1-0.7-6.4-1.2-9.7c-0.6-4.2-2.2-7.1-6.9-7.4
				c-5.2-0.2-10.4,2.2-10.3,8.1c0.1,10.2,2.6,20.9,3.8,31.1c0.8,6.1,1.3,12.4,2.3,18.5"/>
			<path class="st4" d="M32.8,160.7c0.6,4.9,1.2,9.8,1.8,14.7c1,8.1,2,16.2,3,24.3c0.2-0.5,0.4-1,0.5-1.5c0.1-0.7,2.9,0.2,3.4,1.9
				c0,0.1,0.1,0.2,0.1,0.3c-2.8-13.5-3.9-25-5-36.5L32.8,160.7z"/>
			<path class="st4" d="M41.7,200.7c0,0.1,0,0.2,0,0.3C41.7,200.9,41.7,200.8,41.7,200.7z"/>
			<path class="st4" d="M41.7,201v0.1V201z"/>
		</g>
	</g>
</g>
<g id="XMLID_2_">
	<g>
		<path class="st4" d="M278.7,76.7c-2.1,0-3.8,1.7-3.8,3.8s1.7,3.8,3.8,3.8s3.8-1.7,3.8-3.8S280.8,76.7,278.7,76.7z"/>
		<path class="st4" d="M278.4,72.2c4.8,0.3,6.1,1,8.6,1.7c0.3,0.1,1.4-0.4,0.9-1.3c-1.9-3.3-10.5-4.3-14.6-3.8c0,0-4.1,0.5-5.2,1.4
			c-0.7,0.5-0.6,2.4,0.5,3.3C270.4,75.1,273.3,71.9,278.4,72.2z"/>
		<path class="st4" d="M298.8,72.9c-0.6,0.8,0.6,1.4,0.8,1.4c2.6-0.5,4-1.2,8.7-1.1c5.1,0.1,7.7,3.4,9.7,1.9
			c1.1-0.9,1.4-2.6,0.7-3.2c-1.1-0.9-5.1-1.7-5.1-1.7C309.6,69.3,300.9,69.8,298.8,72.9z"/>
		<path class="st4" d="M308.4,77.7c-2.1,0-3.8,1.7-3.8,3.8s1.7,3.8,3.8,3.8s3.7-1.7,3.8-3.8C312.1,79.4,310.5,77.7,308.4,77.7z"/>
	</g>
	<g>
		<path class="st5" d="M301.2,79.8c0,0,8.4-5.2,12.8,0.4"/>
		<path class="st5" d="M285.9,79c0,0-8.2-5.4-12.8,0"/>
	</g>
</g>
<path class="st6" d="M20,192.9c-4.1-0.9-0.9-11.5-0.9-11.5s4.1-2.7,5.6-5.8s-1.7-5.8-1.7-5.8s-9.1,7.5-10.1,8.8s-4.2,13.3-2,16.6
	l6.6,6.6"/>
<path class="st7" d="M10.1,191.8c0,0-1.6-11.8-1.8-13.5s-1.5-5.7-0.5-9.5c0.5-2.1,4.6-7.1,4.6-7.1l3.6-4.5c0,0,5.6,5.8,2.3,9.7
	c0,0-1.1,0.5-3.4,3.3s0,5.6,0,5.6"/>
<path class="st6" d="M19.6,183.7c0.9,1.4,1.9,2.8,3.1,4"/>
<path class="st6" d="M8,176.2c0,0-3.7-8.1-3.5-10.8c0.3-3.6,10.1-18.5,10.1-18.5s5.5,4.9,3.8,9"/>
<path class="st7" d="M29.9,133"/>
<path class="st6" d="M26,139.8"/>
<linearGradient id="Path-64_1_" gradientUnits="userSpaceOnUse" x1="-2952.8779" y1="1555.3264" x2="-3057.0891" y2="1367.6833" gradientTransform="matrix(0.4372 -0.9419 1.0145 0.3541 -5.7585 -3192.2419)">
	<stop  offset="0" style="stop-color:#DFF2FD;stop-opacity:0.3"/>
	<stop  offset="1" style="stop-color:#C3E1FF"/>
</linearGradient>
<path id="Path-64_5_" class="st8" d="M39.9,195.1l241.4,30.4c2.5-4.4,9.4-13.9,10.6-21.1s-0.1-14.6,1.7-21.8
	c2.6-10.8-29.9-50.1-28.8-61.1c1.9-20-0.2-56-6.7-64.3L33.4,135.4L39.9,195.1z"/>
<path class="st1" d="M217.2,227.3c0,0-34.3,12.3-43.9,14.2c-7,1.4-81.2-16.9-105.8-26.3c-9.6-3.7-27.7,4.8-32.4,2.1
	s-18-16.5-18-16.5s4.9-11.1,7.8-12.5s12.9-4.5,12.9-4.5c0.4,7.5-4.2,8.1-7.1,9.5c0,0-8,4.2-4.7,15.5"/>
<path class="st4" d="M371.6,46.3c-2-10.9-2.9-13.8-7.1-21.3c-15.9-28.4-55-21.3-73.8-17.9c-3.9,0.7-7.2,1.3-8.3,1.2
	c-3.9-0.5-5.3-2.8-6.4-4.7c-0.7-1.2-1.3-2.3-2.5-2.5c-0.7-0.2-1.4,0-2.1,0.5c-5.5,3.9-9.9,10.9-11.9,19.3
	c-1.6,6.7-2.5,17.3,2.3,30.5c1.6,4.3,3.9,9.5,6.3,10.1c-0.8,8.7-0.6,17.3,0.8,20c1,2.1,0.7,6.6,0.4,10.6c-0.3,4.5-0.6,8.8,0.6,11.3
	c1.1,2.3,2.4,5.4,3.8,8.8c4.1,9.7,8.7,20.8,12.5,24.6l0.1,0.1c0.2,0.2,3.7,3,10,3c3.2,0,7-0.7,11.6-2.8c0.8-0.3,1.1-1.2,0.7-2
	s-1.2-1.1-2-0.7c-11.5,5.3-17.8,0.7-18.4,0.2c-3.4-3.5-8.3-15.1-11.8-23.6c-1.4-3.4-2.8-6.6-3.8-8.9c-0.9-1.9-0.6-5.9-0.3-9.8
	c0.3-4.8,0.7-9.4-0.7-12.2c-2.3-4.5-0.4-32.7,4.2-37.6c0.5-0.5,0.7-0.4,0.9-0.4c17.5,7.5,31.7,5.4,41,4c4-0.6,7.5-1.1,8.6-0.2
	c2.8,2.3,4.2,6.9,5.6,11.2c1.4,4.4,2.7,8.6,5.4,10.8c0.7,0.6,0.8,1,0.7,1.3c-0.2,1.9-3.9,4.8-6.5,6.2l-0.6,0.3l-0.2,0.6
	c-2.1,8.4,0,13.7,0,13.8c0.3,0.8,0.9,1.4,1.7,1.5c2,0.3,5.3-2.8,9.9-9.1l0.1-0.2l0.1-0.2c1-2.5,3-6.6,5.6-6.1c2,0.4,3.5,2.9,3.5,3.6
	c0,4.1-2.9,5.4-5.9,6.8c-2,0.9-3.9,1.8-4.9,3.4c-2.2,3.8-1.5,6.6-0.9,9c0.3,1.2,0.7,2.4,0.7,3.8c0,2.8-0.7,5.8-1.2,7.9
	c-0.6,2.6-0.9,3.9,0.3,4.7c0.5,0.3,1.3,0.5,2.4-0.4c12.5-10.7,28-27.8,31.1-48.3C375,55,372.1,47.6,371.6,46.3z"/>
<path class="st9" d="M291.1,84.7c0,0-1,7-6,13c-1.5,1.8,1,6,8,5"/>
<path class="st9" d="M289.1,116.7c0,0,8,3,16-5"/>
<ellipse transform="matrix(0.3243 -0.9459 0.9459 0.3243 78.9622 382.2245)" class="st4" cx="307" cy="135.8" rx="0.8" ry="1"/>
<circle class="st4" cx="299.3" cy="138.6" r="0.8"/>
<path class="st1" d="M341.1,113.7c0,0-2.3,17.1,7.8,24.3c0,0,7,19.5-23,28.6"/>
<path class="st6" d="M299,139.4c0,0,4.1,13.7-1.9,25.2"/>
<path class="st1" d="M269.7,151.5c14.3,0.2,29-5.6,29-5.6"/>
<path class="st1" d="M269.7,389.1c0,0-6.1-41.3-7.1-62c-0.4-9,2.2-13.3,0-30.7c-1.8-13.8-2.5-41.7-2.5-64.7"/>
<path class="st1" d="M403.3,335c-4.8,13.6-9.2,44.5-13.2,56.4"/>
<path class="st1" d="M350,138c0,0,34.7,16.2,50,20.5"/>
<path class="st9" d="M386.2,143.7c0,0,12.5,10.1,21.6,8.8c9.1-1.2,41.4,8.8,36.4,40.5c-1.4,9.2,11.3,38.3,6,51.5
	c-3.5,8.7-13.7,3.6-27.4,3.5"/>
<path class="st1" d="M270.7,151.5c0,0-7.3-1.5-15.3-2.2c-11.4-0.9-31.7,11-39.9,18.3c-2.5,2.2-23.8,16.3-21.2,15.1
	c10.9-4.9,20.3,7.6,25.3,18.3c6.8,14.5-5.4,32.8-5.4,32.8c0.8,4.1,16.6,3.1,27.9-4.1c0,0,20.7,3.5,24.8-1"/>
<circle class="st10" cx="276.7" cy="81" r="1.3"/>
<circle class="st10" cx="306.2" cy="81.5" r="1.3"/>
<path class="st1" d="M443.2,250.6c0,0,1,25.2,2.6,42s-5,32.4-14.5,38.3c-3,1.9-7.2,14.5-18.5,10.7c-6.2-2.1-16.4-12.2-19-16.5
	c-9.2-15.3-7.8-33.3-5.8-45.6c0,0-2.8-50.7-2.8-73.9c0,0,0.4-10.3-1.4-16.7"/>
<path class="st9" d="M353.7,147.9"/>
<path class="st10" d="M410,142.6v20.3l0.4-0.4c0,0,4.1-15.5,2.9-19.9C412.2,138.2,410,142.6,410,142.6z"/>
<path class="st11" d="M382.3,138.6c0,0-0.5-0.1-1.2,0c-2.4,0.4-3.4,0.4-4.5,0c0,0,0.6,2.1,1.7,2.2c0.9,0.1,2.3,0,3.2-1.3
	C381.7,139.1,382.3,138.6,382.3,138.6z"/>
<path class="st1" d="M297.9,162.9c0,0-1.3,9.4,13.4,7.9"/>
<path class="st6" d="M365.3,137.4c0,0-4.1-6-7.4-5.6c0,0-6.6,0.3-4.2,5.6c1.8,3.9,4.9,5.3,4.9,5.3"/>
<path class="st12" d="M425.2,207.8l-66.6-2.3v-68.1h11.1c0,0,1.2,4.9,2.6,5.3c2.4,0.7,8.7-5.3,8.7-5.3s0.9,6.7,2.8,7.2
	c2.7,0.7,8.5-7.2,8.5-7.2s0.6,6.6,2.4,7c2.5,0.6,7.6-7,7.6-7s2.1,6.1,4,6.3c2.2,0.2,6-6.3,6-6.3h12.9V207.8z"/>
<path class="st11" d="M368.8,142.4c0,0,2.2,3.5,4.3,3.1c1.7-0.3,2.9-1.8,3.4-3.1H368.8z"/>
<path class="st11" d="M379.4,144.1c0,0,3.1,3.4,5.9,3.1c2.4-0.3,4.7-2.2,4.7-4.5L379.4,144.1z"/>
<path class="st11" d="M386.4,138.6c0,0,2.2,2.2,4,2c1.6-0.2,2.8-1.2,3.3-2H386.4z"/>
<path class="st11" d="M409.9,143.1c0,0-0.4,0.6-0.7,0.6c-0.4,0.1-0.6,0.4-0.9,0.4c-1.3,0.2-2.9,0.1-4-0.3c0,0,0.6,2.1,1.7,2.2
	c0.9,0.1,2.3,0,3.2-1.3C409.6,144.3,409.9,143.1,409.9,143.1z"/>
<path class="st11" d="M399.5,143.1c0,0-1.4,1-1.7,1c-0.4,0.1,0.4,0.4,0.1,0.4c-1.3,0.2-3.6,0-4.7-0.4c0,0,0.4,2.2,1.5,2.3
	c0.9,0.1,3.2,0,4.1-1.3C399.1,144.7,399.5,143.1,399.5,143.1z"/>
<text transform="matrix(1 2.100000e-04 -2.100000e-04 1 373.8863 184.2841)" class="st13 st14 st15">27/09/2019</text>
<path class="st6" d="M393.9,126.4c0,0-6.2-4.8-7.7-1.3c-3.8,9-5.4,14.1-5.7,18.2c0,0,7.7,3.5,8.7-3.6"/>
<g>
	<text transform="matrix(1 0 0 1 371.3861 163.8515)" class="st13 st14 st15">I want to open </text>
	<text transform="matrix(1 0 0 1 371.3861 172.2515)" class="st13 st14 st15">my account.  </text>
</g>
<path class="st6" d="M410.9,133.8c-0.3,5.7,0.7,5.5-1.7,8c-3.8,4-6.3,0.7-6-1.1c1.2-7.4,2.9-15.7,2.9-15.7s6.6-2.3,9,1
	c3.9,5.4,4.5,10.3,4.5,10.3"/>
<path class="st6" d="M404.1,127.1c0,0-4.9-3.3-7.7-2.1l-4.5,16.7c0,0,3.4,4.7,6.1,1c3.2-4.4,2.5-6.8,2.5-6.8"/>
<path class="st6" d="M379.7,134.9c-1.1,2.4-2.4,5.5-3.4,6.3c-3.6,3-6.6,0.6-6.6,0.6s3.7-14.1,6.8-18.7c1.1-1.8,2.1-1.5,8.1,2"/>
<path class="st16" d="M373.2,138.1c0,0,1.2-0.4,1.8,0.3"/>
<path class="st16" d="M384.2,138.6c0,0,1.1-0.6,2.2,0.4"/>
<path class="st16" d="M394.7,138.9c0,0,0.6-0.2,1.3,0.3"/>
<path class="st16" d="M405.5,139.6c0,0,0.8-0.3,1.5,0"/>
</svg>
